<?xml version="1.0" encoding="UTF-8"?>
<!DOCTYPE svg PUBLIC "-//W3C//DTD SVG 1.1//EN" "http://www.w3.org/Graphics/SVG/1.1/DTD/svg11.dtd">
<!-- Creator: CorelDRAW 2020 (64 Bit) -->
<svg xmlns="http://www.w3.org/2000/svg" xml:space="preserve" width="309.757mm" height="230.1mm" version="1.1" style="shape-rendering:geometricPrecision; text-rendering:geometricPrecision; image-rendering:optimizeQuality; fill-rule:evenodd; clip-rule:evenodd"
viewBox="0 0 17528.48 13020.88"
 xmlns:xlink="http://www.w3.org/1999/xlink"
 xmlns:xodm="http://www.corel.com/coreldraw/odm/2003">
 <defs>
  <style type="text/css">
   <![CDATA[
    .fil16 {fill:#244057;fill-rule:nonzero}
    .fil15 {fill:#4A3F3F;fill-rule:nonzero}
    .fil24 {fill:#639C38;fill-rule:nonzero}
    .fil20 {fill:#665249;fill-rule:nonzero}
    .fil8 {fill:#665757;fill-rule:nonzero}
    .fil17 {fill:#81807E;fill-rule:nonzero}
    .fil11 {fill:#877373;fill-rule:nonzero}
    .fil14 {fill:#8A664D;fill-rule:nonzero}
    .fil22 {fill:#A77860;fill-rule:nonzero}
    .fil21 {fill:#AB8039;fill-rule:nonzero}
    .fil10 {fill:#ADD14D;fill-rule:nonzero}
    .fil13 {fill:#CF8C6C;fill-rule:nonzero}
    .fil23 {fill:#CFC147;fill-rule:nonzero}
    .fil25 {fill:#DB9C7C;fill-rule:nonzero}
    .fil12 {fill:#EEA886;fill-rule:nonzero}
    .fil19 {fill:#EEA987;fill-rule:nonzero}
    .fil18 {fill:#FFBF55;fill-rule:nonzero}
    .fil4 {fill:url(#id0)}
    .fil2 {fill:url(#id1)}
    .fil0 {fill:url(#id2)}
    .fil6 {fill:url(#id3)}
    .fil7 {fill:url(#id4)}
    .fil3 {fill:url(#id5)}
    .fil5 {fill:url(#id6)}
    .fil1 {fill:url(#id7)}
    .fil9 {fill:url(#id8)}
   ]]>
  </style>
  <linearGradient id="id0" gradientUnits="userSpaceOnUse" x1="4428.5" y1="9035.95" x2="6122.94" y2="9651.3">
   <stop offset="0" style="stop-opacity:1; stop-color:#3076A1"/>
   <stop offset="1" style="stop-opacity:1; stop-color:#639C38"/>
  </linearGradient>
  <linearGradient id="id1" gradientUnits="userSpaceOnUse" xlink:href="#id0" x1="4873.46" y1="7257.4" x2="6343.74" y2="7879.76">
  </linearGradient>
  <linearGradient id="id2" gradientUnits="userSpaceOnUse" xlink:href="#id0" x1="5741.03" y1="7195.95" x2="7435.43" y2="7811.31">
  </linearGradient>
  <linearGradient id="id3" gradientUnits="userSpaceOnUse" xlink:href="#id0" x1="3560.96" y1="9097.36" x2="5031.25" y2="9719.73">
  </linearGradient>
  <linearGradient id="id4" gradientUnits="userSpaceOnUse" xlink:href="#id0" x1="5666.14" y1="11167.86" x2="5836.96" y2="9895.26">
  </linearGradient>
  <linearGradient id="id5" gradientUnits="userSpaceOnUse" xlink:href="#id0" x1="6978.63" y1="9327.87" x2="7149.46" y2="8055.27">
  </linearGradient>
  <linearGradient id="id6" gradientUnits="userSpaceOnUse" xlink:href="#id0" x1="4885.64" y1="9669.53" x2="7654.04" y2="10645.28">
  </linearGradient>
  <linearGradient id="id7" gradientUnits="userSpaceOnUse" xlink:href="#id0" x1="6198.12" y1="7829.57" x2="8966.49" y2="8805.31">
  </linearGradient>
  <linearGradient id="id8" gradientUnits="userSpaceOnUse" xlink:href="#id0" x1="-2088.03" y1="12762.79" x2="9518.7" y2="9352.51">
  </linearGradient>
 </defs>
 <g id="Camada_x0020_4">
  <metadata id="CorelCorpID_0Corel-Layer"/>
  <path class="fil0" d="M6176.79 9186.6c0,0 277.89,-122.24 356.7,-388.32 78.75,-266.15 129.23,-632.5 344.61,-726.92 215.38,-94.37 667.88,-346.23 681.13,-661.47 13.24,-315.3 -668,-689.28 -511.02,-767.74 156.87,-78.52 439.84,-287.65 161.43,-458.28 -278.34,-170.63 -426.25,-200.52 -499.91,-431.45 -73.6,-231 -342.36,-349.18 -401.5,2.14 -59.21,351.37 -225.56,431.63 -189.42,724.72 36.19,293.09 204.68,568.61 -265.22,633.94 -469.85,65.39 -298.93,382.88 -194.22,614.34 104.65,231.46 131.31,1144.5 162.59,1303.16 31.34,158.77 162.76,262.73 354.84,155.88z"/>
  <path class="fil1" d="M6058.32 9345.89c0,0 638.05,-240.88 836.84,-197.63 198.79,43.31 567.8,148.37 713.39,-17.98 145.59,-166.35 263.08,-727.32 730.45,-664.65 467.25,62.68 639.61,-48.98 612.67,-328.07 -26.88,-279.16 730.33,-702.4 593.82,-855.98 -136.51,-153.57 -1168.61,129.17 -1475.29,236.54 -306.73,107.32 -603.93,-137.72 -773.35,159.99 -169.36,297.78 -735.77,552.42 -924.26,501.24 -188.44,-51.11 -340.51,-77.54 -386.65,205.09 -46.14,282.63 -236.66,455.85 -286.84,631.46 -50.19,175.66 -116.74,302.74 359.24,329.98z"/>
  <path class="fil2" d="M5585.35 6089.56c-22.66,-172.77 -320.67,-252.85 -367.04,-36.14 -46.37,216.65 62.39,503.56 -346.23,755.65 -408.67,252.1 215.96,549.88 369.18,852.45 153.22,302.51 126.11,634.69 253.54,897.08 127.38,262.39 97.6,772.31 318.53,655.97 220.87,-116.33 149.41,-394.04 276.73,-698.7 127.38,-304.6 552.82,-376 267.3,-701.83 -285.52,-325.87 -621.92,-513.44 -345.13,-923.97 122.12,-181.04 -356.46,-263.08 -426.89,-800.52z"/>
  <path class="fil3" d="M5670.46 9172.49c0,0 220.59,-206.42 107.83,-650.08 -112.75,-443.72 -325.99,-456.67 348.43,-529.75 674.48,-73.08 407.86,-1145.82 938.02,-1083.27 530.15,62.56 1453.54,-1196.24 1763.75,-885.23 310.21,311.07 -431.23,826.54 -237.53,1127.9 193.7,301.25 136.29,577.63 -490.26,596.94 -626.48,19.37 28.62,1166.88 -805.9,1152.42 -834.52,-14.46 -964.04,1036.49 -1624.35,271.06z"/>
  <path class="fil4" d="M4864.33 11026.56c0,0 277.89,-122.17 356.64,-388.32 78.75,-266.09 129.29,-632.49 344.67,-726.86 215.38,-94.42 667.88,-346.28 681.13,-661.52 13.24,-315.3 -668,-689.27 -511.07,-767.74 156.92,-78.46 439.84,-287.6 161.49,-458.23 -278.41,-170.63 -426.25,-200.58 -499.91,-431.52 -73.6,-230.94 -342.36,-349.18 -401.56,2.14 -59.15,351.38 -225.56,431.69 -189.36,724.72 36.19,293.09 204.63,568.61 -265.22,633.95 -469.85,65.39 -298.99,382.94 -194.28,614.34 104.71,231.46 131.31,1144.49 162.64,1303.21 31.28,158.72 162.77,262.68 354.85,155.83z"/>
  <path class="fil5" d="M4745.85 11185.85c0,0 638.04,-240.82 836.83,-197.57 198.73,43.25 567.74,148.37 713.34,-17.98 145.59,-166.35 263.14,-727.38 730.44,-664.64 467.31,62.68 639.67,-49.03 612.73,-328.14 -26.95,-279.1 730.27,-702.34 593.82,-855.97 -136.52,-153.52 -1168.67,129.17 -1475.35,236.54 -306.68,107.31 -603.93,-137.73 -773.29,160.05 -169.42,297.78 -735.82,552.36 -924.26,501.19 -188.44,-51.12 -340.56,-77.54 -386.7,205.09 -46.14,282.68 -236.66,455.91 -286.79,631.57 -50.19,175.6 -116.74,302.69 359.24,329.86z"/>
  <path class="fil6" d="M4272.82 7929.52c-22.61,-172.77 -320.67,-252.79 -366.99,-36.14 -46.37,216.71 62.39,503.56 -346.28,755.71 -408.62,252.04 216.02,549.87 369.24,852.45 153.22,302.52 126.11,634.69 253.54,897.03 127.38,262.44 97.6,772.31 318.48,655.97 220.87,-116.34 149.47,-394.05 276.78,-698.64 127.32,-304.66 552.82,-376.01 267.3,-701.88 -285.51,-325.88 -621.97,-513.45 -345.13,-923.92 122.12,-181.09 -356.46,-263.08 -426.94,-800.58z"/>
  <path class="fil7" d="M4357.93 11012.45c0,0 220.65,-206.42 107.9,-650.08 -112.75,-443.65 -325.99,-456.66 348.43,-529.75 674.41,-73.09 407.86,-1145.77 938.02,-1083.27 530.15,62.56 1453.55,-1196.25 1763.76,-885.23 310.2,311.02 -431.23,826.6 -237.53,1127.9 193.7,301.3 136.28,577.63 -490.26,596.94 -626.54,19.37 28.57,1166.87 -805.9,1152.47 -834.58,-14.45 -964.04,1036.43 -1624.41,271z"/>
  <path class="fil8" d="M11227.29 12672.53c-513.51,-360.57 -1486.91,-654.35 -2609.38,-868.75 -1951.27,-372.82 -4353.77,-505.52 -5575.57,-332.18 -1924.73,273.2 -3912,-1013.82 -2329.41,-1824.93 782.06,-400.87 4992.28,-1094.02 8116.03,-1288.01 0,0 0.23,0 0.81,0 1678.12,-103.91 3042.63,-64.24 3393.48,242.61 1407.11,1229.84 2166.82,556.64 4736.88,2175.96 2569.83,1619.32 -4327.4,2882.81 -5732.84,1895.3z"/>
  <path class="fil9" d="M9047.63 8948.67c-640.88,580.86 -2013.54,583.23 -1013.99,1281.65 999.43,698.06 1237.53,1367.22 584.56,1573.46 0,0 0,0 -0.29,0 -1951.27,-372.82 -4353.77,-505.52 -5575.57,-332.18 -1924.73,273.2 -3912,-1013.82 -2329.41,-1824.93 782.06,-400.87 4992.28,-1094.02 8116.03,-1288.01 0,0 0.23,0 0.81,0 29.95,0.58 846.95,19.55 217.86,590z"/>
  <path class="fil10" d="M9925.75 8456.73c66.5,12.61 323.34,38.92 441.75,-277.59 0,0 -70.02,69.38 -176.29,29.78 -75.75,-28.16 -187.98,17.58 -245.22,110.49 18.33,-201.04 -19.02,-339.06 -26.66,-522.46 -1.15,-27.87 -1.27,-53.08 -0.75,-76.38 45.56,-8.39 322.7,-73.89 305.52,-431.45 0,0 -36.89,91.36 -150.16,97.02 -89.86,4.45 -185.26,111.08 -184.27,235.91 -14.8,39.03 -24.98,85.17 -25.91,151.84 -1.22,88.87 21.62,180.11 35.56,280.43 -12.14,-25.73 -27.12,-52.15 -48.8,-78.81 -114.83,-141.37 -240.13,-158.6 -263.72,-194.91 0,0 -44.23,161.2 134.54,269.56 109.51,66.38 162.59,129.34 187.52,168.37 -2.72,71.18 -15.9,147.38 -48.57,230.88 -110.56,282.39 42.03,578.2 42.03,578.2l97.66 -60.31c0,0 -148.37,-170.92 -80.48,-476.38 2.66,-12.08 3.99,-22.49 6.24,-34.17z"/>
  <path class="fil11" d="M9134.37 9173.7c0,0 732.35,-815.56 1616.02,-2.77l-1616.02 2.77z"/>
  <path class="fil10" d="M10700.9 9317.09c66.49,12.66 323.27,38.86 441.75,-277.59 0,0 -70.08,69.44 -176.29,29.83 -75.75,-28.21 -188.04,17.52 -245.27,110.44 18.33,-201.1 -18.97,-339.06 -26.6,-522.46 -1.15,-27.81 -1.27,-53.08 -0.81,-76.44 45.62,-8.32 322.75,-73.84 305.59,-431.4 0,0 -36.95,91.36 -150.22,97.02 -89.8,4.45 -185.2,111.08 -184.22,235.91 -14.8,39.03 -24.98,85.11 -25.91,151.89 -1.21,88.87 21.63,180.06 35.56,280.37 -12.2,-25.72 -27.17,-52.09 -48.8,-78.8 -114.83,-141.32 -240.12,-158.6 -263.77,-194.92 0,0 -44.23,161.21 134.54,269.56 109.57,66.38 162.65,129.34 187.57,168.37 -2.77,71.18 -15.9,147.38 -48.57,230.88 -110.55,282.4 42.03,578.2 42.03,578.2l97.66 -60.31c0,0 -148.37,-170.92 -80.54,-476.38 2.72,-12.02 3.99,-22.49 6.3,-34.17z"/>
  <path class="fil11" d="M9873.31 9989.72c0,0 732.35,-815.5 1616.02,-2.77l-1616.02 2.77z"/>
  <path class="fil10" d="M11338.89 10394.06c66.5,12.66 323.28,38.91 441.69,-277.6 0,0 -70.02,69.38 -176.29,29.83 -75.69,-28.16 -187.97,17.58 -245.22,110.44 18.33,-201.04 -18.96,-339.06 -26.6,-522.46 -1.22,-27.81 -1.33,-53.08 -0.81,-76.44 45.62,-8.32 322.75,-73.84 305.58,-431.34 0,0 -36.95,91.3 -150.22,96.96 -89.85,4.51 -185.26,111.08 -184.22,235.91 -14.86,39.03 -24.98,85.17 -25.9,151.89 -1.27,88.87 21.62,180.06 35.55,280.38 -12.19,-25.67 -27.12,-52.1 -48.8,-78.87 -114.83,-141.25 -240.13,-158.6 -263.78,-194.85 0,0 -44.23,161.21 134.55,269.56 109.57,66.32 162.65,129.34 187.57,168.37 -2.77,71.18 -15.9,147.45 -48.57,230.88 -110.61,282.4 42.04,578.2 42.04,578.2l97.6 -60.31c0,0 -148.31,-170.92 -80.48,-476.38 2.66,-12.08 3.99,-22.55 6.3,-34.17z"/>
  <path class="fil11" d="M10547.5 11111.04c0,0 732.29,-815.5 1616.02,-2.72l-1616.02 2.72z"/>
  <path class="fil10" d="M12113.97 11254.43c66.55,12.66 323.28,38.91 441.8,-277.54 0,0 -70.08,69.39 -176.35,29.78 -75.69,-28.16 -188.03,17.58 -245.22,110.5 18.33,-201.1 -18.96,-339.06 -26.65,-522.53 -1.16,-27.81 -1.27,-53.08 -0.75,-76.38 45.56,-8.32 322.7,-73.84 305.58,-431.45 0,0 -36.95,91.36 -150.22,97.03 -89.85,4.51 -185.26,111.07 -184.22,235.9 -14.86,39.03 -24.98,85.17 -25.9,151.9 -1.27,88.87 21.57,180.05 35.5,280.43 -12.14,-25.79 -27.12,-52.16 -48.8,-78.87 -114.78,-141.32 -240.07,-158.6 -263.72,-194.91 0,0 -44.23,161.26 134.55,269.56 109.57,66.38 162.59,129.34 187.57,168.37 -2.78,71.18 -15.96,147.45 -48.63,230.88 -110.55,282.4 42.1,578.2 42.1,578.2l97.6 -60.31c0,0 -148.31,-170.92 -80.55,-476.38 2.72,-12.08 4.05,-22.49 6.3,-34.17z"/>
  <path class="fil11" d="M11286.44 11927.05c0,0 732.35,-815.5 1615.97,-2.78l-1615.97 2.78z"/>
  <path class="fil10" d="M13295.18 9700.67c66.49,12.61 323.28,38.86 441.75,-277.59 0,0 -70.08,69.38 -176.35,29.78 -75.69,-28.16 -187.98,17.58 -245.22,110.49 18.33,-201.1 -18.97,-339.11 -26.6,-522.52 -1.22,-27.81 -1.27,-53.08 -0.81,-76.38 45.62,-8.32 322.75,-73.84 305.58,-431.45 0,0 -36.95,91.36 -150.22,97.08 -89.86,4.45 -185.26,111.02 -184.22,235.85 -14.86,39.09 -24.98,85.17 -25.91,151.89 -1.21,88.87 21.63,180.05 35.56,280.43 -12.2,-25.79 -27.17,-52.15 -48.8,-78.87 -114.83,-141.31 -240.12,-158.6 -263.77,-194.85 0,0 -44.23,161.15 134.55,269.51 109.57,66.38 162.64,129.34 187.57,168.37 -2.77,71.18 -15.9,147.44 -48.57,230.88 -110.55,282.39 42.04,578.26 42.04,578.26l97.6 -60.31c0,0 -148.31,-170.97 -80.48,-476.44 2.66,-12.09 3.99,-22.49 6.3,-34.12z"/>
  <path class="fil11" d="M12503.79 10417.59c0,0 732.3,-815.5 1615.97,-2.72l-1615.97 2.72z"/>
  <path class="fil10" d="M14070.27 10560.98c66.49,12.72 323.33,38.92 441.75,-277.54 0,0 -70.02,69.38 -176.29,29.78 -75.69,-28.16 -187.97,17.58 -245.22,110.49 18.27,-201.1 -18.97,-339.06 -26.66,-522.52 -1.15,-27.81 -1.27,-53.08 -0.75,-76.38 45.56,-8.38 322.69,-73.84 305.58,-431.4 0,0 -36.95,91.36 -150.22,96.96 -89.86,4.51 -185.26,111.08 -184.22,235.91 -14.86,39.03 -24.98,85.17 -25.91,151.89 -1.27,88.87 21.63,180.05 35.5,280.43 -12.14,-25.79 -27.12,-52.16 -48.8,-78.87 -114.77,-141.32 -240.07,-158.6 -263.72,-194.86 0,0 -44.23,161.21 134.55,269.51 109.57,66.38 162.59,129.34 187.57,168.37 -2.77,71.18 -15.9,147.44 -48.63,230.88 -110.55,282.4 42.1,578.26 42.1,578.26l97.6 -60.36c0,0 -148.31,-170.86 -80.54,-476.33 2.72,-12.14 4.05,-22.55 6.3,-34.23z"/>
  <path class="fil11" d="M13242.74 11233.61c0,0 732.3,-815.5 1615.97,-2.72l-1615.97 2.72z"/>
  <path class="fil12" d="M7154.83 4295.1c0,0 184.91,-77.13 213.53,-88.01 28.62,-10.93 111.83,8.39 205.49,38.92 93.67,30.53 206.6,113.62 211.11,129.98 4.57,16.37 16.77,30.82 2.31,71.93 -14.45,41.11 -49.32,67.94 -49.32,67.94 0,0 6.07,59.09 -39.38,88.87 0,0 7.52,57.82 -49.55,83.26 0,0 -2.89,52.62 -45.97,67.59 0,0 -83.43,-19.25 -116.39,-17.4 -32.96,1.73 -203.82,-50.07 -359.99,-125.06 0,0 -175.72,-75.98 28.16,-318.01z"/>
  <path class="fil13" d="M7413.81 4413.17c0,0 -70.37,71.99 -100.38,82.22 -29.95,10.24 78,209.77 78,209.77 0,0 107.55,-204.16 22.38,-291.99z"/>
  <path class="fil12" d="M7089.14 4299.21c0,0 86.85,7.46 144.15,-6.3 57.24,-13.76 -62.56,262.57 -62.56,262.57 0,0 -109.75,-113.04 -192.14,-132.18 -82.51,-19.14 110.55,-124.09 110.55,-124.09z"/>
  <polygon class="fil14" points="6521.4,9364.04 6404.14,9340.51 7555.93,3593.22 7673.19,3616.81 "/>
  <path class="fil15" d="M5895.09 8990.64l-231.39 1151.32c134.72,410.52 534.03,529.11 534.03,529.11 0,0 414.05,44.93 696.91,-281.7l231.39 -1151.32 -1230.94 -247.41z"/>
  <path class="fil16" d="M5903.59 10334.33c0,0 167.34,186.18 336.98,224.98 169.59,38.74 288.29,88.41 289.74,195.43 1.51,107.03 -487.66,178.32 -681.88,70.77 -289.85,-160.51 -319.22,-111.94 -351.49,-192.37 -32.2,-80.37 34,-295.46 35.97,-321.31 2.37,-31.63 370.68,22.49 370.68,22.49z"/>
  <path class="fil16" d="M4199.62 10385.85c0,0 123.16,181.44 287.6,223.01 162.12,41.05 267.24,119.51 275.4,223.48 8.04,104.02 -381.73,240.88 -656.03,58.63 -180.23,-119.75 -247.41,-112.75 -283.78,-188.96 -36.43,-76.27 12.6,-289.28 14.86,-314.83 2.6,-30.82 361.95,-1.33 361.95,-1.33z"/>
  <path class="fil12" d="M5531.29 5016.07c0,0 172.07,1229.95 244.47,1687.83 84.71,535.42 100.02,830.53 123.85,1107.67 30.01,348.6 -35.67,2331.67 -14.97,2433.54 20.76,101.94 -329.4,-51.98 -329.4,-51.98 0,0 -309.17,-2172.49 -397.34,-2543.64 -82.1,-345.53 -387.05,-1833.49 -461.24,-1738.95 -74.24,94.48 -163.63,1737.22 -218.27,2010.01 -54.58,272.74 -283.96,2375.5 -283.96,2375.5 0,0 -233.01,53.02 -334.08,-32.26 0,0 -130.04,-1784.16 -95.81,-2295.41 13.01,-194.85 -232.26,-2335.54 76.15,-3198.05 162.94,-455.8 1690.61,245.74 1690.61,245.74z"/>
  <path class="fil16" d="M5531.29 5016.07c0,0 172.07,1229.95 244.47,1687.83 84.71,535.42 100.02,830.53 123.85,1107.67 30.01,348.6 20.76,1675.58 21.51,1779.54 0.75,115.41 -503.15,56.72 -503.15,56.72 0,0 -171.9,-1627.18 -260.08,-1998.33 -82.1,-345.53 -387.05,-1833.49 -461.24,-1738.95 -74.24,94.48 -163.63,1737.22 -218.27,2010.01 -54.58,272.74 -174.39,1844.24 -174.39,1844.24 0,0 -437.41,61.99 -538.48,-23.3 0,0 -35.21,-1261.87 -0.98,-1773.12 13.01,-194.85 -232.26,-2335.54 76.15,-3198.05 162.94,-455.8 1690.61,245.74 1690.61,245.74z"/>
  <path class="fil17" d="M5555.22 10193.14c0,0 233.59,88.64 327.03,25.67l29.08 123.85c0,0 -75.11,43.71 -204.51,27.58 -129.4,-16.19 -173.92,-58.4 -173.92,-58.4l22.32 -118.7z"/>
  <path class="fil17" d="M3858.66 10241.3c0,0 268.46,99.16 339.52,20.52l12.26 138.95c0,0 -26.43,43.07 -131.37,37.99 -104.89,-5.03 -241.4,-51.57 -241.4,-51.57l20.99 -145.88z"/>
  <path class="fil18" d="M7193.8 4278.68l-43.71 363.75c-1140.39,-557.56 -1290.03,-820.76 -1332.07,-874.3 -29.02,-36.83 -155.83,-238.51 -217.46,-387.8 -5.21,-12.43 -9.95,-24.52 -14.05,-36.14l-54.93 -171.38c-0.06,0.06 -0.06,0.17 -0.06,0.29 -24.63,349.46 -14.51,880.6 -12.78,1601.51l28.33 353.92c-387.28,230.7 -1816.37,149.7 -1816.37,149.7l32.2 -853.83c0,0 26.6,-299.86 27.69,-559.53 0.12,-29.78 -0.11,-58.98 -0.69,-87.13 0,0 -1.16,-43.19 -5.84,-109.23l0 -0.06c-10.35,-143.51 -37.64,-394.51 -107.32,-542.24 -98.81,-209.48 -426.31,-321.71 -445.04,-327.95 -0.58,-0.18 -0.81,-0.29 -0.81,-0.29 0,0 -2.37,-14.23 -6.07,-38.8 -0.46,-3.24 -0.75,-4.86 -0.75,-4.86 -17.06,-114.89 -58.57,-428.22 -31.57,-593.3 52.16,-204.63 176.58,-251.28 211.39,-270.95 363.06,-204.1 801.28,-357.5 801.28,-357.5 111.59,6.3 444.98,37 552.24,46.95 0,0 661.06,251.57 854.93,461.23l579.19 1337.39 1002.26 900.56z"/>
  <path class="fil12" d="M4846.69 1731.23c0,0 -222.32,122.06 -644.81,-85.98 0,0 30.18,-420.93 -42.56,-700.21 -72.74,-279.33 562.19,392.26 562.19,392.26 -7.17,4.69 -9.6,32.15 -7.28,70.77 0.69,12.55 1.96,26.31 3.76,40.94 2.25,18.27 5.32,37.7 9.25,57.53 0.98,5.49 2.14,10.93 3.29,16.36 20.35,93.27 58.57,190.17 116.16,208.33z"/>
  <path class="fil19" d="M4163.48 1000.03c0.18,0.4 0.18,0.4 0.18,0.4 47.35,100.38 104.89,195.72 168.14,276.56 218.62,279.5 727.32,285.52 733.51,-482.86 1.16,-145.48 -17.23,-263.55 -46.6,-359.18 -104.66,-340.85 -349.47,-397.17 -349.47,-397.17 -180.8,-9.66 -497.08,35.62 -602.08,271.17 -74.59,167.34 -19.95,444.41 96.33,691.07z"/>
  <path class="fil20" d="M4163.48 1000.03c0.18,0.4 0.18,0.4 0.18,0.4 0,0 26.08,6.94 119.68,-182.94 18.79,-38.04 33.31,-10.87 41.46,-27.69l149.52 -58.63c0,0 -148.42,-247.3 45.04,-316.28 197.28,-70.37 499.34,20.07 499.34,20.07 21.33,-616.08 -349.47,-397.17 -349.47,-397.17 -180.8,-9.66 -497.08,35.62 -602.08,271.17 -74.59,167.34 -19.95,444.41 96.33,691.07z"/>
  <path class="fil19" d="M4355.05 674.73c-11.22,-51.34 -112.75,-95.4 -155.66,15.04 -42.96,110.49 101.54,227.29 139.52,203 37.93,-24.28 34.69,-133.04 16.13,-218.04z"/>
  <path class="fil18" d="M4557.42 2793.45c0,0 -439.95,268.11 -535.71,306.27 -68.81,27.47 -165.6,-76.67 -254.64,-323.62 0,0 -240.36,-343.16 -542.99,-21.8 0,0 115.58,760.98 456.14,934.09 112.58,57.19 1087.49,-626.08 1087.49,-626.08 0,0 -117.43,-165.89 -210.29,-268.87z"/>
  <path class="fil18" d="M4207.89 1471.27c0,0 405.09,167.97 520.5,41.22l36.89 67.83 133.1 184.39c0,0 -569.53,156.58 -711.25,-25.03l20.76 -268.4z"/>
  <path class="fil21" d="M5600.56 3380.33c-5.21,-12.43 -9.95,-24.52 -14.05,-36.14l-54.93 -171.38c-0.06,0.06 -0.06,0.17 -0.06,0.29 0,-0.29 0,-0.41 0,-0.41 0,0 -7.52,-94.71 -22.09,-216.6 -0.06,0 0,-0.06 0,-0.06 -17.11,-142.58 -43.94,-322.35 -79.91,-431.63 0,0 59.62,77.19 108.65,254.64 6.76,24.29 13.24,50.54 19.43,78.7 28.5,130.44 48.86,302.69 42.96,522.58z"/>
  <path class="fil21" d="M4506.76 3240.05c-316.91,372.19 -716.16,624.81 -716.16,624.81 0.12,-29.78 -0.11,-58.98 -0.69,-87.13 0,0 -1.16,-43.19 -5.84,-109.23 0.52,-0.17 1.1,-0.4 1.68,-0.69 179.36,-70.37 523.22,-297.61 555.08,-318.77 1.15,-0.75 165.6,-108.88 165.94,-108.99z"/>
  <path class="fil22" d="M4727.24 1506.54c-286.15,34.63 -413.42,-243.14 -413.42,-243.14 190.7,233.59 402.2,182.31 407.17,181.09 2.26,18.22 2.31,42.21 6.25,62.04z"/>
  <polygon class="fil14" points="1251.7,694.45 1318.24,596.27 6528.4,3545.69 6461.91,3643.99 "/>
  <polygon class="fil15" points="1318.24,596.27 822.9,387.37 789.18,447.03 1268.96,704.22 "/>
  <polygon class="fil15" points="547.94,249.41 1130.48,536.08 859.59,1421.02 -0,998.06 "/>
  <path class="fil12" d="M5130.53 2693.99c0,0 -8.39,42.44 -21.11,59.15 0,0 -25.5,28.74 -42.38,50.24 -5.32,6.82 -9.83,12.95 -12.32,17.17 -10.41,17.63 -27.98,59.55 -64.93,94.94 -36.89,35.39 -235.45,147.04 -235.45,147.04l-90.72 -90.14 -97.08 -72.27c0,0 81.88,-302.29 112.46,-339.23 2.95,-3.59 6.07,-7.06 9.25,-10.06 28.91,-28.74 62.5,-37.99 79.44,-51.35 6.25,-4.91 71.46,-49.15 94.08,-42.55 31.45,9.08 49.49,28.16 56.14,49.55 0,0 60.71,20.52 83.55,57.18 0,0 56.6,17.12 72.04,70.77 0,0 55.51,23.82 57.01,59.55z"/>
  <polygon class="fil23" points="9122.05,8706.51 7797.56,8708.71 7793.69,6437.52 9118.18,6435.27 "/>
  <path class="fil23" d="M9118.75 6787.4c0,0 41.63,458.63 72.57,654.7 30.93,196.07 22.49,1220.01 2.14,1264.25l-1500.16 2.54c0,0 -62.56,-789.25 -1.79,-1035.91 60.83,-246.66 102.86,-848.81 102.86,-848.81l1324.38 -36.77z"/>
  <path class="fil24" d="M7930.89 7385.2c0,0 -96.39,336.92 -96.15,469.62 0.23,132.64 49.61,673.49 49.61,673.49l1125.13 -1.91c0,0 -16.13,-479.68 -1.1,-648.06 15.03,-168.43 -77.37,-494.83 -77.37,-494.83l-1000.12 1.68z"/>
  <path class="fil25" d="M7760.79 4368.88c0,0 -236.77,-70.77 -252.85,-34 -16.13,36.71 0.23,59.95 0.23,59.95l-110.67 15.09c0,0 -67.65,51.35 8.04,110.04 0,0 -68.11,41.4 11.68,89.33 0,0 -32.72,47.41 0.35,76.09 33.01,28.74 187.22,68 187.22,68 0,0 36.31,-6.36 41.11,-68.81 0,0 60.36,-17.93 58.22,-77.48 0,0 45.73,-23.59 42.85,-87.94 0,0 80.6,-63.14 37.81,-141.43 0,0 -13.99,-5.9 -23.99,-8.84z"/>
  <path class="fil12" d="M7380.21 4212.01c0,0 122.46,117.26 161.2,210.69 8.73,21.16 13.42,43.25 -2.95,59.33 -16.3,16.07 -60.36,12.95 -115.99,-35.21 -55.62,-48.11 -149.58,-84.82 -149.58,-84.82 0,0 -42.67,-66.21 107.31,-149.99z"/>
 </g>
</svg>
