<?xml version="1.0" encoding="UTF-8"?>
<!DOCTYPE svg PUBLIC "-//W3C//DTD SVG 1.1//EN" "http://www.w3.org/Graphics/SVG/1.1/DTD/svg11.dtd">
<!-- Creator: CorelDRAW 2020 (64 Bit) -->
<svg xmlns="http://www.w3.org/2000/svg" xml:space="preserve" width="337.285mm" height="249.813mm" version="1.1" style="shape-rendering:geometricPrecision; text-rendering:geometricPrecision; image-rendering:optimizeQuality; fill-rule:evenodd; clip-rule:evenodd"
viewBox="0 0 28936.99 21432.4"
 xmlns:xlink="http://www.w3.org/1999/xlink"
 xmlns:xodm="http://www.corel.com/coreldraw/odm/2003">
 <defs>
  <style type="text/css">
   <![CDATA[
    .fil11 {fill:#244057;fill-rule:nonzero}
    .fil9 {fill:#2E2626;fill-rule:nonzero}
    .fil18 {fill:#2F4D25;fill-rule:nonzero}
    .fil10 {fill:#2F6B8C;fill-rule:nonzero}
    .fil4 {fill:#4A3F3F;fill-rule:nonzero}
    .fil17 {fill:#538742;fill-rule:nonzero}
    .fil7 {fill:#665249;fill-rule:nonzero}
    .fil19 {fill:#754836;fill-rule:nonzero}
    .fil12 {fill:#A77860;fill-rule:nonzero}
    .fil16 {fill:#AD823A;fill-rule:nonzero}
    .fil13 {fill:#C49341;fill-rule:nonzero}
    .fil3 {fill:#CCAEAE;fill-rule:nonzero}
    .fil2 {fill:#CF8C6C;fill-rule:nonzero}
    .fil14 {fill:#DB9C7C;fill-rule:nonzero}
    .fil15 {fill:#EDDADA;fill-rule:nonzero}
    .fil8 {fill:#EDDCC5;fill-rule:nonzero}
    .fil1 {fill:#EEA886;fill-rule:nonzero}
    .fil6 {fill:#EEA987;fill-rule:nonzero}
    .fil22 {fill:#F1AD68;fill-rule:nonzero}
    .fil23 {fill:#F1B97A;fill-rule:nonzero}
    .fil5 {fill:#FFBF55;fill-rule:nonzero}
    .fil21 {fill:url(#id0)}
    .fil0 {fill:url(#id1)}
    .fil20 {fill:url(#id2)}
   ]]>
  </style>
  <linearGradient id="id0" gradientUnits="userSpaceOnUse" x1="10742.48" y1="21022.07" x2="14456.43" y2="21017.81">
   <stop offset="0" style="stop-opacity:1; stop-color:#F1C489"/>
   <stop offset="0.988235" style="stop-opacity:1; stop-color:#F1C185"/>
   <stop offset="1" style="stop-opacity:1; stop-color:#F1C185"/>
  </linearGradient>
  <linearGradient id="id1" gradientUnits="userSpaceOnUse" x1="19275.44" y1="14988.7" x2="18425.07" y2="19485.18">
   <stop offset="0" style="stop-opacity:1; stop-color:#F1C489"/>
   <stop offset="0.988235" style="stop-opacity:1; stop-color:#F1A45C"/>
   <stop offset="1" style="stop-opacity:1; stop-color:#F1A45C"/>
  </linearGradient>
  <linearGradient id="id2" gradientUnits="userSpaceOnUse" xlink:href="#id1" x1="12036.18" y1="17458.56" x2="26733.8" y2="17434.28">
  </linearGradient>
 </defs>
 <g id="Camada_x0020_4">
  <metadata id="CorelCorpID_0Corel-Layer"/>
  <path class="fil0" d="M11756.61 18955.1c619.86,-567.17 -1199.14,-1786.3 271.58,-2225.23 1470.88,-438.49 2015.36,-1045.03 3120.96,-2607.7 1105.96,-1562.32 3008.85,-2278.08 4581.42,-1077.72 1572.94,1200.27 2745.15,1923.4 4005.13,2481.11 1260.23,557.89 2881.39,2881.39 1711.26,3684.37 -1170.12,802.9 -12143.99,1015.4 -12143.99,1015.4 0,0 -2456.74,-437.34 -1546.37,-1270.23z"/>
  <path class="fil1" d="M18877.09 5039.89c0,0 79.59,-333.2 90.2,-384.39 10.6,-51.11 -44.54,-186.37 -121.68,-335.93 -76.88,-149.55 -247.91,-317.51 -276.66,-320.49 -28.76,-3.33 -56.55,-19.99 -121.94,15.69 -65.4,35.42 -101.07,101.69 -101.07,101.69 0,0 -101.43,5.78 -139.29,90.46 0,0 -95.03,10.08 -122.29,113.27 0,0 -92.57,12.36 -106.16,88.98 0,0 55.31,135.61 61.1,191.54 6.05,56.01 165.59,313.57 334.43,556.65 0,0 150.69,292.35 503.36,-117.47z"/>
  <path class="fil2" d="M18607.35 4635.25c0,0 -102.21,138.33 -111.33,191.63 -9.12,53.21 -375.02,-74.51 -375.02,-74.51 0,0 315.06,-236.95 486.35,-117.12z"/>
  <polygon class="fil3" points="26281.08,3333.46 28454.49,2630.76 28936.99,2558.08 28503.58,2781.71 26329.82,3484.5 "/>
  <polygon class="fil4" points="25657.61,2325.34 25588.63,2112.32 15411.87,5402.46 15480.87,5615.22 "/>
  <polygon class="fil3" points="25797.79,2290.27 25723.54,2060.16 24853.14,2341.65 24927.56,2571.41 "/>
  <path class="fil3" d="M26329.82 3484.5l-875.93 -2709.12 0 0c-91.34,29.37 -141.58,127.72 -111.94,219.15l768.46 2378.02c29.62,91.43 127.99,141.66 219.42,111.94l0 0z"/>
  <polygon class="fil3" points="26006.86,2485.41 28180.28,1782.62 28662.78,1710.03 28229.28,1933.66 26055.6,2636.45 "/>
  <polygon class="fil3" points="25720.29,1598.61 27893.72,895.82 28376.12,823.5 27942.37,1047.22 25768.95,1749.66 "/>
  <polygon class="fil3" points="25453.89,775.38 27627.31,72.59 28110.06,0 27676.4,223.63 25502.98,926.42 "/>
  <path class="fil1" d="M18918.56 5178.83c0,0 -39.36,-156.47 -31.21,-265.08 8.15,-108.7 -522.38,230.55 -522.38,230.55 0,0 187.33,180.14 331.1,313.92 114.4,106.77 222.49,-279.39 222.49,-279.39z"/>
  <path class="fil5" d="M18536 5319.53c0,0 1072.9,1762.45 1447.57,1669.53 173.13,-42.95 746.71,-486.7 963.15,-768.18 71.35,-92.57 141.31,-190.06 207.94,-286.31 0,-0.35 0,-0.35 0,-0.35 265.35,-384.66 473.29,-753.28 473.29,-753.28 0,0 785.11,-923.08 153.14,-1332.9 0,0 -229.06,-85.39 -439.1,140.44 -210.04,225.82 -456.11,697.97 -511.25,818.06 -55.05,120.19 -781.78,989.09 -821.66,1014.25 -39.97,25.08 -315.4,-123.25 -496.69,-325.4 -267.55,-297.52 -558.41,-699.45 -558.41,-699.45l-417.98 523.6z"/>
  <path class="fil6" d="M23355.6 2641.01c-0.35,0.62 -0.35,0.62 -0.35,0.62 -81.35,174.01 -180.42,339.25 -289.37,479.42 -376.51,484.86 -1256.65,498.45 -1271.72,-830.78 -3.07,-251.86 28.14,-456.46 78.36,-622.06 179.19,-590.14 602.33,-689.11 602.33,-689.11 312.61,-17.88 860.14,58.73 1043.18,465.75 130.18,289.12 37.26,768.81 -162.43,1196.15z"/>
  <path class="fil7" d="M23355.6 2641.01c-0.35,0.62 -0.35,0.62 -0.35,0.62 0,0 -45.06,12.1 -208.2,-315.67 -32.7,-65.67 -57.51,-18.76 -71.71,-47.86l-259.13 -100.46c0,0 255.19,-428.58 -79.94,-546.93 -341.62,-120.71 -863.75,37.52 -863.75,37.52 179.19,-590.14 602.33,-689.11 602.33,-689.11 312.61,-17.88 860.14,58.73 1043.18,465.75 130.18,289.12 37.26,768.81 -162.43,1196.15z"/>
  <path class="fil6" d="M23022.04 2079.27c19.02,-88.98 194.61,-165.6 269.65,25.15 74.78,190.93 -174.37,393.79 -240.28,351.97 -65.75,-41.82 -60.84,-230.03 -29.37,-377.12z"/>
  <path class="fil8" d="M23574.67 2092.6c0,0 -833.24,-574.19 -1803.22,-367.13 0,0 55.67,-1213.34 1161,-1007.6 1038.45,193.47 677.63,1237.88 642.22,1374.73z"/>
  <path class="fil8" d="M23039.57 1832.32c0,0 -1373.5,150.08 -1902.19,40.5 -528.43,-109.49 648.88,-273.6 648.88,-273.6 0,0 440.33,-138.94 1253.31,233.09z"/>
  <path class="fil9" d="M19682.8 17548.64c0,0 -362.67,297.18 -667.73,364.07 -305.32,66.62 -465.13,223.01 -467.33,404.04 -1.75,181.28 879.26,299.37 1228.24,115.98 520.89,-273.6 574.19,-191.28 631.61,-327.77 57.51,-136.5 10.61,-497.05 14.29,-540.27 4.47,-53.56 -739.08,-16.04 -739.08,-16.04z"/>
  <path class="fil9" d="M19707.25 17450.28c0,0 -39.27,147.98 -33.57,151.04 6.05,2.99 688.24,78.37 667.37,-40.32 -16.92,-96.25 -40.85,-200.92 -40.85,-200.92l-592.96 90.2z"/>
  <path class="fil9" d="M24021.75 17778.93c0,0 -225.21,342.32 -511.86,411.57 -282.62,68.11 -386.77,176.2 -400.09,346.88 -13.59,170.42 666.76,392.9 1144.34,92.31 313.57,-197.33 430.68,-186.46 493.98,-311.72 62.94,-125.27 14.2,-477.32 20.51,-518.18 7.88,-50.22 -746.89,-20.86 -746.89,-20.86z"/>
  <path class="fil10" d="M24097.4 17654.28c0,0 -13.59,144.03 -8.5,147.36 5.43,3.33 635.29,113.52 631.34,0 -2.98,-90.2 -40.24,-202.15 -40.24,-202.15l-582.6 54.79z"/>
  <path class="fil11" d="M21482.42 8973.31c0,0 -852.08,2124.41 -1096.92,2845.61 -321.98,948.86 -499.06,1784.81 -539.04,2239.69 -50.23,572.09 -246.33,3271.13 -281.75,3438.22 -35.68,167.44 960.61,109.58 960.61,109.58 0,0 554.82,-3404.02 706.47,-4013.28 141.05,-567.44 1482.47,-3142.53 1612.3,-2987.89 130.09,154.63 565.33,2787.23 662.2,3234.57 96.87,446.99 360.21,3967.6 360.21,3967.6 0,0 874.61,138.6 1050.46,-1.84 0,0 -143.16,-3139.55 -205.74,-3977.86 -23.94,-319.62 195.84,-3826.3 -347.23,-5239.42 -286.92,-746.62 -2881.56,385.02 -2881.56,385.02z"/>
  <path class="fil5" d="M22397.01 3641.33c0,0 -740.31,153.41 -835.95,238.79 -104.41,90.47 -310.77,1006.98 -321.46,1253.92 -10.52,246.95 54.79,1265.15 159.54,1649.2 105.02,383.79 -183.38,2331.12 -248.43,2863.76 0,0 2062.26,391.94 3664.91,180.67 0,0 -500.02,-2060.16 -436.73,-2586.84 80.74,-674.91 345.3,-2145.81 345.3,-2145.81 0,0 -21.74,-1020.03 -164.63,-1140.48 -142.89,-120.45 -1246.65,-308.39 -1246.65,-308.39l-915.89 -4.82z"/>
  <path class="fil1" d="M22231.5 3813.24c0,0 227.58,170.42 986.91,-165.86 0,0 -75.3,-409.56 73.02,-896.53 147.98,-486.97 -980.33,504.85 -980.33,504.85 12.36,8.5 14.82,57.24 7.89,125 -0.35,4.56 -0.97,9.12 -1.58,13.33 -5.44,49 -15.43,106.86 -29.89,166.11 -1.84,7.28 -3.69,14.55 -5.53,21.83 -42.69,162.87 -50.84,89.33 -50.5,231.25z"/>
  <path class="fil12" d="M22287.52 3560.15l0 0c544.46,69.08 840.42,-518.08 849.19,-535.35 -371.96,543.86 -818.94,369.24 -818.94,369.24 0,0 0,0 -0.35,0 -5.44,49 -15.43,106.86 -29.89,166.11z"/>
  <path class="fil1" d="M22234.48 3676.75c0,0 -173.66,259.4 68.99,302.96 242.83,43.83 712.17,-10.96 981.56,-339.87 0,0 -709.45,-62.67 -1050.55,36.91z"/>
  <path class="fil1" d="M24764.42 8382.55c0,0 -55.93,48.65 -115.62,47.43 -103.18,-2.11 -221.26,-120.1 -328.03,-14.82 -106.86,105.02 122.55,559.63 204.6,613.55 81.97,53.56 266.93,-39.71 463.65,-288.49 197.07,-249.05 -224.59,-357.67 -224.59,-357.67z"/>
  <path class="fil1" d="M24361.88 8385.18c0,0 -207.94,72.68 -429.11,183.74 -194,97.48 -414.74,252.47 -398.07,298.75 38.74,106.86 212.49,-59.34 411.31,-142.27 183.21,-76.27 156.21,-35.42 156.21,-35.42 0,0 5.78,-14.21 -177.61,110.19 -197.06,133.77 -385.63,292.35 -375.37,350.12 4.82,28.23 20.95,36.65 100.2,0.7 -41.21,31.13 -38.75,47.51 -27.53,67.15 57.51,101.69 377.39,-46.64 504.24,-105.63 -97.13,46.02 -163.75,90.81 -90.56,129.82 83.9,44.54 526.68,-186.72 693.15,-253.34 181.56,-72.59 -366.86,-603.83 -366.86,-603.83z"/>
  <path class="fil5" d="M24016.84 4044.75c-124.92,125.28 -76.27,581.12 141.4,963.06 171.91,302.08 388.95,527.9 500.91,620.47 111.94,92.57 788.44,621.97 758.45,743.03 -29.98,120.81 -421.04,976.65 -438.23,1040.56 -17,64.17 -475.48,962.8 -475.48,962.8l545.08 361.96c0,0 1061.07,-1752.99 1134.01,-1915.6 72.93,-162.53 330.84,-543.51 44.54,-905.2 -291.48,-367.75 -901.35,-1255.41 -972.45,-1315.98 -71.44,-60.58 -682.54,-1112.62 -1238.23,-555.09z"/>
  <path class="fil13" d="M24087.05 4868.34c2.19,17.53 56.01,607.67 504.24,989.61l52.69 -242.38c0,0 -445.24,-406.15 -556.92,-747.23z"/>
  <path class="fil14" d="M18590.78 4037.47c0,0 185.49,384.14 127.38,421.66 -58.13,37.52 -102.31,15.96 -102.31,15.96l4.82 192.86c0,0 -68.99,129.57 -189.7,16.65 0,0 -51.81,127.38 -155.6,4.47 0,0 -71.71,69.08 -129.82,20.61 -57.86,-48.4 -167.35,-300.51 -167.35,-300.51 0,0 -5.78,-68.38 99.24,-93.8 0,0 23.93,-102.3 125.97,-115.02 0,0 22,-79.33 132.54,-92.05 0,0 87.75,-160.68 233.01,-109.22 0,0 13.94,22.09 21.83,38.39z"/>
  <path class="fil1" d="M18962.73 4642.78c0,0 -233.7,-176.46 -403.42,-216.7 -38.49,-9.03 -77.23,-10.87 -100.2,21.47 -23.05,32.09 -5.44,106.25 91.7,188.04 97.48,81.35 185.85,231.51 185.85,231.51 0,0 124.65,54.44 226.08,-224.33z"/>
  <polygon class="fil15" points="13889.18,15486.03 15611.04,16986.9 16026.3,17243.22 15715.45,16866.98 13993.67,15366.37 "/>
  <polygon class="fil4" points="12911.92,16167.86 12765.17,16336.44 4702.22,9309.23 4848.97,9140.66 "/>
  <polygon class="fil15" points="13034.47,16255.36 12868.34,16437.26 12178.88,15836.5 12345,15654.25 "/>
  <path class="fil15" d="M13986.04 15366.37l-1870.72 2146.5 0 0c-72.67,-63.2 -80.21,-173.39 -9.38,-245.71l1641.66 -1884.14c55.93,-72.32 165.77,-79.86 238.44,-16.65l0 0z"/>
  <polygon class="fil15" points="13303.51,16157.88 15025.37,17658.75 15433.36,17915.16 15122.59,17538.91 13400.37,16038.31 "/>
  <polygon class="fil15" points="12683.73,16860.4 14405.86,18361.28 14821.11,18617.59 14517.54,18241.7 12795.68,16740.83 "/>
  <polygon class="fil15" points="12122.51,17512.87 13844.73,19013.48 14252.45,19270.16 13941.51,18893.91 12219.73,17393.04 "/>
  <path class="fil5" d="M7207.98 7709.04c0,0 -482.5,-33.84 -822.63,1.58 -340.22,35.42 -809.92,314.45 -1094.47,395.54 -284.47,80.83 -970.34,543.6 -951.57,606.8 18.5,63.02 285.78,813.59 778.79,1422.85 421.92,521.51 2089.88,-2426.76 2089.88,-2426.76z"/>
  <path class="fil16" d="M6168.04 8013.58c0,0 -519.4,385.89 -699.46,738.74 -180.42,352.93 -241.51,773.35 -241.51,773.35l940.97 -1512.09z"/>
  <path class="fil9" d="M8995.15 19767.12c0,0 148.94,157.71 234.85,199.17 85.65,41.72 1111.73,216.35 1181.34,299.63 69.87,83.55 70.22,412.81 -194,413.41 -264.56,0.35 -1146.19,-2.71 -1294.77,2.11 -148.67,4.82 -775.46,131.38 -840.25,1.57 -64.78,-129.91 -59.88,-736.36 54.53,-881.97 114.4,-145.61 858.3,-33.92 858.3,-33.92z"/>
  <path class="fil4" d="M8963.41 19583.12l31.74 184c0,0 -273.6,125.89 -858.3,33.92l-0.35 -190.05 826.92 -27.87z"/>
  <path class="fil9" d="M321.2 18974.47c0,0 -162.27,190.67 -171.3,306.56 -9.12,115.98 -207.67,626.78 -133.25,752.15 74.51,125 659.22,142.54 951.32,95.63 292.35,-46.89 928.25,49.62 993.04,-76 64.78,-125.28 101.34,-308.14 -88.98,-378.62 -190.4,-70.83 -626.88,-255.72 -706.12,-450.67 -78.99,-194.61 -844.72,-249.05 -844.72,-249.05z"/>
  <path class="fil4" d="M1246.74 19014.71l-80.82 208.81c0,0 -837.44,-61.1 -844.72,-249.05l263.6 -385.63 661.93 425.86z"/>
  <path class="fil1" d="M8652.56 7983.6c-22.09,2.98 -57.76,22.35 -101.07,52.33 -31.47,21.83 -67.24,49 -105.02,79.94 -208.29,168.84 -482.14,439.45 -482.14,439.45 0,0 -592.34,-870.14 -459.44,-838.14 132.81,32.08 609.26,-417.02 609.26,-417.02 0,0 664.92,666.41 538.42,683.43z"/>
  <path class="fil5" d="M8228.19 10617.07c-39.98,55.66 -72.32,95.64 -92.84,113.79 -13.94,12.1 -31.21,26.65 -50.94,42.69l-0.26 0c-188.57,151.31 -611.98,446.11 -807.82,552.62 -216.43,118.08 -740.57,1152.24 -740.57,1152.24 0,0 -1822.42,-170.41 -2269.41,-1171.87 0,0 314.19,-705.86 601.11,-1123.83 287.19,-418.24 915.55,-1922.79 1249.36,-2136.78 333.82,-213.98 621.1,-353.81 1280.22,-336.27 658.97,17.62 1024.87,539.65 1024.87,539.65 0,0 502.13,537.54 552.01,822.01 43.04,244.58 -499.33,1200.98 -745.75,1545.76z"/>
  <path class="fil5" d="M8138.33 8917.91c-158.58,96.25 -185.23,127.11 -165.86,581.99 19.37,454.62 208.55,820.88 222.76,946.14 14.2,125.27 350.82,1600.46 420.42,1669.8 69.6,69.6 884.95,1050.55 965.43,1130.76 80.56,80.21 651.07,784.49 651.07,784.49l408.24 -142.89c0,0 -1092.28,-1891.32 -1135.84,-1996.69 -43.31,-105.02 -358.63,-1875.55 -395.89,-2067.43 -37.52,-191.63 26.66,-493.37 -203.37,-947.99 -205.83,-406.76 -766.96,41.82 -766.96,41.82z"/>
  <path class="fil17" d="M6535.77 12478.41c0,0 118,160.43 204.61,253.35 86.78,92.57 1549.87,1729.66 1642.8,1946.1 93.27,216.44 119.57,1051.43 151.04,1354.74 31.47,302.96 568.05,3590.49 592.95,3633.7 24.81,43.31 -740.05,232.48 -1249.45,169.54 0,0 -343.2,-2242.4 -436.73,-2570.26 -93.19,-327.77 -262.12,-1447.31 -243.97,-1577.14 18.5,-130.09 -1177.91,-1507.79 -1512.35,-1711.53 -334.43,-203.37 -1152.59,-925.89 -1245.43,-1018.72 -93.01,-92.66 -619.25,-339.07 -570.6,-809.39 48.74,-470.31 397.72,-842.26 397.72,-842.26l2269.41 1171.87z"/>
  <path class="fil17" d="M5069.01 13507.83c0,0 -51.73,137.63 -125.01,330.13 -156.48,413.77 -409.73,1081.15 -451.81,1186.78 -61.45,154.9 -369.85,823.5 -518.18,953.68 -148.33,130.09 -2668.27,3220.28 -2674.67,3245.09 -6.05,24.55 -1049.58,-328.38 -1105.6,-507.56 0,0 1535.76,-1997.57 1739.4,-2251.44 203.73,-253.96 629.86,-632.32 771.17,-1232.81 141.4,-600.14 1158.02,-2909.78 1161.09,-2996.31 0,0 163.05,-711.91 400.97,-928.87 237.57,-217.05 1104.47,35.33 1241.22,486.71 136.84,451.55 -438.58,1714.59 -438.58,1714.59z"/>
  <path class="fil17" d="M8084.16 10773.55c0,0 -1069.31,-449.18 -730.59,-1315.99 0,0 141.93,-235.2 154.29,-253.96 0,0 -1065.36,-715.5 -1282.07,-764.51 0,0 -534.21,454 -850.77,793.88 0,0 -1050.19,1874.14 -1252.44,2272.65 -201.88,398.95 2413.17,972.79 2413.17,972.79 0,0 569.28,-1043.27 704.9,-1126.82 135.53,-83.8 786.24,-436.38 843.49,-578.04z"/>
  <path class="fil17" d="M7507.87 9203.6c0,0 541.23,-719.97 1202.2,-609.87 0,0 -76.61,-123.78 -125.97,-158.58 0,0 -773.89,-19.99 -1254.19,653.17 -480.04,673.43 177.95,115.28 177.95,115.28z"/>
  <path class="fil17" d="M6225.8 8439.09c0,0 552.1,-572.35 982.18,-730.05 0,0 91.69,-27.17 189.08,0.62 0,0 -869.52,585.06 -937.29,855.06 -67.85,269.65 -233.97,-125.62 -233.97,-125.62z"/>
  <path class="fil1" d="M10640.4 13888.2c0,0 100.2,212.14 143.16,275.18 52.42,76.53 111.69,141.58 63.91,204.6 -48.13,62.95 -134.39,255.45 -202.5,351.97 -68.38,96.52 -635.56,32.34 -716.38,-34.54 -80.83,-67.15 -108.97,-568.67 17.27,-707.61 126.14,-139.21 318.65,-339 318.65,-339l375.9 249.4z"/>
  <path class="fil1" d="M9494.56 11857.06c0,0 -458.21,-0.88 -878.91,258.78 0,0 624.95,743.03 849.8,999.35 224.59,256.07 766.7,915.9 766.7,915.9l408.24 -142.89c0,0 -670.35,-1149.78 -788.44,-1415.57 -117.99,-265.71 -357.4,-615.57 -357.4,-615.57z"/>
  <path class="fil5" d="M7462.81 7712.98l196.97 -78.11c0,0 498.19,113.87 786.69,512.13l-24.55 119.57c0,0 -759.69,-163.4 -959.11,-553.59z"/>
  <path class="fil16" d="M8228.19 10617.07c-39.98,55.66 -72.32,95.64 -92.84,113.79 -13.94,12.1 -31.21,26.65 -50.94,42.69l-0.26 0 -19.99 -748.47c0,0 94.42,288.41 108.35,331.1 14.21,42.61 55.67,260.88 55.67,260.88z"/>
  <path class="fil18" d="M5069.01 13507.83c0,0 -51.73,137.63 -125.01,330.13 -166.47,-191.01 -547.18,-914.06 -547.18,-914.06 24.55,17.54 104.14,92.05 122.55,108.7 18.15,16.65 549.65,475.22 549.65,475.22z"/>
  <path class="fil1" d="M9864.15 6837.15c0,0 40.85,464.87 -85.39,479.95 -104.14,12.45 -82.93,460.67 -85.38,531.24 -2.37,70.83 -195.83,39.36 -249.66,62.33 -53.91,22.97 -370.2,454.27 -520.28,406.76 -149.81,-47.51 -700.69,-552.01 -797.81,-811.4 -97.48,-259.4 115.02,-1150.4 383.43,-1448.89 268.52,-298.67 1279.97,-33.58 1355.1,780.02z"/>
  <path class="fil19" d="M9873.53 6933.05c0,0 208.2,-248.78 -38.84,-713.66 -246.59,-464.62 -999.35,-322.95 -1087.1,-313.57 -304.8,32.96 -483.64,202.77 -657.03,703.05 -68.73,198.29 -93.89,797.2 -93.89,797.2 0,0 413.16,-371.61 530.63,-341.97 166.12,41.72 337.15,92.92 337.15,92.92 0,0 19.02,-410.7 248.78,-371.08 229.41,39.62 583.48,-21.74 760.3,147.09z"/>
  <path class="fil1" d="M8763.63 7163.34c7.54,-46.02 39.97,-251.5 -117.12,-285.95 -156.83,-34.81 -206.09,213.99 -151.31,395.27 55.05,181.28 226.96,146.22 268.42,-109.32z"/>
  <path class="fil12" d="M8551.49 8035.94c-31.47,21.83 -67.24,49 -105.02,79.94 -254.83,-377.12 -292.09,-548.76 -292.09,-548.76 96.87,180.06 397.11,468.82 397.11,468.82z"/>
  <path class="fil20" d="M12369.28 20029.23c619.77,-567.17 -207.67,-1777.18 1263.22,-2215.76 1470.98,-438.92 2015.45,-1045.37 3121.14,-2607.78 1105.6,-1562.67 3008.4,-2278.09 4581.34,-1077.72 1572.93,1200.36 2744.89,1923.05 4005.13,2480.93 1259.97,557.71 2881.03,2881.3 1710.91,3684.29 -1169.77,802.94 -15212.62,652.81 -15212.62,652.81 0,0 -379.58,-83.82 530.88,-916.77z"/>
  <path class="fil21" d="M14550.24 21158.76c157.35,-137.39 -322.68,-1029.95 -1880.71,-504.23 -1558.11,525.73 -2128.36,520.9 -2009.14,737.29 118.96,216.41 1314.15,-505.44 2022.46,-455.51 708.14,49.92 1530.5,516.04 1867.39,222.45z"/>
  <path class="fil22" d="M22555.32 15455.7c0,0 2687.91,-94.77 3259.03,521.76 571.12,616.53 77.23,641.95 -946.41,619.6 -1023.63,-22.44 -2312.62,-1141.37 -2312.62,-1141.37z"/>
  <path class="fil23" d="M17998.09 16153.93c0,-63.56 -335.92,-2121.09 -1253.31,-1454.58 -917.03,666.5 617.15,-221.53 784.5,513.97 167.69,735.13 468.81,940.62 468.81,940.62z"/>
 </g>
</svg>
