<?xml version="1.0" encoding="UTF-8"?>
<!DOCTYPE svg PUBLIC "-//W3C//DTD SVG 1.1//EN" "http://www.w3.org/Graphics/SVG/1.1/DTD/svg11.dtd">
<!-- Creator: CorelDRAW 2020 (64 Bit) -->
<svg xmlns="http://www.w3.org/2000/svg" xml:space="preserve" width="119.254mm" height="54.1601mm" version="1.1" style="shape-rendering:geometricPrecision; text-rendering:geometricPrecision; image-rendering:optimizeQuality; fill-rule:evenodd; clip-rule:evenodd"
viewBox="0 0 3040.28 1380.77"
 xmlns:xlink="http://www.w3.org/1999/xlink"
 xmlns:xodm="http://www.corel.com/coreldraw/odm/2003">
 <defs>
  <style type="text/css">
   <![CDATA[
    .fil0 {fill:#00B048}
   ]]>
  </style>
 </defs>
 <g id="Camada_x0020_1">
  <metadata id="CorelCorpID_0Corel-Layer"/>
  <g id="_2311448028032">
   <path class="fil0" d="M1835.96 444.02c7.22,30.98 79,246.86 93.13,289.09 3.81,11.37 8.82,32.35 13.7,42.51l-210.84 0 76.96 -249.05c4.25,-12.56 21.37,-74.37 27.06,-82.55zm-486.35 716.6l264.26 0 28.47 -89.57c4.52,-14.74 9.6,-30.33 13.7,-45.32 4.27,-15.62 10.47,-29.57 14.06,-44.96l326.11 0 60.26 179.45 274.28 0.41c-11.83,-24.65 -90.83,-259.21 -108.45,-304.69 -4.46,-11.52 -6.61,-19.67 -10.65,-31.51 -30.6,-89.86 -68.86,-188.63 -98.42,-278.18l-109.41 -309.35c-4.38,-11.06 -7.04,-20.31 -10.75,-31.41 -3.59,-10.73 -8.16,-19.42 -10.92,-31.24l-278.32 0 -20.5 61c-27.44,69.35 -60.39,170.12 -88.73,245.72l-244.99 679.67z"/>
   <path class="fil0" d="M568.08 812.15c-7.54,11.27 -4.66,8.13 7.23,37.74 16.06,40 31.49,87 39.87,128.76 9.74,48.52 13.51,96.6 -5.67,144.69 -7.62,19.08 -16.26,27.28 -18.93,37.28l708.44 0 0 -202.34 -511.65 0 0 -207.95 452.61 0 0 -199.53 -452.61 0 0 -171.43 486.63 0.29c16.58,-1.76 11.08,-15.03 10.97,-34l0.35 -157.74c-0.5,-11.45 1.39,-11.63 -8.75,-13.73l-711.29 0.04c1.4,6.01 44.49,112.98 55.04,150.13 39.32,138.54 72.57,292.48 -8.12,427.9 -8.39,14.08 -33.5,52.12 -44.1,59.89z"/>
   <path class="fil0" d="M2434.76 1093.18l2.81 2.81 2.81 2.81 2.81 2.81 2.81 2.81 2.81 2.81 53.98 38.78c5.49,3.17 1.87,0.61 5.05,3.38 5.83,6.16 1.99,2.07 9.63,5.07l30.39 11.53c0.29,0.09 1.08,0.35 1.37,0.45 96.79,32.61 249.2,26.79 344.74,-21.68 42.99,-21.81 76.06,-59.16 99.05,-100.51 11.11,-19.97 21.2,-51.26 27.07,-74.1 27.05,-105.23 19.08,-260.55 19.08,-379.98 0,-133.02 0,-266.03 0,-399.05l-247.39 0c0,201.4 -0.12,402.8 0,604.2 0.03,53.78 -0.82,155.6 -50.52,176.97l-6.06 2.12c-0.26,0.08 -0.99,0.34 -1.24,0.41 -0.24,0.07 -0.97,0.29 -1.21,0.36 -0.25,0.07 -0.99,0.26 -1.25,0.32 -11.38,2.85 -32.95,8.64 -43.24,7.81 -107.79,-8.63 -96.07,-103.31 -96.07,-207.66l-236.15 0c0,95.04 -0.37,177.05 39.35,255.74 21.43,42.46 18.07,30.01 39.37,61.82z"/>
   <path class="fil0" d="M511.85 320.36c0,64.53 -0.45,110.7 -30.88,168.66 -24.65,46.95 -52.81,73.47 -87.89,108.85 -40.73,41.09 -139.79,110.62 -191.23,160.12 -38.34,36.9 -81.24,81.21 -112.9,123.2 -69.88,92.68 -122.37,219.17 -63.49,338.48 11.85,24.01 33.32,67.98 53.46,81.45 0.65,-29.01 34.58,-84.65 51.78,-108.42 37.93,-52.41 69.6,-81.62 113.34,-125.57l43.33 -38.19c4.5,-3.62 5.87,-5.66 10.17,-9.5l164.45 -139.12c33.73,-32.83 70.79,-60.02 101.28,-101.09 6.13,-8.26 11.26,-14.17 16.64,-22.71 99.75,-158.41 47.57,-344.73 -12.23,-506.02l-67.97 -159.68c-11.01,-21.98 -37.75,-84.13 -46.89,-90.83 0.14,6.38 1.06,15.76 1.31,17.09l15.56 55.98c16.13,64.45 42.17,183.2 42.17,247.3z"/>
   <path class="fil0" d="M56.43 320.36l0 42.15c0,67.34 52.54,130.47 113.6,156.22 90.66,38.22 197.35,2.72 244.39,-90.62 59.34,-117.75 -21.72,-273.55 -161.2,-273.55 -36.93,0 -56.99,0.17 -89.97,16.85 -41.9,21.19 -63.44,40.09 -87.06,81.58 -7.42,13.04 -19.76,47.3 -19.76,67.37z"/>
   <path class="fil0" d="M551.21 947.05c0,28.12 0.53,51.46 -13.08,76.85 -12.92,24.09 -28.54,36.95 -48.38,52.81l-60.63 43.37c-73.04,54.7 -145.3,124.53 -97.33,220.54 4.57,9.15 3.7,11.11 14.2,13.91 4.06,-48.76 128.06,-130.45 158.63,-153.36 16.52,-12.37 46.27,-33.53 57.89,-48.92 39.93,-52.86 41.8,-98.04 28.31,-166.13 -4.45,-22.48 -35.49,-136.19 -53.67,-157.11 0.58,26 5.05,29.7 8.31,53.52 2.93,21.47 5.75,40.26 5.75,64.51z"/>
   <path class="fil0" d="M2007.45 1270.22l22.49 56.2 -42.17 0c4.33,-9.03 18.81,-45.82 19.68,-56.2zm-126.51 106.79l81.53 0c6.38,0 5.98,2.38 12.87,-18.05 7.59,-22.53 -2.36,-18.48 54.6,-18.48 11.67,0 14.72,26.18 19.68,36.53l14.06 0c-8.74,-18.22 -16.22,-42.45 -24.11,-63.02 -10.51,-27.43 -17.3,-60.63 -32.12,-60.63 -9.2,0 -10.06,9.81 -15.11,24.24 -5.95,17.01 -31.69,79.08 -32.68,90.98 -10.37,-5.82 -50.58,-2.81 -64.66,-2.81l0 -112.41 -14.05 0 0 123.65z"/>
   <path class="fil0" d="M1138.77 1270.22l11.57 27.78c3.15,8.72 6.9,20.05 10.92,28.43l-42.17 0c1.77,-7.61 6.26,-18.16 9.63,-26.91 4.1,-10.65 7.45,-18.15 10.05,-29.3zm-126.51 106.79l87.15 0c10.85,-46.57 16.8,-36.53 61.85,-36.53 11.42,0 8.99,14.25 19.68,36.53l14.05 0 -24.48 -62.65c-4.6,-11.75 -7.91,-21.18 -12.47,-32.5 -10.41,-25.81 -5.33,-28.51 -19.27,-28.51 -9.9,0 -20.65,36.3 -26.36,52.34 -7.14,20.06 -16.78,40.08 -21.44,60.07l-67.47 0 0 -112.41 -11.24 0 0 123.65z"/>
   <path class="fil0" d="M2586.57 1377.01l14.05 0 0 -101.17 62.48 94.92c6.92,9.4 2.1,6.25 19.05,6.25l0 -123.65 -14.05 0 0 98.36 -51.73 -74.75c-14.42,-21.68 -11.32,-23.61 -29.8,-23.61l0 123.65z"/>
   <path class="fil0" d="M1349.61 1315.18c0,32.51 17.73,64.64 50.6,64.64 21.98,0 30.32,0.43 47.79,-19.67l0 16.86 11.25 0 0 -64.64 -53.42 0 0 11.24 42.17 0c-1.31,58.92 -84.34,66.97 -84.34,-11.24 0,-57.44 53.59,-60.19 72.55,-38.8 12.4,13.98 2.21,16.32 23.03,16.32 -12.2,-25.43 -11.05,-39.35 -61.85,-39.35 -13.75,0 -28.61,11.69 -35.03,21.19 -6.88,10.19 -12.76,27.92 -12.76,43.45z"/>
   <path class="fil0" d="M2746.81 1365.77l-25.3 0 0 -101.17c41.93,0 70.28,-0.75 70.28,53.39 0,30.56 -13.4,47.77 -44.98,47.77zm-39.36 11.24c43.64,0 98.39,11.89 98.39,-61.83 0,-72.31 -54.13,-61.83 -98.39,-61.83l0 123.65z"/>
   <path class="fil0" d="M2159.25 1365.77l-25.3 0 0 -101.17c41.93,0 70.28,-0.75 70.28,53.39 0,30.56 -13.39,47.77 -44.98,47.77zm-39.36 11.24c43.64,0 98.4,11.89 98.4,-61.83 0,-13.5 -6.31,-35.23 -12.29,-43.92 -16.11,-23.42 -52.96,-17.9 -86.11,-17.9l0 123.65z"/>
   <path class="fil0" d="M933.54 1368.58c-56.76,0 -56.02,-106.79 0,-106.79 15.33,0 25.68,5.58 32.75,15.03 22.62,30.24 13.84,91.76 -32.75,91.76zm-56.23 -56.2c0,81.98 79.56,80.2 102.5,46.26 24.53,-36.28 11.95,-108.09 -40.66,-108.09 -37.43,0 -61.85,19.24 -61.85,61.83z"/>
   <path class="fil0" d="M1760.05 1315.18c0,-70.61 87.15,-72.33 87.15,0 0,71.97 -87.15,71.18 -87.15,0zm-14.05 0c0,32.05 18.13,64.64 50.6,64.64l14.05 0c62.43,0 77.59,-129.27 -11.25,-129.27 -33.62,0 -53.41,30.78 -53.41,64.64z"/>
   <path class="fil0" d="M1535.16 1309.56l-39.36 0 0 -44.96c34.29,0 61.85,-5.32 61.85,25.3 0,13.45 -9.51,19.67 -22.49,19.67zm-50.6 67.45l11.25 0 0 -53.39c45.48,0 56.61,-6.09 58.99,19.72 1.25,13.63 2.86,20.56 2.86,33.68l16.87 0c-7.89,-14.9 -4.19,-13.01 -6.71,-32.64 -3.29,-25.63 -2.72,-13.87 -12.97,-29.19 25.49,-6.8 26.59,-61.83 -19.68,-61.83l-50.6 0 0 123.65z"/>
   <path class="fil0" d="M658.04 1281.46c0,54.9 73.09,22.55 73.09,64.64 0,30.08 -46.73,26.53 -56.92,11.93 -10.77,-15.44 3.6,-19.86 -18.99,-20.36 0,55.57 64.95,46.47 79.56,31.76 14.91,-15.03 18.4,-47.21 -21.08,-59.3 -25.72,-7.88 -41.61,-2.98 -41.61,-31.47 0,-20.06 55.31,-29.52 56.22,11.24l11.25 0c0,-30.71 -13.13,-39.35 -44.98,-39.35 -19.2,0 -36.55,12.91 -36.55,30.91z"/>
   <path class="fil0" d="M2904.24 1270.22l22.49 56.2 -42.17 0c4.33,-9.03 18.81,-45.82 19.68,-56.2zm-53.42 106.79l14.06 0c20.61,-42.93 -5.67,-36.53 61.85,-36.53 11.67,0 14.71,26.18 19.68,36.53l14.05 0 -36.55 -95.55c-0.3,-0.76 -14.83,-50.53 -29.58,-18.33l-18.21 49.24c-4.34,10.99 -7.67,20.68 -12.46,32.51 -4.77,11.79 -7.56,22.15 -12.84,32.13z"/>
   <polygon class="fil0" points="556.83,1377.01 641.17,1377.01 641.17,1365.77 570.89,1365.77 570.89,1317.99 632.74,1317.99 632.74,1306.75 570.89,1306.75 570.89,1264.6 641.17,1264.6 641.17,1253.36 556.83,1253.36 "/>
   <path class="fil0" d="M1287.76 1273.03c7.43,5.44 20.11,43.18 22.49,53.39l-39.36 0c1.56,-18.75 15.41,-35.87 16.87,-53.39zm-50.6 103.98l14.05 0c1.21,-14.56 7.94,-22.33 11.25,-36.53l56.23 0c0.77,9.24 3.91,14.02 7.16,23.75 4.39,13.14 2.17,12.78 18.14,12.78l-22.81 -61.5c-4.73,-13.05 -21.13,-49.71 -22.16,-62.15l-16.87 0c-1.92,8.25 -8.05,22.81 -11.25,30.91 -3.9,9.88 -7.84,20.29 -11.57,30.59 -4.73,13.05 -21.13,49.71 -22.16,62.15z"/>
   <polygon class="fil0" points="2237.97,1377.01 2322.31,1377.01 2322.31,1365.77 2252.03,1365.77 2252.03,1317.99 2313.88,1317.99 2313.88,1306.75 2252.03,1306.75 2252.03,1264.6 2319.5,1264.6 2319.5,1253.36 2237.97,1253.36 "/>
   <path class="fil0" d="M1627.93 1315.18c0,32.18 16.56,64.64 47.79,64.64 27.97,0 55.35,-5.8 56.23,-44.96 -22.02,0.49 -8.54,4.5 -19.06,20.3 -16,24.01 -70.91,18.29 -70.91,-31.54 0,-34.29 4.05,-61.83 44.98,-61.83 15.85,0 29.6,12.21 30.92,28.1l14.06 0c-5.85,-12.19 -2.41,-18.94 -13.9,-28.27 -24.71,-20.05 -90.12,-19.94 -90.12,53.56z"/>
   <path class="fil0" d="M759.24 1309.56c0,85.57 69.38,79.75 92.25,55.68 7.5,-7.88 10.65,-16.97 11.76,-30.39l-14.05 0c0,49.98 -75.91,44.48 -75.91,-11.24 0,-24.27 0.2,-61.83 39.36,-61.83 21.97,0 32.36,10.16 36.55,28.1l11.25 0c0,-56.29 -101.21,-55.53 -101.21,19.67z"/>
   <path class="fil0" d="M2468.5 1343.29c0,49.83 92.77,48.51 92.77,2.81l0 -92.74 -11.25 0c0,89.4 10.97,115.22 -42.17,115.22 -38.09,0 -28.11,-71.82 -28.11,-115.22l-11.25 0 0 89.93z"/>
   <path class="fil0" d="M2429.14 1360.15c-9.97,6.68 -4.42,8.43 -19.68,8.43 -21.69,0 -19.68,-16.3 -19.68,-30.91l-14.06 0c0,40.03 14.98,42.15 39.36,42.15 15.8,0 28.11,-12.32 28.11,-28.1l0 -98.36c-19.11,0.43 -14.07,2.71 -14.05,44.96 0.01,20.61 0,41.22 0,61.83z"/>
   <polygon class="fil0" points="1594.19,1377.01 1608.25,1377.01 1608.25,1253.36 1594.19,1253.36 "/>
   <polygon class="fil0" points="2825.53,1377.01 2839.58,1377.01 2839.58,1253.36 2825.53,1253.36 "/>
   <polygon class="fil0" points="2971.71,1377.01 2985.77,1377.01 2985.77,1253.36 2971.71,1253.36 "/>
   <path class="fil0" d="M1588.57 1242.12c14.66,-0.33 12.89,-2.99 19.23,-11.69 5,-6.87 9.23,-10.01 11.69,-19.23l-14.06 0c-2.94,12.6 -10.52,21.44 -16.87,30.91z"/>
   <path class="fil0" d="M2968.9 1242.12c11.88,-0.99 11.52,-3.7 16.91,-11.2 4.82,-6.73 8.93,-9.94 11.21,-19.71 -12.71,0.29 -12.97,0.83 -17.91,10.2 -3.73,7.07 -8.51,14.38 -10.2,20.72z"/>
   <polygon class="fil0" points="568.08,812.15 568.08,809.34 564.8,811.69 "/>
   <polygon class="fil0" points="2507.85,1149.38 2505.04,1149.38 2507.38,1152.66 "/>
   <polygon class="fil0" points="2437.57,1098.8 2437.57,1095.99 2434.76,1095.99 "/>
   <polygon class="fil0" points="2446,1107.23 2446,1104.42 2443.19,1104.42 "/>
   <polygon class="fil0" points="2440.38,1101.61 2440.38,1098.8 2437.57,1098.8 "/>
   <polygon class="fil0" points="2443.19,1104.42 2443.19,1101.61 2440.38,1101.61 "/>
   <polygon class="fil0" points="2448.82,1107.23 2446,1107.23 "/>
   <polygon class="fil0" points="2434.76,1095.99 2434.76,1093.18 "/>
  </g>
 </g>
</svg>
