<?xml version="1.0" encoding="UTF-8"?>
<!DOCTYPE svg PUBLIC "-//W3C//DTD SVG 1.1//EN" "http://www.w3.org/Graphics/SVG/1.1/DTD/svg11.dtd">
<!-- Creator: CorelDRAW 2020 (64 Bit) -->
<svg xmlns="http://www.w3.org/2000/svg" xml:space="preserve" width="183.358mm" height="243.989mm" version="1.1" style="shape-rendering:geometricPrecision; text-rendering:geometricPrecision; image-rendering:optimizeQuality; fill-rule:evenodd; clip-rule:evenodd"
viewBox="0 0 3099.13 4123.92"
 xmlns:xlink="http://www.w3.org/1999/xlink"
 xmlns:xodm="http://www.corel.com/coreldraw/odm/2003">
 <defs>
  <style type="text/css">
   <![CDATA[
    .fil20 {fill:#163342;fill-rule:nonzero}
    .fil16 {fill:#23344A;fill-rule:nonzero}
    .fil11 {fill:#292C47;fill-rule:nonzero}
    .fil12 {fill:#2F4563;fill-rule:nonzero}
    .fil21 {fill:#2F6B8C;fill-rule:nonzero}
    .fil18 {fill:#3C6B4A;fill-rule:nonzero}
    .fil22 {fill:#406933;fill-rule:nonzero}
    .fil19 {fill:#538742;fill-rule:nonzero}
    .fil28 {fill:#665249;fill-rule:nonzero}
    .fil26 {fill:#6B4528;fill-rule:nonzero}
    .fil8 {fill:#82C07E;fill-rule:nonzero}
    .fil7 {fill:#9A6FA0;fill-rule:nonzero}
    .fil15 {fill:#9C7534;fill-rule:nonzero}
    .fil4 {fill:#9CCC9B;fill-rule:nonzero}
    .fil14 {fill:#A77860;fill-rule:nonzero}
    .fil0 {fill:#B39898;fill-rule:nonzero}
    .fil23 {fill:#C44A4A;fill-rule:nonzero}
    .fil5 {fill:#CA595B;fill-rule:nonzero}
    .fil24 {fill:#CF4D4D;fill-rule:nonzero}
    .fil25 {fill:#D85151;fill-rule:nonzero}
    .fil13 {fill:#DB9C7C;fill-rule:nonzero}
    .fil6 {fill:#EC686B;fill-rule:nonzero}
    .fil2 {fill:#EEA886;fill-rule:nonzero}
    .fil27 {fill:#EEA987;fill-rule:nonzero}
    .fil3 {fill:#FACE87;fill-rule:nonzero}
    .fil1 {fill:#FFBF55;fill-rule:nonzero}
    .fil17 {fill:url(#id0)}
    .fil9 {fill:url(#id1)}
    .fil10 {fill:url(#id2)}
   ]]>
  </style>
  <linearGradient id="id0" gradientUnits="userSpaceOnUse" x1="544.81" y1="1218.69" x2="1143.74" y2="1217.67">
   <stop offset="0" style="stop-opacity:1; stop-color:#4F8D62"/>
   <stop offset="1" style="stop-opacity:1; stop-color:#639C38"/>
  </linearGradient>
  <linearGradient id="id1" gradientUnits="userSpaceOnUse" x1="1549.4" y1="2067.3" x2="1434.01" y2="2393.24">
   <stop offset="0" style="stop-opacity:1; stop-color:#FACE87"/>
   <stop offset="1" style="stop-opacity:1; stop-color:#FAD7A0"/>
  </linearGradient>
  <linearGradient id="id2" gradientUnits="userSpaceOnUse" x1="1167.76" y1="2350.76" x2="1607.08" y2="2349.94">
   <stop offset="0" style="stop-opacity:1; stop-color:#D4A862"/>
   <stop offset="1" style="stop-opacity:1; stop-color:#FAD7A0"/>
  </linearGradient>
 </defs>
 <g id="Camada_x0020_4">
  <metadata id="CorelCorpID_0Corel-Layer"/>
  <path class="fil0" d="M3094.26 3873.17c-76.51,-342.38 -261.47,-570.57 -780.27,-450.06 -518.85,120.56 -687.18,257.47 -994.25,149.35 -307.08,-108.16 -1324.9,-149.06 -1319.72,85.99 5.25,235.05 343.75,516.78 1073.88,442.91 730.13,-73.82 2117.76,208.16 2020.36,-228.19z"/>
  <path class="fil1" d="M1075.68 1392.1c1.26,1.55 3.06,3.77 5.37,6.56l0 0c5.91,7.22 15.02,18.18 26.6,31.95 66.66,79.37 213.11,248.64 268.79,279.17 39.48,21.59 45.39,-46.56 6.1,-88.37 -35.84,-38.15 -174.41,-284.28 -227.97,-337.24 -25.99,-25.77 -61.34,-269.1 -61.34,-269.1 0,0 -31.97,203.03 -28.32,226.34 3.57,23.37 -11.99,122.31 10.78,150.68z"/>
  <path class="fil2" d="M1382.54 1621.42c0,0 23,30.17 34.94,33.94 11.92,3.76 25.7,24.75 35.71,30.12 9.97,5.42 42.69,10.55 50.55,19.67 3.3,3.75 13.78,34.45 21.24,41.33 7.44,6.86 24.21,18.95 17.89,25.15 -6.32,6.27 -24.45,-0.52 -24.45,-0.52 0,0 6.37,6.67 2.5,13.77 -7.46,13.89 -17.41,13.71 -17.41,13.71 0,0 1.9,11.04 -2.69,16.04 -10.07,11.02 -19.67,10.55 -19.67,10.55 0,0 -1.78,8.29 -10.21,14.13 -10.72,7.51 -22.3,1.8 -22.3,1.8 0,0 -11.26,12.4 -20.03,9.07 -8.76,-3.28 -13.3,-10.33 -19.31,-14.73 -6.03,-4.35 -45.51,-58.67 -56.77,-107.39 -11.33,-48.79 -39.31,-81.88 -39.31,-81.88l69.31 -24.75z"/>
  <path class="fil3" d="M1192.38 2168.55l603.71 -1.07c-0.71,-49.79 -10.48,-213.29 -104.69,-311.12 -49.74,-51.64 -116.28,-77.75 -197.78,-77.65 -81.57,0.12 -148.06,26.54 -197.67,78.43 -93.97,98.37 -103.09,261.64 -103.57,311.42zm634.08 29.88l-664.25 1.14 -0.66 -14.85c-0.41,-9 -8.34,-223.01 111.98,-349 55.63,-58.25 129.7,-87.82 220.02,-88.01 90.34,-0.12 164.45,29.22 220.26,87.23 120.81,125.57 113.59,339.64 113.22,348.63l-0.59 14.85z"/>
  <path class="fil3" d="M1278.42 1877.47c0,0 88.42,-114.12 238.28,-98.03l-0.07 -31.07c0,0 -144.95,-19.74 -251.26,96.3l13.06 32.8z"/>
  <path class="fil4" d="M1296.31 2069.87c-130.89,0.19 -135.36,124.09 -135.36,124.09l250.14 -0.42c0,0 16.17,-123.9 -114.78,-123.67z"/>
  <path class="fil5" d="M1436.73 2131.6c-60.83,-5.79 -67.74,62.07 -67.74,62.07l130.94 -0.24c0,0 -2.45,-56.11 -63.21,-61.83z"/>
  <path class="fil6" d="M1502.2 2131.48c-60.83,-5.79 -67.73,62.07 -67.73,62.07l130.94 -0.24c0,0 -2.45,-56.11 -63.21,-61.83z"/>
  <path class="fil7" d="M1817.75 2083c44.25,-109.96 -133.52,-128.39 -145.07,-55.87 -11.57,72.5 -132.98,166.24 -132.98,166.24l212.82 41.67c0,0 20.98,-42.1 65.23,-152.05z"/>
  <path class="fil8" d="M1732.29 1980.62c-70.05,-3.04 -106.37,72.21 -106.37,72.21 0,0 103.98,-47.41 111.01,-24.56 7.1,22.76 22.36,88.72 22.36,88.72 0,0 17.36,-102.02 22.24,-86.04 4.89,15.97 57.18,42.69 57.18,42.69 3.4,-61.17 -57.23,-85.5 -57.23,-85.5 0,0 20.86,-4.42 -49.2,-7.51z"/>
  <path class="fil9" d="M1607.45 2554.94l-234.58 0.36c-287.1,0.54 -241.85,-409.05 -241.85,-409.05l716.9 -1.24c0,0 46.63,409.44 -240.47,409.93z"/>
  <path class="fil10" d="M1607.45 2554.94l-234.58 0.36c-287.1,0.54 -241.85,-409.05 -241.85,-409.05l259.57 -0.47c0,0 -21.71,409.56 216.86,409.15z"/>
  <path class="fil11" d="M622.77 118.94c0,0 -79.79,-20.86 -118.61,49.62 -38.81,70.53 116.04,289.9 51.22,379.58 -57.23,79.25 -109.82,39.41 -109.82,39.41 0,0 109.89,118.96 203.69,-21.76 56.28,-84.43 31.78,-176.19 28.67,-252.21 -3.04,-76.02 -55.14,-194.63 -55.14,-194.63z"/>
  <path class="fil12" d="M1246.88 3628.87c0,0 21.47,56.89 51.21,70.38 29.77,13.47 97.27,75.83 124.28,80.31 27.06,4.47 91.95,9.42 95.64,43.71 3.63,34.22 -3.28,65.29 -133.98,47.52 -130.7,-17.82 -254.25,-77.99 -254.25,-77.99 0,0 -26.6,-132.37 15.73,-197.79 42.4,-65.4 101.38,33.87 101.38,33.87z"/>
  <path class="fil2" d="M1246.88 3628.87l-24.58 -81.57 -93.36 0.12 0.17 87.06c0,0 141.32,52.83 117.77,-5.61z"/>
  <path class="fil12" d="M427.49 3476.48c0,0 9.29,58.96 23.83,76.85 14.49,17.82 35.61,102.74 65.25,129.8 29.57,27.13 102.19,88.08 80.07,118.66 -22.18,30.59 -177.31,-8.41 -232.96,-102.74 -55.58,-94.38 -74.54,-105.05 -67.56,-130.75 7.04,-25.65 59.46,-124.45 58.15,-136.44 -1.26,-11.99 73.23,44.61 73.23,44.61z"/>
  <path class="fil2" d="M450.08 3434.03c-0.95,0 -18.67,26.77 -22.59,42.45 -3.89,15.68 -38.24,21.88 -65.78,-12.05 0,0 -8.58,-12.28 -7.44,-32.55 1.19,-20.28 24.26,-68.22 24.26,-68.22l71.55 70.38z"/>
  <path class="fil13" d="M1516.57 1765c0,0 -34.52,-45.85 -54.26,-46.61 -19.67,-0.78 -8.17,16.44 -8.17,16.44 0,0 -11.09,-17.22 -26.06,-9.83 -14.9,7.44 -0.29,26.89 -0.29,26.89 0,0 -11.99,-10.79 -23.85,1.85 -11.87,12.64 3.99,25.99 3.99,25.99 0,0 -25.58,-5.84 -22.35,15.27 5.47,35.66 43.04,55.16 43.04,55.16 0,0 10.38,5.84 20.93,-7.1 0,0 23.61,10.6 33.4,-16.29 0,0 30.1,-4.52 23.61,-27.37 0,0 30.71,-7.98 10.02,-34.4z"/>
  <path class="fil11" d="M834.09 2091.34c4.94,23.56 36.3,122 71.43,231.42l0 0.05c32.02,99.75 67.13,208.57 88.25,278.05 7.81,25.87 13.76,46.32 16.8,58.72 20.27,82.22 -2.14,211.39 -9.24,319.19 -7.15,107.92 110.01,638.36 110.01,638.36 27.49,12.76 149.06,-21.35 149.06,-21.35 -20.14,-38.34 -48.36,-698.87 -37.44,-740.93 10.92,-42.04 18.01,-159.08 6.98,-204.74 -2.26,-9.43 -3.38,-21.78 -3.64,-36.68 -1.07,-57.72 10.69,-153.12 17.77,-257.71 8.89,-131.65 -42.81,-458.77 -50.21,-488.06 -0.66,-2.68 -1.73,-6.42 -3.09,-11.09 -13.54,-45.84 -57.13,-176.14 -57.13,-176.14 -87.99,-25.99 -154.19,-30.59 -203.62,-20.45 -65.42,13.42 -101.38,52.78 -119.25,102.69 -42.81,119.01 16.99,298.14 23.31,328.65z"/>
  <path class="fil11" d="M336.62 3417.5l120.15 50.81c14.95,-73.17 349.46,-581.66 371.41,-638.38 21.93,-56.7 45.32,-166.42 45.2,-206.66 0,-7.15 0.48,-19.32 1.49,-35.01 3.82,-61 14.78,-175.97 30.66,-265.51 2.92,-16.7 6.08,-32.5 9.36,-46.92 17.58,-77.16 20.15,-340.9 20.08,-495.93 0,-69.04 -0.54,-116.5 -0.54,-116.5 0,0 -1.54,-1.24 -4.4,-3.4 -33.4,-25.16 -247.52,-178.57 -321.81,-34.7 -19.62,38.05 -32.38,78.82 -40.12,121.34 -23.73,130.34 -22.85,290.92 -3.35,424.61 16.7,114.36 71.5,262.11 80.81,382.04 5.13,65.99 3.38,119.37 -11.52,145.36 -41.91,73.23 -82.93,135.17 -167.49,393.35 -27.55,83.97 -129.92,325.51 -129.92,325.51z"/>
  <path class="fil2" d="M812.08 87.11c0,0 165.59,5.37 172.62,245.12 7.1,239.83 -45.02,290.99 -192.72,241.27 -147.75,-49.74 -194.81,-300.54 -198.19,-339.41 -3.4,-38.81 -9.36,-175.47 218.3,-146.97z"/>
  <path class="fil1" d="M513.95 900.66c-0.48,82.59 94.74,279.76 109.48,340.71 14.73,60.88 37.92,80.38 18.53,158.42 -19.38,77.99 -79.36,342.02 -76.9,365.16 2.5,23.12 544.08,107.63 625.72,91.64 0,0 -100.48,-372.31 -107.87,-414.99 -7.32,-42.64 8.6,-202.62 12.17,-247.71 3.57,-45.07 49.07,-142.2 47.41,-187.4 -1.62,-46.1 -24.33,-85.8 -56.06,-134.93 -9.77,-15.22 -20.15,-30.71 -30.46,-45.8 -33.57,-49.13 -67.15,-93.73 -83.6,-109.11 -12.28,-11.38 -23.73,-20.15 -33.63,-26.77 -0.07,0 -0.12,0 -0.12,0 -20.69,-13.78 -34.57,-18.18 -34.57,-18.18l-145.14 -22.95c0,0 -90.34,32.85 -142.27,45.13 0,0 -101.48,14.97 -102.67,206.79z"/>
  <path class="fil1" d="M938.61 689.88l84.31 132.31 77.75 122.12c-0.17,-0.66 -5.37,-19.13 -14.25,-72.74 -1.67,-10.19 -3.45,-21.59 -5.42,-34.4 -0.54,-3.82 -1.38,-7.58 -2.45,-11.28 0,0 0,0 0,-0.05 -33.33,-76.44 -136.12,-134.05 -139.82,-135.95 -0.07,0 -0.12,0 -0.12,0z"/>
  <path class="fil2" d="M696.87 465.63c14.68,27.6 30.41,199.02 30.41,199.02 0,0 206.48,77.65 185.33,33.57 -9.67,-20.03 -12.52,-45.96 -12.76,-68.39 -0.17,-17.65 1.24,-33.09 2.26,-41.62 0.53,-4.52 0.9,-7.15 0.9,-7.15 0,0 -220.87,-143.05 -206.14,-115.43z"/>
  <path class="fil14" d="M784.42 570.75c31.71,46.63 115.43,59.08 115.43,59.08l0 0c-0.17,-17.65 1.24,-33.09 2.26,-41.62 -53.78,10.45 -117.7,-17.46 -117.7,-17.46z"/>
  <path class="fil1" d="M1078.2 824.93l0 0c0,0 4.52,9.31 8.22,46.63l-30.46 -45.8c0,0 -54.38,-77.75 -73.05,-97.96 -18.6,-20.22 -44.18,-37.93 -44.18,-37.93 0,0 106.85,51.16 139.48,135.05z"/>
  <path class="fil2" d="M904.03 671.69c0,0 97.47,149.37 64.57,162.48 -32.92,13.13 -211.15,-17.05 -287.17,-158.97 0,0 113.22,-58.3 222.6,-3.5z"/>
  <path class="fil1" d="M1405.18 1646.82c0,0 -49.67,16.53 -64.87,44.85 0,0 -31.66,-41.21 -42.04,-48.72l75.13 -32.68 31.78 36.54z"/>
  <path class="fil12" d="M1094.88 1196.34c0.19,-2.02 0.29,-3.16 0.29,-3.4 0,0.12 -0.05,0.43 -0.1,0.95 -0.12,0.55 -0.19,1.38 -0.19,2.45z"/>
  <path class="fil15" d="M1081.05 1398.67l0 0c5.91,7.22 27.91,33.68 39.41,47.41 0,0 -26.65,-221.04 -25.58,-249.66 -2.56,22.9 -17.87,153.17 -13.83,202.25z"/>
  <path class="fil2" d="M629.68 1308.81c0,0 59.34,20.26 115.02,31.95 55.75,11.74 -1.73,78.6 -1.73,78.6 0,0 -96.47,-9.07 -142.93,-13.25 -17,-1.49 29.64,-97.3 29.64,-97.3z"/>
  <path class="fil1" d="M674.41 933.46c0,0 -124.04,-43.88 -162.55,-46.82 0,0 19.5,-216.14 147.45,-194.2 127.96,21.95 15.1,241.02 15.1,241.02z"/>
  <path class="fil11" d="M856.92 238.45c0,0 -31.66,117.63 -221.51,153.12 0,0 -149.2,-254.49 60.1,-307.98 209.28,-53.54 276.84,107.51 283.23,186.69 0,0 -56.3,-35.66 -121.82,-31.83z"/>
  <path class="fil11" d="M971.16 239.28c0,0 -84.12,-301.59 -341.83,-133.03 0,0 -129.46,86.16 11.02,297.24 0,0 195.15,-51.57 330.81,-164.21z"/>
  <path class="fil16" d="M769.03 1344.64c0,0 -20.45,25.21 -11.45,75.9 0,0 4.71,6.37 21.35,2.21 0,0 -0.95,-54.38 15.39,-74.42 0,0 -7.51,-5.37 -25.28,-3.69z"/>
  <path class="fil2" d="M761.52 367.77c-11.28,-24.63 -29.63,-46.27 -56.77,-29.51 -27.18,16.7 -9.19,76.63 25.46,85.87 34.64,9.17 41.21,-34.64 31.31,-56.35z"/>
  <path class="fil11" d="M695.03 386.27c0,0 -29.98,40.65 -22.54,80.67 0,0 -42.99,-44.73 -39.88,-75.37 3.09,-30.66 62.41,-5.3 62.41,-5.3z"/>
  <path class="fil17" d="M1143.78 1217.57c0,10.09 -0.71,20.03 -2.14,29.83 -3.28,22.71 -10.43,44.47 -20.81,64.87 -6.08,11.93 -13.23,23.37 -21.47,34.23l0 0c-52.64,69.87 -146.92,116.57 -254.61,116.75 -109.17,0.17 -204.81,-47.46 -257.22,-118.84 -12.28,-16.7 -22.24,-34.77 -29.39,-53.78 -6.79,-18.13 -11.21,-37.22 -12.69,-56.83 -0.36,-5.01 -0.54,-10.07 -0.61,-15.2 0,-8.22 0.54,-16.53 1.49,-24.58 1.43,-11.74 3.83,-23.19 7.22,-34.4 4.84,-16.27 11.69,-31.83 20.28,-46.63 48.06,-82.57 150.86,-139.75 270.11,-139.94 116.57,-0.24 217.64,54.14 267.26,133.62 6.55,10.5 12.21,21.41 16.93,32.74 7.58,18.43 12.59,37.86 14.61,58.01 0.73,6.63 1.07,13.37 1.07,20.15z"/>
  <path class="fil18" d="M1128.09 1139.4c-16.99,1.36 -37.08,0.66 -54.97,-3.4 -44.66,-10.02 -59.1,-12.16 -113.78,-12.4 -54.73,-0.29 -83.54,-8.17 -115.19,0.17 -31.66,8.36 -48.89,13.71 -93.55,16.87 -44.59,3.16 -73.47,-13.06 -120.98,0.19 -33.69,9.48 -62.36,15.85 -76.09,18.77 4.84,-16.27 11.69,-31.83 20.28,-46.63 28.93,-13.06 77.09,-32.02 100.41,-25.21 34.59,9.97 61.9,-6.2 107.99,-11.16 46.03,-5.01 105.05,-9.65 131,-0.17 25.94,9.36 94.99,-2.21 132.5,13.54 17.24,7.27 42.45,12.23 65.47,16.68 6.55,10.5 12.21,21.41 16.93,32.74z"/>
  <path class="fil18" d="M1143.78 1217.57c0,10.09 -0.71,20.03 -2.14,29.83 -20.81,-0.67 -42.04,-1.09 -58.25,-0.55 -44.66,1.5 -76.27,10.21 -97.85,10.26 -21.64,0 -79.24,-11.38 -102.26,-12.82 -23.07,-1.36 -87.84,1.61 -113.78,1.61l-95.04 0.19c-37.44,0.05 -82.05,3.04 -82.05,3.04 0,0 -25.46,-8.12 -46.97,-15.34 -0.36,-5.01 -0.54,-10.07 -0.61,-15.2 0,-8.22 0.54,-16.53 1.49,-24.58 23.38,0 62.85,1.5 100.72,0.31 48.95,-1.55 76.32,1.31 125.21,-0.24 49.01,-1.49 102.27,-14.56 146.87,-0.24 44.71,14.37 70.65,25.16 96.59,23.97 18.89,-0.83 82.4,-17.94 127.01,-20.4 0.73,6.63 1.07,13.37 1.07,20.15z"/>
  <path class="fil18" d="M1120.82 1312.26c-6.08,11.93 -13.23,23.37 -21.47,34.23l0 0c-61.83,11.26 -92.07,19.96 -125.16,32.97 -33.14,13.06 -95.64,18.89 -105.42,18.96 -9.77,0 -123.48,-4.11 -123.48,-4.11 0,0 -31.73,-14.37 -63.45,-21.53 -22.47,-5.06 -64.57,-15.2 -94.33,-28.38 -12.28,-16.7 -22.24,-34.77 -29.39,-53.78 51.28,18.36 164.74,48.72 184.19,47.51 24.46,-1.49 86.33,5.61 139.65,5.54 53.31,-0.12 87.84,-5.89 115.14,-13.16 27.37,-7.29 15.92,-25.06 69.11,-20.29 18.84,1.67 37.86,2.16 54.61,2.04z"/>
  <path class="fil1" d="M527.9 824.57c0,0 22.66,-154.55 135.93,-129.32 108.84,24.32 7.22,227.05 -0.76,251.09 -7.93,23.97 -88.2,220.08 -95.11,245.7 -21.95,81.22 -1.26,83.12 32.02,102.21 98.2,56.35 295.39,65.96 318.71,81.45 23.25,15.51 26.6,50.21 -12.52,51.95 -50.86,2.26 -341.54,-24.58 -382.09,-28.51 -39.36,-3.75 -117.65,-6.91 -97.32,-146.73 13.66,-94.11 101.14,-427.84 101.14,-427.84z"/>
  <path class="fil2" d="M744.7 1340.76c0,0 60.64,10.09 66.32,9.12 5.65,-0.9 29.51,-40.19 57.23,-47.27 27.73,-7.05 62.43,-12.52 70.96,-17.89 8.51,-5.37 10.97,21.81 -15.7,33.04 -26.65,11.14 -33.26,26.04 16.65,35.96 27.6,5.47 130.82,-6.2 122.29,11.26 -5.06,10.26 -104.47,17.7 -104.47,17.7 0,0 107.27,-0.66 110.98,5.85 7.2,12.76 -100.43,17.41 -104.95,17.05 0,0 92.24,5.13 93.07,13.42 1.02,10.26 -92.41,6.03 -91.53,7.75 0,0 73.29,4.89 72.57,11.16 -0.95,8.22 -65.47,9.29 -77.99,7.86 -12.45,-1.43 -138.92,-15.61 -160.09,-19.79 -21.35,-4.23 -57.06,-6.61 -57.06,-6.61l1.73 -78.6z"/>
  <path class="fil1" d="M2686.85 962.73c-34.89,-119.49 72.71,-256.39 72.71,-256.39 -66.49,-61.83 -152.15,-85.5 -188.76,-91.7 -36.79,-6.2 -139.72,-28.1 -139.72,-28.1l-83.07 0.12 -82.83 0.14c0,0 -106.49,20.79 -142.03,27.01 -36.68,6.37 -119.44,37.68 -176.31,89.25 0,0 96.06,161.04 61.59,280.66 0,0 28.27,193.86 45.27,266.83 8.76,37.51 0.54,155.4 -0.12,186.23 -0.83,44.18 -7.39,169.99 -16.16,278.03 0,0 99.58,59.1 312.68,63.74 211.04,-14.01 317.77,-64.81 317.77,-64.81 -13.47,-128.66 -22.28,-237.02 -27.63,-278.88 -3.97,-30.58 1.04,-146.97 4.49,-185.31 4.84,-53.02 42.14,-286.81 42.14,-286.81z"/>
  <path class="fil2" d="M2365.28 716.94c-121.39,8.24 -126.82,-124.97 -126.82,-124.97 0,0 8.6,-4.72 12.52,-26.77 1.92,-10.26 2.75,-24.16 1.26,-43.05 -1.02,-14.13 -3.45,-31.07 -7.58,-51.4 -21.81,-105.85 187.1,-58.15 187.1,-58.15 0,0 3.63,127.49 28.32,177.94 0,0 26.6,118.13 -94.81,126.4z"/>
  <path class="fil19" d="M2356.99 2049.37l337.29 -63.14c0,0 -21.41,-236.84 -24.52,-271.02 -2.59,-29.32 -31.95,-313.26 -26.08,-465.67 0,0 -74.44,-90.34 -83.59,-185.79l-207.42 -2.16 -2.07 0 -207.78 5.13c-8.76,95.47 -89.13,183.83 -89.13,183.83 2.26,161.3 -15.58,436.42 -18.01,465.74 -2.87,34.18 -41.14,262.25 -41.14,262.25l355.02 70.84 0 1.73 3.8 -0.85 3.63 0.85 0 -1.73z"/>
  <path class="fil20" d="M1944.15 3634.56c0,0 -21.4,51.86 -39.46,72.38 -18.13,20.57 -87.42,57.35 -87.65,118.35 -0.31,66.07 116.97,47.53 162.82,45.03 45.87,-2.45 49.32,-37.81 68.58,-75.25 19.19,-37.44 38.69,-31.18 42.28,-61.35 3.57,-30.17 -14.97,-97.73 -14.97,-97.73l-131.6 -1.42z"/>
  <path class="fil21" d="M1942.06 3615.45l3.64 33.99c0,0 61.9,23.14 130.11,-0.22l-0.54 -42.76 -133.22 9z"/>
  <path class="fil20" d="M2636.08 3633.42c0,0 21.59,51.76 39.72,72.21 18.13,20.52 87.56,57.06 87.91,118.06 0.69,66.07 -116.75,47.94 -162.69,45.61 -45.77,-2.32 -49.39,-37.68 -68.74,-75.07 -19.34,-37.38 -38.86,-31.01 -42.49,-61.18 -3.63,-30.17 14.68,-97.78 14.68,-97.78l131.6 -1.85z"/>
  <path class="fil21" d="M2637.98 3614.28l-3.45 33.99c0,0 -61.83,23.37 -130.05,0.22l0.35 -42.74 133.15 8.53z"/>
  <path class="fil19" d="M2733.83 2766.62c0.17,81.52 -73.22,857.26 -73.22,857.26 -8.12,27.18 -149.04,25.75 -176.16,12.21 -27.29,-13.54 21.41,-822.91 16.06,-905.07 -5.01,-82.17 -150.77,-656.44 -174.6,-653.64 -23.83,2.75 -146.17,711.9 -165.07,774.45 -18.91,62.48 -69.82,781.17 -69.82,781.17 -59.69,35.4 -172.03,1.61 -172.03,1.61 0,0 7.46,-804.14 15.56,-825.9 8.12,-21.76 6.03,-84.19 8.41,-287.93 1.8,-152.24 57.3,-595.74 85.26,-810.22 1.02,-7.63 1.97,-14.97 2.87,-21.93 5.49,-41.74 9.6,-72.45 11.57,-87.13 0.83,-6.37 1.31,-9.77 1.31,-9.77 7.63,-3.52 15.61,-6.74 23.92,-9.77 198.85,-71.79 582.7,3.21 582.7,3.21 0,0 0.17,1.85 0.69,5.44 0.52,4.28 1.38,11.09 2.24,19.79 2.42,18.89 5.7,47.04 9.5,79.72 0,0.24 0,0.48 0.17,0.71 0,0.97 0.17,1.97 0.17,2.99 13.64,116.21 32.81,286.44 31.09,304.16 -2.59,27.18 39.2,687.13 39.38,768.65z"/>
  <polygon class="fil22" points="2448.87,1271.66 2351.98,1271.83 2255.05,1272.01 2164.83,1362.52 2165.31,1637.7 2352.68,1637.34 2539.88,1637.05 2539.54,1361.88 "/>
  <path class="fil1" d="M2711.9 1055.21c0,0 43,253.77 36.61,297.24 -6.39,43.47 -98.27,505.64 -98.27,505.64l104.31 48.77c0,0 139.89,-479.16 142.13,-551.66 2.24,-72.52 -14.51,-321.45 -40.76,-430.69 -26.25,-109.23 -58.37,-183.89 -114.85,-237.38 -56.47,-53.48 -154.74,-69.29 -154.74,-69.29l125.55 437.37z"/>
  <path class="fil1" d="M1991.43 1056.46c0,0 -42.16,253.89 -35.59,297.31 6.49,43.47 94.33,471.36 94.33,471.36l-98.56 83.12c0,0 -141.44,-478.7 -143.88,-551.2 -2.5,-72.45 13.3,-321.45 39.24,-430.81 25.87,-109.36 57.84,-184.14 114.05,-237.8 56.23,-53.66 154.55,-69.77 154.55,-69.77l-124.14 437.78z"/>
  <path class="fil19" d="M2560.09 1063.74c0,0 9.5,-251.28 107.77,-421.81 0,0 -18.13,-17.29 -55.96,-18.48 0,0 -94.12,227.78 -99.65,439.8 -5.35,212.03 47.84,0.48 47.84,0.48z"/>
  <path class="fil19" d="M2142.82 1066.71c0,0 -9.84,-278.03 -103.5,-425.85 0,0 22.95,-23.73 48.05,-17.41 0,0 96.49,230.04 102.69,442.06 6.2,212.04 -47.23,1.19 -47.23,1.19z"/>
  <path class="fil2" d="M2732.97 1936.67c0,0 -39.2,52.95 -112.77,49.08 -83.76,-4.35 -108.28,-41.33 -102.76,-57.6 5.7,-16.41 203.62,-30.9 215.53,8.52z"/>
  <path class="fil2" d="M2707.41 1959.81c0,0 62.52,-20.81 51.81,-37.27 -10.71,-16.46 -46.97,8.53 -46.97,8.53l-4.84 28.74z"/>
  <path class="fil2" d="M1974.63 1937.98c0,0 39.29,52.78 112.93,48.67 83.71,-4.66 108.09,-41.69 102.5,-57.96 -5.67,-16.34 -203.63,-30.17 -215.43,9.29z"/>
  <path class="fil2" d="M2000.21 1961c0,0 -61.96,-22.12 -51.27,-38.65 10.6,-16.44 46.39,9.91 46.39,9.91l4.89 28.74z"/>
  <path class="fil23" d="M2798.25 1504.62c0.17,66.01 -53.19,119.54 -119.16,119.67 -65.97,0.12 -119.51,-53.3 -119.68,-119.25 -0.17,-66.01 53.36,-119.54 119.16,-119.67 66.14,-0.12 119.68,53.3 119.68,119.25z"/>
  <path class="fil24" d="M2642.47 1463c0.17,65.94 -53.19,119.54 -119.16,119.67 -66.14,0.07 -119.68,-53.3 -119.68,-119.3 -0.17,-65.96 53.19,-119.56 119.16,-119.68 65.97,-0.12 119.51,53.31 119.68,119.32z"/>
  <path class="fil23" d="M2562.34 1405.64c0.17,66.01 -53.36,119.54 -119.34,119.66 -65.97,0.12 -119.51,-53.3 -119.68,-119.25 0,-66.01 53.36,-119.54 119.34,-119.68 65.97,-0.12 119.51,53.31 119.68,119.27z"/>
  <path class="fil25" d="M2401.2 1385.83c0.17,65.96 -53.36,119.56 -119.27,119.68 -66.01,0.12 -119.54,-53.31 -119.67,-119.25 -0.12,-66.02 53.24,-119.61 119.25,-119.68 65.97,-0.12 119.51,53.24 119.68,119.25z"/>
  <path class="fil25" d="M2562.51 1517.55c0.17,65.95 -53.19,119.56 -119.34,119.66 -65.97,0.12 -119.51,-53.3 -119.68,-119.25 0,-66.01 53.36,-119.54 119.34,-119.67 65.97,-0.12 119.51,53.24 119.68,119.25z"/>
  <path class="fil23" d="M2428.84 1463.36c0.17,65.94 -53.19,119.54 -119.16,119.66 -65.95,0.07 -119.56,-53.31 -119.68,-119.32 -0.12,-65.94 53.31,-119.54 119.34,-119.66 65.97,-0.05 119.51,53.31 119.51,119.32z"/>
  <path class="fil23" d="M2310.88 1535.93c0,66.01 -53.4,119.54 -119.39,119.67 -65.96,0.12 -119.56,-53.31 -119.68,-119.25 -0.05,-66.01 53.31,-119.56 119.32,-119.68 65.94,-0.1 119.58,53.24 119.75,119.27z"/>
  <path class="fil25" d="M2284.51 1490.59c0.12,65.96 -53.26,119.56 -119.27,119.68 -65.99,0.12 -119.54,-53.31 -119.66,-119.25 -0.12,-66.01 53.31,-119.56 119.25,-119.68 66.01,-0.12 119.56,53.26 119.68,119.25z"/>
  <path class="fil23" d="M2160.25 1496.62c0.05,66.01 -53.31,119.56 -119.32,119.68 -65.96,0.12 -119.56,-53.31 -119.68,-119.25 -0.1,-66.02 53.31,-119.56 119.32,-119.68 65.96,-0.12 119.56,53.24 119.68,119.25z"/>
  <polygon class="fil26" points="2831.58,1927.38 1870.82,1929.03 1870.09,1497.11 2830.89,1495.5 "/>
  <path class="fil27" d="M2450.94 375.41c0,0.12 0,0.12 0,0.12 -15.72,33.57 -34.89,65.42 -55.78,92.48 -72.71,93.48 -268.85,92 -245.36,-160.28 4.54,-48.36 5.42,-87.94 15.15,-119.91 34.52,-113.83 116.16,-132.89 116.16,-132.89 60.34,-3.47 165.86,11.31 201.09,89.79 25.21,55.75 7.25,148.23 -31.26,230.69z"/>
  <path class="fil28" d="M2450.94 375.41c0,0.12 0,0.12 0,0.12 0,0 -8.81,2.31 -40.24,-60.88 -6.22,-12.69 -11.05,-3.64 -13.82,-9.24l-49.91 -19.38c0,0 49.22,-82.64 -15.54,-105.49 -65.83,-23.26 -166.49,7.27 -166.49,7.27 34.52,-113.83 116.16,-132.89 116.16,-132.89 60.34,-3.47 165.86,11.31 201.09,89.79 25.21,55.75 7.25,148.23 -31.26,230.69z"/>
  <path class="fil27" d="M2386.7 267.07c3.63,-17.18 37.48,-31.97 51.81,4.82 14.51,36.85 -33.5,75.97 -46.28,67.92 -12.61,-8.05 -11.74,-44.37 -5.53,-72.74z"/>
  <path class="fil23" d="M2493.26 269.63c0,0 -160.61,-110.72 -347.81,-70.77 0,0 10.74,-233.98 223.81,-194.32 200.34,37.32 130.74,238.69 124,265.1z"/>
  <path class="fil23" d="M2389.98 219.49c0,0 -264.8,28.91 -366.77,7.81 -101.96,-21.17 125.11,-52.78 125.11,-52.78 0,0 84.9,-26.82 241.66,44.97z"/>
  <path class="fil14" d="M2404.31 455.49c0,0 -43.17,116.33 -153.33,109.72 1.92,-10.26 2.75,-24.16 1.26,-43.05 0.12,-0.12 0.12,-0.12 0.12,-0.12 0,0 95.12,17.65 151.94,-66.54z"/>
 </g>
</svg>
