<?xml version="1.0" encoding="UTF-8"?>
<!DOCTYPE svg PUBLIC "-//W3C//DTD SVG 1.1//EN" "http://www.w3.org/Graphics/SVG/1.1/DTD/svg11.dtd">
<!-- Creator: CorelDRAW 2020 (64 Bit) -->
<svg xmlns="http://www.w3.org/2000/svg" xml:space="preserve" width="198.841mm" height="241.781mm" version="1.1" style="shape-rendering:geometricPrecision; text-rendering:geometricPrecision; image-rendering:optimizeQuality; fill-rule:evenodd; clip-rule:evenodd"
viewBox="0 0 31556.4 38370.95"
 xmlns:xlink="http://www.w3.org/1999/xlink"
 xmlns:xodm="http://www.corel.com/coreldraw/odm/2003">
 <defs>
  <style type="text/css">
   <![CDATA[
    .fil13 {fill:#1B384F;fill-rule:nonzero}
    .fil19 {fill:#202338;fill-rule:nonzero}
    .fil24 {fill:#2A3E4F;fill-rule:nonzero}
    .fil12 {fill:#323657;fill-rule:nonzero}
    .fil21 {fill:#385369;fill-rule:nonzero}
    .fil11 {fill:#3C6B4A;fill-rule:nonzero}
    .fil18 {fill:#424873;fill-rule:nonzero}
    .fil14 {fill:#538742;fill-rule:nonzero}
    .fil20 {fill:#616161;fill-rule:nonzero}
    .fil23 {fill:#665249;fill-rule:nonzero}
    .fil34 {fill:#82C07E;fill-rule:nonzero}
    .fil27 {fill:#959C4D;fill-rule:nonzero}
    .fil33 {fill:#9A6FA0;fill-rule:nonzero}
    .fil30 {fill:#9CCC9B;fill-rule:nonzero}
    .fil16 {fill:#A77860;fill-rule:nonzero}
    .fil8 {fill:#B39898;fill-rule:nonzero}
    .fil31 {fill:#CA595B;fill-rule:nonzero}
    .fil28 {fill:#CF433E;fill-rule:nonzero}
    .fil29 {fill:#DB9C7C;fill-rule:nonzero}
    .fil32 {fill:#EC686B;fill-rule:nonzero}
    .fil17 {fill:#EDEDED;fill-rule:nonzero}
    .fil15 {fill:#EEA886;fill-rule:nonzero}
    .fil22 {fill:#EEA987;fill-rule:nonzero}
    .fil36 {fill:#F0B24E;fill-rule:nonzero}
    .fil25 {fill:#FACE87;fill-rule:nonzero}
    .fil9 {fill:#FFBF55;fill-rule:nonzero}
    .fil10 {fill:url(#id0)}
    .fil35 {fill:url(#id1)}
    .fil1 {fill:url(#id2)}
    .fil0 {fill:url(#id3)}
    .fil2 {fill:url(#id4)}
    .fil6 {fill:url(#id5)}
    .fil26 {fill:url(#id6)}
    .fil7 {fill:url(#id7)}
    .fil4 {fill:url(#id8)}
    .fil5 {fill:url(#id9)}
    .fil3 {fill:url(#id10)}
   ]]>
  </style>
  <linearGradient id="id0" gradientUnits="userSpaceOnUse" x1="10211.83" y1="3274.26" x2="16762.12" y2="3263.14">
   <stop offset="0" style="stop-opacity:1; stop-color:#4F8D62"/>
   <stop offset="1" style="stop-opacity:1; stop-color:#639C38"/>
  </linearGradient>
  <linearGradient id="id1" gradientUnits="userSpaceOnUse" x1="21943.07" y1="20893.88" x2="22857.89" y2="23452.64">
   <stop offset="0" style="stop-opacity:1; stop-color:#FACE87"/>
   <stop offset="1" style="stop-opacity:1; stop-color:#FABA52"/>
  </linearGradient>
  <linearGradient id="id2" gradientUnits="userSpaceOnUse" x1="14659.01" y1="31991.83" x2="22101.17" y2="34614.82">
   <stop offset="0" style="stop-opacity:1; stop-color:#3076A1"/>
   <stop offset="1" style="stop-opacity:1; stop-color:#639C38"/>
  </linearGradient>
  <linearGradient id="id3" gradientUnits="userSpaceOnUse" xlink:href="#id2" x1="13429.9" y1="30288.36" x2="17984.64" y2="31942.62">
  </linearGradient>
  <linearGradient id="id4" gradientUnits="userSpaceOnUse" xlink:href="#id2" x1="11097.57" y1="30453.64" x2="15050.1" y2="32126.71">
  </linearGradient>
  <linearGradient id="id5" gradientUnits="userSpaceOnUse" xlink:href="#id2" x1="18176.48" y1="29062.94" x2="22129.07" y2="30736.01">
  </linearGradient>
  <linearGradient id="id6" gradientUnits="userSpaceOnUse" x1="16967.78" y1="16767.36" x2="16157.88" y2="16563.5">
   <stop offset="0" style="stop-opacity:1; stop-color:#EB4747"/>
   <stop offset="1" style="stop-opacity:1; stop-color:#EB7947"/>
  </linearGradient>
  <linearGradient id="id7" gradientUnits="userSpaceOnUse" xlink:href="#id2" x1="23835.63" y1="34628.78" x2="24294.86" y2="31207.74">
  </linearGradient>
  <linearGradient id="id8" gradientUnits="userSpaceOnUse" xlink:href="#id2" x1="20508.77" y1="28897.68" x2="25063.98" y2="30551.86">
  </linearGradient>
  <linearGradient id="id9" gradientUnits="userSpaceOnUse" xlink:href="#id2" x1="21737.42" y1="30601.09" x2="29179.58" y2="33224.12">
  </linearGradient>
  <linearGradient id="id10" gradientUnits="userSpaceOnUse" xlink:href="#id2" x1="16756.69" y1="36019.48" x2="17215.94" y2="32598.39">
  </linearGradient>
 </defs>
 <g id="Camada_x0020_4">
  <metadata id="CorelCorpID_0Corel-Layer"/>
  <path class="fil0" d="M14601.23 35639.63c0,0 747.39,-328.53 959,-1043.97 211.61,-715.44 347.67,-1700.23 926.58,-1954.01 578.9,-253.6 1795.58,-930.78 1830.76,-1778.39 35.83,-847.43 -1795.42,-1852.65 -1373.8,-2063.78 422.1,-210.96 1182.45,-773.16 434.41,-1231.92 -748.52,-458.58 -1145.97,-539.01 -1344.3,-1159.92 -197.5,-620.9 -920.4,-938.73 -1079.31,5.84 -159.08,944.42 -606.32,1160.25 -509.02,1948.17 97.46,787.94 550.36,1528.5 -713.17,1704.45 -1263.22,175.44 -803.49,1029.05 -521.83,1651.26 281.01,622.19 352.7,3076.79 437.17,3503.27 84,426.8 437.35,706.19 953.49,419z"/>
  <path class="fil1" d="M14283.24 36067.9c0,0 1714.82,-647.5 2249.45,-531.24 534.16,116.42 1526.23,398.91 1917.53,-48.32 391.45,-447.24 707.17,-1955.3 1963.58,-1786.82 1256.23,168.48 1719.85,-131.67 1647.03,-881.98 -72.16,-750.47 1963.41,-1888.17 1596.77,-2300.85 -367.28,-413.02 -3141.99,347.18 -3966.07,635.82 -824.72,288.47 -1623.69,-370.38 -2079.35,430.03 -455.17,800.58 -1978.01,1484.89 -2484.74,1347.53 -506.1,-137.5 -915.23,-208.53 -1038.95,551.19 -124.37,759.86 -636.63,1225.43 -771.07,1697.79 -134.91,472.22 -314.1,813.71 965.82,886.86z"/>
  <path class="fil2" d="M13011.26 27313.95c-60.48,-464.42 -861.7,-679.61 -986.57,-97.14 -124.71,582.48 168,1353.71 -930.96,2031.52 -1098.45,677.65 580.53,1478.24 992.58,2291.46 412.04,813.39 339.22,1706.39 681.88,2411.78 342.14,705.22 262.05,2076.12 856.04,1763.3 593.97,-312.8 401.99,-1059.2 744.13,-1878.28 341.99,-818.9 1485.86,-1010.72 718.2,-1886.71 -767,-875.81 -1671.7,-1380.29 -927.7,-2483.77 328.69,-486.8 -957.87,-707.33 -1147.6,-2152.17z"/>
  <path class="fil3" d="M13240.23 35601.86c0,0 592.84,-554.92 289.93,-1747.75 -302.91,-1192.67 -876.14,-1227.7 936.8,-1424.08 1812.77,-196.38 1096.02,-3080.19 2521.56,-2912.04 1425.36,168.16 3907.2,-3215.91 4741.51,-2379.82 833.48,836.25 -1159.6,2222.22 -638.9,3032.02 520.68,810.15 366.79,1553 -1317.87,1604.88 -1684.17,52.05 77.19,3136.8 -2166.1,3098.04 -2243.96,-38.75 -2591.63,2786.37 -4366.92,728.74z"/>
  <path class="fil4" d="M21680.08 34249.14c0,0 746.9,-328.38 959.16,-1043.99 211.61,-715.28 347.02,-1700.23 925.93,-1954.01 579.55,-253.76 1795.58,-930.78 1831.41,-1778.22 35.18,-847.43 -1795.58,-1852.82 -1373.97,-2063.78 421.62,-210.98 1182.47,-773.34 433.94,-1231.92 -748.04,-458.74 -1145.49,-539.17 -1343.65,-1159.92 -198.31,-620.9 -920.56,-938.89 -1079.49,5.67 -159.07,944.57 -606.3,1160.25 -508.84,1948.17 96.81,787.94 549.71,1528.68 -713.33,1704.45 -1263.06,175.62 -803.35,1029.21 -522.32,1651.26 281.5,622.36 353.17,3076.79 437.17,3503.43 84.65,426.64 437.83,706.21 953.99,418.86z"/>
  <path class="fil5" d="M21361.6 34677.39c0,0 1715.31,-647.5 2249.45,-531.08 534.65,116.28 1526.72,398.75 1918.18,-48.31 391.29,-447.4 707.17,-1955.47 1963.41,-1786.99 1256.41,168.65 1719.37,-131.52 1647.05,-881.98 -72.16,-750.29 1963.56,-1888.01 1596.28,-2300.85 -366.81,-412.86 -3141.49,347.18 -3966.06,635.82 -824.26,288.47 -1623.69,-370.2 -2078.88,430.21 -455.17,800.41 -1978.01,1484.71 -2484.58,1347.37 -506.75,-137.51 -915.39,-208.55 -1039.76,551.33 -123.56,759.72 -635.98,1225.43 -770.91,1697.64 -134.91,472.2 -313.45,813.87 965.82,886.84z"/>
  <path class="fil6" d="M20090.12 25923.6c-60.97,-464.58 -862.19,-679.61 -986.41,-97.13 -124.87,582.31 167.35,1353.53 -931.12,2031.35 -1098.45,677.67 580.53,1478.24 992.57,2291.63 412.05,813.22 339.4,1706.23 681.4,2411.61 342.64,705.4 262.7,2076.12 856.67,1763.32 593.51,-312.64 401.36,-1059.22 743.99,-1878.12 341.99,-818.9 1485.86,-1010.9 718.36,-1886.72 -767.65,-875.97 -1671.86,-1380.45 -927.7,-2483.77 328.04,-486.96 -958.52,-707.33 -1147.76,-2152.17z"/>
  <path class="fil7" d="M20319.08 34211.35c0,0 592.86,-554.92 290.11,-1747.59 -303.56,-1192.83 -876.79,-1227.7 936.62,-1424.08 1812.77,-196.54 1096.2,-3080.35 2521.56,-2912.19 1424.88,168.14 3907.37,-3215.92 4741.51,-2379.68 833.66,836.09 -1159.42,2222.06 -638.74,3032.04 520.7,809.98 366,1552.83 -1318.01,1604.71 -1684.01,52.05 76.7,3136.8 -2166.59,3098.04 -2243.47,-38.75 -2591.61,2786.53 -4366.45,728.74z"/>
  <path class="fil8" d="M2.78 34305.24c106.38,-3027.17 7996.5,-3680.82 16928.66,-2611.07 8932.65,1069.76 13886.91,-763.77 14582.07,2451.83 694.86,3215.77 -7176.3,5287.17 -14767.42,3653.59 -7591.27,-1633.59 -16930.28,1833.19 -16743.31,-3494.35z"/>
  <path class="fil9" d="M13404.17 8008.2l-1304.4 -2241.18c0,0 680.26,-261.08 904.19,-338.27 223.94,-77.35 760.21,-853.75 1342.03,-1226.71 0,0 -2221.07,-366.97 -2483.12,-478.53l231.88 -1397c0,0 1787.63,575.5 2763.99,494.26 975.87,-80.75 1850.38,210.8 1787.63,951.38 -62.1,740.42 -2027.79,2633.13 -2438.7,3042.42 0,0 -515.02,509.02 -803.49,1193.64z"/>
  <path class="fil10" d="M16762.31 3262.81c0,110.11 -7.79,218.75 -23.52,325.61 -36.33,248.43 -114.31,486.64 -227.83,709.78 -66.64,130.04 -144.97,255.4 -234.64,374.09l-0.49 0c-575.01,764.42 -1606.82,1274.9 -2784.26,1277.01 -1193.64,2.09 -2239.4,-519.24 -2812.79,-1299.54 -134.91,-183.08 -243.56,-380.26 -321.4,-588.15 -74.91,-198.65 -122.42,-406.86 -139.29,-621.87 -4.05,-54.82 -6.16,-110.11 -6.16,-165.73 0,-90.81 5.03,-180.97 16.22,-269.35 15.08,-128.42 41.5,-253.78 78.32,-376.2 53.18,-177.57 128.26,-347.83 222.32,-509.51 525.06,-903.71 1649.95,-1528.66 2953.86,-1530.93 1274.74,-2.11 2380.49,592.19 2922.42,1461.37 72.32,114.65 134.44,234.48 185.35,358.2 83.35,201.57 137.83,414.15 160.05,634.2 7.3,72.81 11.35,146.43 11.84,221.02z"/>
  <path class="fil11" d="M16590.42 2407.58c-185.84,14.92 -405.4,6.81 -601.29,-37.29 -488.26,-109.14 -646.04,-132.98 -1244.08,-135.72 -598.37,-2.76 -913.6,-89.19 -1259.64,2.11 -346.52,91.29 -535.28,150.15 -1023.39,184.52 -488.24,34.87 -803.49,-142.69 -1323.05,2.27 -368.43,103.14 -682.35,173.19 -832.52,204.98 53.18,-177.57 128.26,-347.83 222.32,-509.51 315.72,-142.69 842.56,-350.59 1097.8,-276.47 377.99,109.46 677.02,-67.29 1180.83,-121.45 503.34,-54.66 1149.38,-105.89 1432.68,-2.43 283.93,102.97 1039.11,-24.01 1448.88,148.21 188.76,79.62 464.09,133.94 716.09,182.59 72.32,114.65 134.44,234.48 185.35,358.2z"/>
  <path class="fil11" d="M16762.31 3262.81c0,110.11 -7.79,218.75 -23.52,325.61 -227.83,-7.13 -459.71,-11.51 -637.76,-5.67 -487.61,16.54 -833.5,111.57 -1069.76,112.04 -236.27,0.33 -866.75,-124.69 -1118.73,-139.94 -251.83,-15.08 -960.14,17.19 -1243.92,17.68l-1039.11 1.78c-409.29,0.65 -897.55,33.25 -897.55,33.25 0,0 -278.25,-88.86 -513.88,-167.83 -4.05,-54.82 -6.16,-110.11 -6.16,-165.73 0,-90.81 5.03,-180.97 16.22,-269.35 255.24,0 686.89,16.38 1101.21,3.41 535.28,-16.54 834.31,14.43 1369.42,-2.44 535.78,-16.54 1118.08,-159.23 1606.34,-2.59 488.75,156.97 772.53,275.01 1055.81,262.21 207.25,-9.4 901.44,-196.54 1389.54,-223.45 7.3,72.81 11.35,146.43 11.84,221.02z"/>
  <path class="fil11" d="M16510.96 4298.19c-66.64,130.04 -144.97,255.4 -234.64,374.09l-0.49 0c-675.88,123.56 -1006.67,218.75 -1368.94,360.97 -361.6,142.37 -1045.75,206.76 -1152.78,206.91 -106.38,0.16 -1350.29,-44.91 -1350.29,-44.91 0,0 -346.68,-157.13 -693.72,-234.97 -245.83,-55.78 -706.52,-166.54 -1031.32,-310.53 -134.91,-183.08 -243.56,-380.26 -321.4,-588.15 560.58,200.76 1801.75,532.21 2014.02,519.56 267.55,-16.54 944.4,61.29 1527.2,60.16 582.8,-0.81 960.79,-64.39 1259.64,-143.67 299.03,-79.46 173.67,-273.89 755.34,-222.01 205.93,18.49 414.31,23.84 597.38,22.55z"/>
  <path class="fil12" d="M9984.59 3298.8c176.9,460.54 37.45,942.62 -311.83,1076.57 -348.81,133.94 -775.45,-130.69 -952.37,-591.38 -176.9,-460.54 -36.96,-942.62 312.48,-1076.73 348.81,-133.94 775.45,130.85 951.72,591.54z"/>
  <path class="fil13" d="M12192.04 35005.43c330.48,98.27 430.03,658.53 710.57,822.96 280.54,164.27 1648.83,277.46 1697.47,-151.29 48.66,-428.59 -575.5,-811.61 -856.02,-1025.5 -280.54,-213.72 -996.63,-976.52 -1125.38,-1256.41 0,0 -74.92,166.54 -336.48,145.62 -338.59,-26.92 -417.56,-104.43 -417.56,-104.43 -53.18,337.61 -102.49,567.39 -135.56,696.14 -114.15,445.28 133.29,774.46 462.96,872.89z"/>
  <path class="fil13" d="M7292.26 35119.27c329.67,98.44 429.4,658.69 709.76,822.96 280.54,164.43 1649.48,277.44 1698.12,-151.29 48.82,-428.59 -575.5,-811.61 -856.02,-1025.34 -280.54,-213.88 -996.47,-976.68 -1125.22,-1256.57 0,0 -75.56,166.54 -337.13,145.78 -338.1,-26.92 -417.07,-104.43 -417.07,-104.43 -53.18,337.29 -102.49,567.23 -135.56,695.98 -114.8,445.28 133.29,774.46 463.12,872.89z"/>
  <path class="fil14" d="M8295.54 13619.85c0,0 -932.26,1216.03 -1183.1,2657.12 -250.7,1441.1 -234.01,6215.7 -244.05,6927.89 -9.57,712.05 -161.84,2356.81 -139.94,3886.45 19.62,1347.69 -47.02,6845.5 -47.02,6845.5l1537.9 -26.42c0,0 734.58,-5677.16 816.31,-6240.34 81.73,-563.17 349.44,-2654.2 382.36,-2886.1 32.44,-231.88 1767.04,-6502.69 1764.62,-7541.33 -1.62,-1038.78 -638.09,-5321.21 -2887.06,-3622.77z"/>
  <path class="fil14" d="M12956.94 14142.17c59.85,331.11 1144.84,6073.15 1227.7,6814.05 92.43,826.52 261.57,1822.81 226.21,2165.45 -81.73,795.24 -149.99,1576.67 -149.99,1576.67l-1133.81 9081.19 -1529.96 -26.28c0,0 -224.59,-5158.73 -195.57,-6254.28 29.84,-1095.69 454.7,-3001.71 337.78,-3479.91 -117.57,-478.2 -1840.82,-5900.45 -1840.82,-5900.45 0,0 -1473.7,-6151.14 3058.46,-3976.44z"/>
  <path class="fil9" d="M12882.5 13555.3c57.58,393.25 315.07,1876.99 315.07,1876.99 -2595.99,839.97 -5688.17,-448.2 -5688.17,-448.2 51.56,-285.08 769.27,-2289.19 872.24,-2496.59 103.14,-207.57 257.68,-792.14 101.36,-1513.27 -41.36,-190.7 -172.38,-600.8 -399.09,-1134.62 -99.71,-233.83 -170.75,-404.42 -276.63,-661.77 0,-0.32 0,-0.48 0,-0.48 -449.01,-1094.74 -890.74,-2277.35 -808.52,-2492.21 146.1,-380.26 862.84,-553.93 1208.24,-615.22 344.91,-60.97 1588.33,-529.46 1588.33,-529.46l1325.16 -2.27c0,0 1568.24,252.16 1719.37,396.64 305.18,291.41 564.31,1836.44 564.31,1836.44 381.88,1070.25 -113.52,2233.25 -197.5,2505.83 -157.46,513.4 -262.05,1174.03 -300.64,1510.82 -38.1,336.81 -53.2,1566.78 -23.52,1767.36z"/>
  <path class="fil15" d="M10226.53 38.29c474.63,-52.55 1624.17,273.71 1773.52,2026.65 149.99,1752.94 -272.11,2634.59 -659.99,2825.12 -388.53,190.85 -1468.5,-109.63 -1953.36,-955.27 -485.5,-845.5 -1084.5,-2813.62 -403.12,-3367.39 681.38,-553.93 1242.95,-529.11 1242.95,-529.11z"/>
  <path class="fil12" d="M11470.43 1757c0,0 418.86,297.41 559.95,692.26 0,0 311.18,-2216.53 -1578.94,-2395.41 -1438.83,-136.2 -1915.75,1043.33 -1791.53,1800.94 124.37,757.59 484.37,1634.07 484.37,1634.07 0,0 135.4,-447.24 391.93,-460.04 256.38,-12.98 1889.47,-980.25 1934.22,-1271.82z"/>
  <path class="fil15" d="M10548.4 6480.51c-811.76,1.46 -996.63,-849.7 -996.63,-849.7 0,0 175.3,-1149.22 -281.01,-1914.45 -455.66,-765.07 1844.71,1228.84 1844.71,1228.84 0,0 -1.63,187.12 10.2,411.07 12.82,239.18 48.66,460.69 111.41,601.11 0,0 123.07,521.83 -688.68,523.13z"/>
  <path class="fil15" d="M9720.9 2583.69c-86.75,-84 -492.62,-222.82 -500.58,294.31 -7.78,517.29 580.04,897.22 631.6,534.47 50.93,-362.92 15.09,-687.56 -131.02,-828.79z"/>
  <path class="fil16" d="M11125.68 5356.27c-28.04,-7.78 -58.86,-17.35 -92.43,-28.53 -756.47,-253.13 -1119.21,-803.17 -1119.21,-803.17 692.08,478.69 1201.43,420.64 1201.43,420.64 0,0 -1.63,187.12 10.2,411.07z"/>
  <path class="fil14" d="M8145.38 9986.7c0,0 1234.03,-707.33 1737.37,-1539.53l2924.68 -202.87 627.08 1290.78c0,0 -452.92,2034.12 -236.93,5897.22 105.25,1882.01 -5688.17,-448.2 -5688.17,-448.2 0,0 896.41,-2828.04 635.98,-4997.4z"/>
  <path class="fil14" d="M9882.75 8447.17c0,0 -582.8,-1805.15 -1371.7,-2457.84 0,0 208.22,-211.28 415.94,-136.21 0,0 606.3,330.32 1599.04,2549.46 992.57,2218.98 -643.28,44.6 -643.28,44.6z"/>
  <path class="fil14" d="M12807.42 8244.3c0,0 -217.77,-1690.01 -527.33,-2487.18l-247.62 -58.21c0,0 374.11,1935.2 336,2575.72 -37.47,640.52 438.95,-30.33 438.95,-30.33z"/>
  <path class="fil17" d="M8911.91 2798.54c0,0 1520.07,-650.9 3136.3,-530.57 0,0 256.52,-2745.03 -2338,-2195.14 0,0 -1834.02,367.12 -798.3,2725.71z"/>
  <path class="fil17" d="M10139.11 2425.42c0,0 1337.49,-697.6 2690.69,-561.23 1352.56,136.37 -781.59,403.78 -781.59,403.78 0,0 -1169.49,33.23 -1909.1,157.45z"/>
  <path class="fil15" d="M14099.01 647.03c0,0 497.67,-320.42 1105.12,-53.18 689.81,303.72 778.84,692.57 679.77,812.09 -99.73,119.66 -1810.66,-389.34 -1784.88,-758.91z"/>
  <path class="fil15" d="M6856.55 15058.35c0,0 128.26,79.3 251.51,65.69 212.74,-23.52 428.26,-265.3 675.7,-91.3 248.11,174 -115.3,1059.54 -271.62,1174.99 -156.15,115.63 -562.52,-21.39 -1032.29,-443.82 -469.77,-422.42 376.69,-705.55 376.69,-705.55z"/>
  <path class="fil15" d="M7691.34 14985.38c0,0 448.54,94.38 935.01,256.86 425.99,142.7 893.66,383.99 898.52,475.45 5.68,102.16 -448.86,-82.38 -881.65,-197.03 -398.1,-105.55 -338.27,-21.88 -338.27,-21.88 0,0 -15.57,-24.65 395.34,169.94 441.73,209.34 872.25,466.04 864.95,574.85 -3.24,53.04 -34.22,72 -207.72,20.6 92.92,49.63 91.79,80.76 73.95,119.18 -94.06,199.3 -793.28,-12.97 -1071.06,-97.46 212.76,66 361.78,136.05 219.56,222.48 -162.48,98.92 -1137.22,-243.4 -1498.84,-334.37 -394.2,-99.24 610.21,-1188.63 610.21,-1188.63z"/>
  <path class="fil9" d="M8674.51 6329.87c0,0 -1317.38,-340.37 -1917.03,400.69 -780.3,963.54 -945.54,1276.51 -1173.37,1768.66 -215.02,465.06 -924.96,1697.31 -997.77,1824.76 -72.64,127.45 -1269.69,1548.12 -1116.94,2216.22 153.56,671.5 2955,3353.42 2896.3,3473.59 -58.86,119.99 794.43,-909.87 794.43,-909.87 0,0 -952.84,-1342.99 -1103.01,-1638.61 -244.05,-479.99 -875,-1107.7 -581.66,-1524.45 344.91,-489.4 1439.96,-2160.59 1647.19,-2391.34 207.07,-230.59 2255.13,-2635.4 1551.86,-3219.65z"/>
  <path class="fil18" d="M19893.09 34693.44c0,0 -391.45,438.32 -788.89,530.59 -398.1,92.27 -675.72,209.68 -678.64,460.85 -2.76,251.02 1145.65,414.64 1600.82,160.7 678.48,-378.96 747.88,-265.29 822.96,-454.2 74.91,-188.92 -91.79,-693.56 -86.76,-753.55 5.52,-74.27 -869.49,55.61 -869.49,55.61z"/>
  <path class="fil18" d="M23891.11 34800.8c0,0 -287.34,426.64 -672.96,525.71 -379.61,97.46 -625.93,282.31 -644.42,526.36 -18,244.21 897.38,562.04 1539.53,132.33 422.26,-282.33 580.04,-266.6 664.69,-445.62 84.48,-179.03 -46.06,-680.42 -37.63,-738.47 10.71,-71.83 -849.21,-0.32 -849.21,-0.32z"/>
  <path class="fil19" d="M20709.4 34359.4c0,0 -547.61,209.83 -767.65,62.91l-67.15 290.76c0,0 176.92,102.16 480.33,63.07 303.55,-38.91 407.66,-138.31 407.66,-138.31l-53.18 -278.43z"/>
  <path class="fil19" d="M24689.9 34458.96c0,0 -628.7,234.81 -796.05,50.77l-28.04 326.1c0,0 62.75,101.01 308.58,88.21 246.32,-12.81 565.93,-122.91 565.93,-122.91l-50.42 -342.16z"/>
  <path class="fil15" d="M21034.69 22203.21c0,0 -704.43,2896.3 -870.64,3971.25 -194.92,1256.9 -228.48,1949.47 -282.16,2599.88 -67.13,818.26 102.49,5470.58 54.82,5709.76 -48.17,239.18 772.69,-124.69 772.69,-124.69 0,0 707.65,-5099.73 911.98,-5971.16 189.73,-811.44 893.49,-4304.98 1068.14,-4083.8 174.79,221.18 397.61,4074.72 527.98,4714.27 130.53,639.55 685.27,5571.43 685.27,5571.43 0,0 546.96,122.42 783.87,-78.34 0,0 290.6,-4187.4 205.95,-5386.56 -31.95,-457.12 526.36,-5481.59 -203.68,-7502.73 -386.42,-1068.3 -3654.23,580.69 -3654.23,580.69z"/>
  <path class="fil20" d="M20959.61 21584.24c0,0 -629.35,3515.27 -795.55,4590.22 -194.92,1256.9 -228.48,1949.47 -282.16,2599.88 -67.13,818.26 -235.77,5449.17 -236.26,5693.06 -1.14,270.79 1277.48,95.82 1277.48,95.82 0,0 493.93,-5303.55 698.25,-6174.98 189.73,-811.44 893.49,-4304.98 1068.14,-4083.8 174.79,221.18 397.61,4074.72 527.98,4714.27 130.53,639.55 418.84,5751.75 418.84,5751.75 0,0 1031.81,-4.87 1268.09,-205.79 0,0 72.81,-4240.26 -11.84,-5439.43 -31.95,-457.12 526.36,-5481.59 -203.68,-7502.73 -386.42,-1068.3 -3729.31,-38.28 -3729.31,-38.28z"/>
  <path class="fil15" d="M17512.44 16542.92c0,0 -368.25,-383.03 -414.15,-437.35 -46.06,-54.16 -236.91,-108.15 -461.34,-151.13 -224.58,-42.8 -546.95,-0.32 -574.51,27.73 -27.9,28.22 -68.92,43.79 -85.62,143.67 -16.87,99.89 24,193.3 24,193.3 0,0 -78.32,113.34 -19.46,224.91 0,0 -68.92,110.11 18.96,225.72 0,0 -64.37,109.14 6.17,187.78 0,0 171.24,65.85 256.37,95.03 72.32,24.98 473.66,85.62 875.65,108.15 0,0 516.8,102.65 373.93,-617.81z"/>
  <path class="fil21" d="M16982.35 17211.5c0,0 1632.61,595.43 1926.44,687.38 225.72,70.54 513.4,279.08 1037.97,-37.95 244.05,-147.4 567.23,-447.71 867.22,-757.77l0 -0.16c69.57,-71.35 137.83,-143.51 203.34,-214.06 0,0 0,0 -0.63,-0.16 341.02,-368.09 615.38,-702.14 646.03,-755.16 62.27,-107.35 1294.51,-999.06 436.21,-1596.62 -193.12,-134.1 -934.35,-455.98 -1355.48,1.78 -370.04,402.17 -539.65,1155.87 -629.33,1326.95 -105.08,201.57 -563.66,1055 -563.66,1055 -25.79,64.05 -647.17,-121.61 -731.82,-146.75 -246.32,-73.78 -1475.16,-453.39 -1475.16,-453.39l-361.12 890.9z"/>
  <path class="fil22" d="M23414.69 12697.98c-1.3,0.97 -1.3,0.97 -1.3,0.97 -158.27,252.64 -343.13,488.75 -538.52,684.15 -674.59,675.88 -2035.74,527.17 -1802.72,-1527.53 43.63,-389.18 131.02,-698.57 240.8,-944.57 390.17,-876.62 1061.98,-947.81 1061.98,-947.81 486.47,32.76 1316.73,256.21 1520.55,919.61 145.13,471.22 -90.63,1193.8 -480.79,1815.19z"/>
  <path class="fil23" d="M23414.69 12697.98c-1.3,0.97 -1.3,0.97 -1.3,0.97 0,0 -71.51,10.06 -260.27,-527.49 -37.45,-107.84 -85.13,-39.9 -101.35,-87.57l-380.74 -205.14c0,0 476.58,-612.46 -17.84,-859.59 -504.48,-251.84 -1340.25,-108.17 -1340.25,-108.17 390.17,-876.62 1061.98,-947.81 1061.98,-947.81 486.47,32.76 1316.73,256.21 1520.55,919.61 145.13,471.22 -90.63,1193.8 -480.79,1815.19z"/>
  <path class="fil22" d="M22971.83 11761.68c29.5,-138.32 302.26,-257.67 418.69,39.09 117.07,296.9 -270.97,612.63 -373.44,547.6 -102.49,-65.02 -94.54,-357.71 -45.25,-586.69z"/>
  <path class="fil14" d="M23858.02 11893.67c0,0 -1175.15,-1046.73 -2711.94,-914.07 0,0 319.13,-1861.9 1985.31,-1331.33 1565.8,498.48 807.87,2040.77 726.63,2245.4z"/>
  <path class="fil14" d="M23082.59 11388.87c0,0 -1304.41,72 -2099.48,-199.12 -795.06,-270.97 210.01,-401.83 210.01,-401.83 0,0 705.87,-130.06 1889.47,600.95z"/>
  <path class="fil21" d="M22112.88 14051.83c0,0 -983,203.84 -1110.78,317.02 -138.32,120.49 -412.53,1337.81 -426.64,1666.02 -13.95,328.21 72.81,1680.44 212.26,2190.76 139.45,510.15 132.15,2947.7 45.9,3655.21 0,0 2036.22,485.01 4165.36,204.31 0,0 -336.97,-2552.05 -252.97,-3251.6 107.5,-896.41 458.42,-2850.74 458.42,-2850.74 0,0 -28.55,-1354.66 -218.26,-1514.71 -189.73,-160.22 -1658.89,-418.37 -1658.89,-418.37l-1214.4 2.09z"/>
  <path class="fil15" d="M21893.47 14280c0,0 301.79,226.37 1310.57,-220.21 0,0 -147.74,-500.75 49.29,-1147.59 197.19,-646.85 -1254.14,627.38 -1254.14,627.38 16.22,11.36 19.63,76.05 10.06,166.05 -0.49,6 -1.14,11.84 -1.62,17.84 -7.3,65.04 -20.6,141.74 -40.21,220.37 -2.27,9.73 -4.54,19.3 -7.3,29.2 -56.59,216.31 -67.13,118.38 -66.65,306.96z"/>
  <path class="fil16" d="M21967.43 13943.84l0 0c723.22,91.62 1116.78,-688.19 1128.13,-711.22 -493.94,722.58 -1087.91,490.85 -1087.91,490.85l0 0c-7.3,65.04 -20.6,141.74 -40.21,220.37z"/>
  <path class="fil15" d="M21897.38 14098.87c0,0 -230.59,344.57 91.29,402.63 322.37,58.05 980.25,-14.58 1338.61,-451.76 0,0 -977,-83.19 -1429.9,49.13z"/>
  <path class="fil24" d="M20643.24 17275.87c0,0 -72.16,-949.76 -69.4,-1109.64 0,0 -142.21,584.08 -162.32,1330.17l231.72 -220.53z"/>
  <path class="fil15" d="M17080.95 16099.89c0,0 -384.15,102.33 -569.5,250.38 -42.01,33.41 -76.7,73.62 -61.47,125.18 15.57,51.56 109.63,94.86 278.27,59.02 168.97,-35.83 402.96,-5.03 402.96,-5.03 0,0 162.97,-87.56 -50.26,-429.56z"/>
  <path class="fil25" d="M23937.48 19235.23c-390.8,-406.53 -914.25,-612.14 -1555.26,-611.02 -640.53,1.14 -1162.84,208.22 -1552.51,615.56 -737.98,771.72 -810.63,2056.66 -815.17,2448.43l4746.06 -8.11c-5.68,-391.12 -81.89,-1674.28 -823.12,-2444.86zm-4165.36 2580.42c-2.76,-71.02 -65.51,-1753.25 880.68,-2743.39 437.17,-457.77 1018.83,-690.64 1728.92,-691.76 710.41,-1.14 1292.56,229.45 1731.53,685.76 949.61,987.22 893.01,2669.45 890.25,2740.47l-5.03 116.76 -5221.32 8.92 -5.03 -116.76z"/>
  <path class="fil15" d="M18963.12 20858.42c0,0 123.25,1.95 176.92,-23.34 0,0 95.19,-53.51 165.24,-87.73 21.73,-10.7 41.34,-19.46 54.8,-23.84 55.47,-18.49 182.43,-42.15 302.91,-123.72 120.33,-81.4 549.23,-566.09 549.23,-566.09l-196.54 -306.17 -142.86 -312.64c0,0 -888.46,46.55 -1009.44,109.46 -11.68,6.33 -23.34,12.82 -33.57,19.79 -97.3,63.08 -142.7,150.97 -190.22,189.89 -17.35,14.43 -179.17,169.29 -174.14,236.1 6.16,92.76 48.64,154.21 104.09,185.51 0,0 20.76,180.97 108.65,266.27 0,0 13.95,167.67 153.4,242.59 0,0 33.57,168.48 131.52,193.93z"/>
  <path class="fil21" d="M24670.92 14342.1c-244.7,-37.95 -988.68,-56.75 -1240.66,1039.61 -114.65,498.96 -216.64,1066.03 -228.97,1268.88 -12.81,203.03 -394.21,1661.64 -531.24,1769.16 -173.67,136.21 -1081.11,423.88 -1165.74,462.31 -291.57,132.31 -1685.15,491.66 -1685.15,491.66l104.76 1059.54c0,0 3061.87,-744.13 3394.45,-924.29 218.91,-118.87 539.01,-326.59 816.79,-909.55 305.67,-641.98 989.33,-2014.81 998.74,-2145.36 9.57,-130.37 625.44,-1942.65 -462.96,-2111.95z"/>
  <path class="fil25" d="M24076.28 19394.78c0,0 -698.08,-894.79 -1875.52,-764.24l-0.49 -244.38c0,0 1139.33,-158.91 1978.01,750.48l-102 258.14z"/>
  <path class="fil26" d="M16904.03 15157.27c0,0 475.77,18.49 367.77,475.77 -107.5,457.46 -964.03,2374.81 -1046.89,2402.06 -61.62,-61.47 29.03,-2159.31 137.02,-2616.75 108.15,-457.28 542.09,-261.08 542.09,-261.08z"/>
  <path class="fil27" d="M16904.03 15157.27c0,0 -130.53,-131.5 -90.16,-207.39 40.21,-75.89 104.6,49.94 114.65,-149.04 10.22,-198.81 -121.45,-259.94 34.87,-303.55 156.16,-43.63 268.7,-414.48 301.12,-296.11 32.44,118.22 -104.74,272.09 -122.1,368.58 -17.84,96.32 70.54,56.75 7.95,198 -62.75,141.09 -246.32,389.5 -246.32,389.5z"/>
  <polygon class="fil28" points="16844.04,15485.16 17075.76,15539.8 17079.16,15527.15 16846.79,15472.51 "/>
  <polygon class="fil28" points="16410.1,15674.55 16642.47,15729.37 16645.24,15716.56 16413.5,15661.91 "/>
  <polygon class="fil28" points="16702.96,16082.39 16935.33,16137.03 16938.09,16124.38 16706.37,16069.74 "/>
  <polygon class="fil28" points="16437.02,16314.76 16668.9,16369.4 16672.15,16356.75 16440.42,16301.95 "/>
  <polygon class="fil28" points="16487.45,16755.66 16719.17,16810.48 16721.94,16797.67 16490.2,16743.01 "/>
  <path class="fil29" d="M16121.77 15991.26c0,0 566.1,122.74 557.66,216.31 -8.43,93.73 -68.26,123.07 -68.26,123.07l209.99 156.32c0,0 81.08,182.11 -141.24,216.82 0,0 93.57,162.32 -124.87,170.25 0,0 13.63,134.44 -86.59,156 -100.85,21.73 -461.98,-72.49 -461.98,-72.49 0,0 -81.26,-47.02 -20.11,-180.79 0,0 -93.09,-109.3 -21.25,-229.29 0,0 -63.89,-95.03 14.43,-223.78 0,0 -94.05,-228.97 82.87,-341.51 0,0 35.34,3.73 59.34,9.09z"/>
  <path class="fil30" d="M23940.88 20907.24c1029.07,-1.78 1067.17,972.14 1067.17,972.14l-1966.33 3.4c0,0 -130.37,-973.76 899.15,-975.54z"/>
  <path class="fil31" d="M22839.02 21396.15c477.56,-46.71 533.67,485.98 533.67,485.98l-1029.05 1.79c0,0 17.35,-441.08 495.39,-487.77z"/>
  <path class="fil32" d="M22324.01 21396.96c478.2,-46.71 533.98,486.15 533.98,486.15l-1028.89 1.78c0,0 17.35,-441.24 494.91,-487.93z"/>
  <path class="fil33" d="M19842.67 21024.47c-350.43,-863.16 1045.75,-1012.51 1138.67,-443.01 93.08,569.5 1049.81,1303.11 1049.81,1303.11l-1671.68 333.56c0,0 -166.38,-330.48 -516.8,-1193.66z"/>
  <path class="fil34" d="M20511.72 20217.59c550.38,-26.12 837.55,564.47 837.55,564.47 0,0 -818.57,-369.39 -873.38,-190.22 -54.82,179.35 -173.02,698.25 -173.02,698.25 0,0 -139.47,-801.38 -177.41,-675.7 -37.61,125.66 -448.52,337.29 -448.52,337.29 -27.9,-480.96 447.89,-673.77 447.89,-673.77 0,0 -163.95,-34.06 386.9,-60.32z"/>
  <path class="fil35" d="M21508.35 24728.34l1843.57 -3.08c2256.77,-3.73 1890.12,-3221.92 1890.12,-3221.92l-5634.99 9.55c0,0 -355.62,3219.34 1901.31,3215.45z"/>
  <path class="fil36" d="M21508.35 24728.34l1843.57 -3.08c2256.77,-3.73 1890.12,-3221.92 1890.12,-3221.92l-2040.26 3.4c0,0 181.44,3218.53 -1693.42,3221.61z"/>
 </g>
</svg>
