<?xml version="1.0" encoding="UTF-8"?>
<!DOCTYPE svg PUBLIC "-//W3C//DTD SVG 1.1//EN" "http://www.w3.org/Graphics/SVG/1.1/DTD/svg11.dtd">
<!-- Creator: CorelDRAW 2020 (64 Bit) -->
<svg xmlns="http://www.w3.org/2000/svg" xml:space="preserve" width="177.214mm" height="211.414mm" version="1.1" style="shape-rendering:geometricPrecision; text-rendering:geometricPrecision; image-rendering:optimizeQuality; fill-rule:evenodd; clip-rule:evenodd"
viewBox="0 0 162519.5 193883.22"
 xmlns:xlink="http://www.w3.org/1999/xlink"
 xmlns:xodm="http://www.corel.com/coreldraw/odm/2003">
 <defs>
  <style type="text/css">
   <![CDATA[
    .fil11 {fill:#212542;fill-rule:nonzero}
    .fil9 {fill:#292F54;fill-rule:nonzero}
    .fil15 {fill:#2E2626;fill-rule:nonzero}
    .fil16 {fill:#2F6B8C;fill-rule:nonzero}
    .fil19 {fill:#333333;fill-rule:nonzero}
    .fil17 {fill:#538742;fill-rule:nonzero}
    .fil13 {fill:#54403D;fill-rule:nonzero}
    .fil5 {fill:#96705D;fill-rule:nonzero}
    .fil6 {fill:#969493;fill-rule:nonzero}
    .fil18 {fill:#A77860;fill-rule:nonzero}
    .fil8 {fill:#BA3A3A;fill-rule:nonzero}
    .fil20 {fill:#BF7C58;fill-rule:nonzero}
    .fil7 {fill:#C7C4C3;fill-rule:nonzero}
    .fil3 {fill:#D6D3D2;fill-rule:nonzero}
    .fil2 {fill:#EE6B6B;fill-rule:nonzero}
    .fil0 {fill:#EEA886;fill-rule:nonzero}
    .fil1 {fill:#EEA987;fill-rule:nonzero}
    .fil4 {fill:#EEEBE9;fill-rule:nonzero}
    .fil21 {fill:#F7A172;fill-rule:nonzero}
    .fil14 {fill:#FCCCA2;fill-rule:nonzero}
    .fil12 {fill:url(#id0)}
    .fil10 {fill:url(#id1)}
   ]]>
  </style>
  <linearGradient id="id0" gradientUnits="userSpaceOnUse" x1="108410.22" y1="156215.51" x2="120801.42" y2="156196.43">
   <stop offset="0" style="stop-opacity:1; stop-color:#292F54"/>
   <stop offset="0.0901961" style="stop-opacity:1; stop-color:#292F54"/>
   <stop offset="1" style="stop-opacity:1; stop-color:#8B2F54"/>
  </linearGradient>
  <linearGradient id="id1" gradientUnits="userSpaceOnUse" x1="107811.74" y1="151397.73" x2="109289.89" y2="131204.03">
   <stop offset="0" style="stop-opacity:1; stop-color:#372954"/>
   <stop offset="0.0901961" style="stop-opacity:1; stop-color:#372954"/>
   <stop offset="1" style="stop-opacity:1; stop-color:#8B2F54"/>
  </linearGradient>
 </defs>
 <g id="Camada_x0020_4">
  <metadata id="CorelCorpID_0Corel-Layer"/>
  <path class="fil0" d="M81519.1 88601.42c0,0 5222.21,5910.94 5189.38,6558.49 -35.58,643.7 -423.51,870.49 -937.99,336.38 -514.39,-536.95 -5238.08,-5587.67 -5238.08,-5587.67 0,0 4820.16,7893.75 4927,8427.86 61.81,313.92 -659.65,789.97 -967.06,523.84 -304.56,-264.3 -5599.86,-7851.57 -5599.86,-7851.57 0,0 4483.87,7376.43 4419.22,7845.97 -58.14,410.39 -848.11,704.59 -1222.92,178 -375.73,-527.6 -4986.06,-7173.11 -4986.06,-7173.11 0,0 2873.02,5548.23 2546.91,5917.45 -200.47,225.88 -802.99,659.65 -1491.72,-792.72 -688.82,-1449.63 -2730.6,-4726.53 -2730.6,-4726.53l6091.79 -3656.39z"/>
  <path class="fil0" d="M74285 82620.24c0,0 1863.87,1849.75 3423.09,1468.33 1325.91,-323.27 3309.64,84.37 3921.61,209.92 818.03,165.9 3548.63,-129.31 3315.24,763.74 -232.39,890.12 -4473.51,672.77 -5376.83,779.61 -898.55,110.51 2110.29,2469.14 2264.91,3274.06 155.54,802.99 -4652.52,4882.07 -6499.43,3057.63 -1844.15,-1824.53 -2423.2,-4826.77 -2821.48,-5091.99 -397.28,-266.14 -1403.68,-1284.74 -1403.68,-1284.74l3176.58 -3176.58z"/>
  <path class="fil1" d="M145797.31 179638.15c0,0 48.7,498.52 -38.43,1511.44 -90.97,1009.24 -576.29,3584.22 -825.55,3791.39 -249.26,209.83 -4015.34,2487.85 -4474.43,2565.62 0,0 3267.46,-1006.4 3895.29,-1494.56 630.67,-485.41 -2601.29,3779.1 -2601.29,3779.1 0,0 3407.13,-3368.7 3833.57,-3513.97 427.27,-142.42 4273.86,721.56 4273.86,721.56 0,0 -4018.09,-1594.89 -3989.02,-1979.97 29.99,-385.17 877.09,-4791.18 1164.69,-5590.51 284.94,-799.33 -1238.7,209.92 -1238.7,209.92z"/>
  <path class="fil2" d="M130983.38 155590.52c0,0 -582.8,-873.33 -685.88,-1756.02 -104.09,-883.7 481.65,-369.22 730.82,-433.87 249.26,-67.5 -465.69,-799.33 155.63,-906.17 621.23,-103.08 850.77,117.2 960.46,-352.34 109.59,-469.45 313.92,-1216.23 773.1,-746.78 459.09,464.78 1592.05,1368.1 1592.05,1368.1l-3526.17 2827.08z"/>
  <path class="fil3" d="M142665.67 175238.65c0,0 2962.9,5684.24 3483.89,6237.97 521.08,552.91 1825.44,-2453.18 1825.44,-2453.18 0,0 -4704.06,-5376.83 -5309.33,-3784.78z"/>
  <path class="fil2" d="M131908.25 156774.92c0,0 899.56,1397.17 563.18,1837.55 -340.14,436.71 1717.6,536.95 824.64,-1232.19 -895.89,-1770.05 -1387.81,-605.36 -1387.81,-605.36z"/>
  <path class="fil4" d="M131012.45 154826.77c138.66,-849.86 1526.48,-2441.9 3781.94,-2021.15 2254.55,423.51 3542.03,1581.69 4882.07,4435.08 1341.87,2857.07 1982.82,4124.84 2399.81,4338.51 415.07,213.68 3371.46,1416.79 5658.83,80.61 2287.38,-1339.03 6267.04,-4435.08 7211.54,-5308.42 940.83,-870.58 3642.36,-5079.79 3995.62,-4665.64 356.1,414.24 1378.46,2516.92 1358.74,3516.81 -19.72,999.8 637.19,129.31 708.44,258.62 71.17,133.07 669.93,598.76 837.66,2135.51 164.98,1536.84 -611.87,3378.15 -187.36,3354.67 420.76,-25.31 1174.14,-342.99 717.8,873.33 -459.18,1217.24 -2519.76,3607.69 -1969.7,4319.81 546.3,714.95 969.81,119.95 1070.14,721.56 104,597.84 508.8,-88.04 -1105.81,2131.84 -1614.52,2219.88 -4688.01,5635.45 -5467.62,6622.13 -783.46,990.44 -4283.31,4953.23 -4441.69,5690.75 -159.3,737.42 -2262.07,-2412.93 -3646.03,-3315.33 -1388.73,-903.32 -5937.26,-3925.28 -8039.93,-5416.17 -2106.53,-1494.56 -4506.34,-4736.8 -4471.67,-7590.11 35.58,-2853.4 670.02,-6945.49 -1009.15,-7608.91 -1679.26,-663.41 -2543.24,-990.44 -2283.62,-2553.51z"/>
  <path class="fil5" d="M130983.38 155590.52c0,0 -877.09,1595.81 -809.6,2818.64 0,0 1061.7,-1391.48 1734.47,-1634.23 672.77,-245.5 -566.02,-1623.87 -924.87,-1184.41z"/>
  <path class="fil6" d="M133030.85 154578.52c58.05,329.78 371.97,552.81 701.84,498.52 333.63,-59.06 553.82,-372.98 498.52,-702.85 -55.3,-332.62 -372.06,-552.81 -701.84,-497.52 -329.87,54.29 -553.82,371.97 -498.52,701.84z"/>
  <path class="fil1" d="M149611.07 180831.91c0,0 48.7,498.52 -42.19,1507.77 -86.21,1012.91 -575.38,3587.98 -824.55,3795.05 -249.26,207.08 -4011.58,2485.1 -4474.52,2565.62 0,0 3271.31,-1009.15 3899.14,-1494.56 626.91,-485.41 -1300.69,4205.54 -1300.69,4205.54 0,0 2105.61,-3797.9 2532.88,-3940.32 424.52,-142.42 4273.95,718.71 4273.95,718.71 0,0 -4021.85,-1592.05 -3991.86,-1977.22 28.06,-385.08 879.85,-4791.18 1164.78,-5590.42 287.6,-799.33 -1236.96,209.83 -1236.96,209.83z"/>
  <path class="fil7" d="M144011.21 169443.9c0,0 2060.58,1679.26 3801.66,1666.15 1743.82,-9.45 4794.94,-1526.48 5723.49,-2128.08 927.72,-605.36 3315.33,-1472.09 4072.47,-1601.4 757.14,-130.32 -873.33,-2187.14 -1944.39,-2617.25 -1067.3,-427.27 -6350.4,-3229.03 -9398.68,-2320.12 -3047.27,908.92 -6036.49,4833.28 -2254.55,7000.7z"/>
  <path class="fil8" d="M89872.95 176866.37c-356.1,-952.11 993.29,-2756.83 1348.38,-3850.35 356.1,-1093.62 -29.07,-2171.18 -808.68,-2445.76 -782.45,-278.33 1061.7,1982.82 -387.92,1672.66 -1449.63,-311.07 -863.98,391.68 -805.84,1229.44 55.3,833.9 -947.34,307.31 -1423.4,336.38 -472.3,29.07 391.68,610.96 294.2,1206.88 -96.48,595.09 -1015.76,216.52 -1461.82,22.56 -446.89,-193.96 -52.46,1251.9 866.82,1921.83 922.03,666.26 2248.95,-259.53 2248.95,-259.53l129.31 165.9z"/>
  <path class="fil5" d="M89872.95 176866.37c0,0 -683.13,3409.88 9.35,5276.5 0,0 485.41,-3772.59 1712,-4665.54 1225.68,-889.29 -2022.16,-2258.31 -1721.36,-610.96z"/>
  <polygon class="fil1" points="114046.13,171657.27 115412.3,179338.26 110733.64,182815.73 115412.3,180382.17 117262.05,185105.86 116165.77,179922.99 121604.42,180622.08 116162.01,179072.13 115272.72,171476.42 "/>
  <path class="fil8" d="M91871.63 177477.33c0,0 728.16,-25.31 505.13,1258.42 -220.19,1281.89 200.47,3122.29 1203.12,1950.99 1003.65,-1174.14 1019.52,-3613.29 534.2,-4218.65 -485.41,-605.36 -374.81,860.22 -2242.44,1009.24z"/>
  <polygon class="fil1" points="101622.65,171476.42 99679.18,176688.27 95960.98,178114.51 99303.45,177183.04 96427.59,181754.03 99973.47,177183.04 102403.18,178674.85 100432.56,176610.5 103933.41,169987.46 "/>
  <path class="fil9" d="M92098.43 177454.77c-1015.76,158.38 -3293.78,-358.85 -2235.84,-2089.56 1057.94,-1731.72 4672.15,-8066.16 5002.02,-10741.46 329.87,-2679.06 986.68,-10320.71 6445.04,-13953.72 5457.44,-3632.91 10187.64,-9886.84 10740.55,-11841.5 556.57,-1950.08 44.94,-7693.28 2941.44,-9261.85 2898.24,-1565.82 9702.23,-572.53 9323.66,6846.08 -378.57,7414.95 -382.33,4570.99 -382.33,4570.99 0,0 210.84,-6635.34 -2687.5,-7467.4 -2902.92,-831.15 -5520.17,2015.55 -5520.17,2015.55 0,0 8777.45,-6036.49 8619.07,7962.17 0,0 -3598.34,-6965.12 -8612.47,-4056.51 0,0 8356.6,-4532.48 7042.89,8575.97 0,0 -624.07,-6635.34 -4082.74,-7243.45 0,0 -109.68,1339.94 226.79,2788.65 336.38,1449.63 2917.96,10142.7 1474.85,14662.07 -1443.02,4520.37 -4775.23,12278.21 -5163.15,13449.6 -387.92,1171.29 -6752.36,-1828.2 -9819.34,-1601.4 -3066.99,229.54 -9025.7,4810.81 -10640.31,5929.65 -1614.52,1119.75 -1523.63,1271.53 -2672.46,1456.14z"/>
  <path class="fil10" d="M92098.43 177454.77c-1015.76,158.38 -3293.78,-358.85 -2235.84,-2089.56 1057.94,-1731.72 4672.15,-8066.16 5002.02,-10741.46 329.87,-2679.06 986.68,-10320.71 6445.04,-13953.72 5457.44,-3632.91 10187.64,-9886.84 10740.55,-11841.5 556.57,-1950.08 44.94,-7693.28 2941.44,-9261.85 2898.24,-1565.82 9702.23,-572.53 9323.66,6846.08 -378.57,7414.95 -382.33,4570.99 -382.33,4570.99 0,0 210.84,-6635.34 -2687.5,-7467.4 -2902.92,-831.15 -5520.17,2015.55 -5520.17,2015.55 0,0 8777.45,-6036.49 8619.07,7962.17 0,0 -3598.34,-6965.12 -8612.47,-4056.51 0,0 8356.6,-4532.48 7042.89,8575.97 0,0 -624.07,-6635.34 -4082.74,-7243.45 0,0 -109.68,1339.94 226.79,2788.65 336.38,1449.63 2917.96,10142.7 1474.85,14662.07 -1443.02,4520.37 -4775.23,12278.21 -5163.15,13449.6 -387.92,1171.29 -6752.36,-1828.2 -9819.34,-1601.4 -3066.99,229.54 -9025.7,4810.81 -10640.31,5929.65 -1614.52,1119.75 -1523.63,1271.53 -2672.46,1456.14z"/>
  <path class="fil11" d="M93140.41 173753.44c2.84,313.92 -252.93,572.53 -569.69,572.53 -316.76,0 -572.53,-255.77 -572.53,-572.53 0,-313.92 255.77,-568.77 569.69,-572.53 316.76,0 572.53,255.77 572.53,572.53z"/>
  <path class="fil12" d="M108410.68 157470.25c0,0 1918.16,-3263.79 4762.11,-4690.86 2841.11,-1426.24 7557.37,-5846.28 7855.33,-4202.7 297.04,1643.59 -1983.73,14063.31 -3154.11,14901.97 -1168.54,837.66 -9289.09,-1576.18 -9463.33,-6008.42z"/>
  <path class="fil13" d="M78396.82 83914.33l-7499.23 3274.06c0,0 -13060.57,-14093.29 -15121.16,-18434.65 0,0 -3184.1,-6269.88 -6221.09,-11505.21l0 0c-650.3,-1118.84 -1294.09,-2189.89 -1895.69,-3144.75 0,0 -142.42,-281.08 -375.73,-740.27 0,-3.76 0,-3.76 0,-3.76 -1028.87,-2040.87 -3824.13,-7573.23 -3824.13,-7573.23 0,0 -8233.9,-10421.04 -1462.74,-14846.58 0,0 2099.93,249.26 4364.83,2669.52 2264.82,2415.77 5053.47,6838.65 5648.56,8126.14 595.92,1291.25 6195.78,12352.22 6463.75,12786.09 941.75,1510.52 4167.02,8078.36 5361.7,10737.7 2279.86,5076.03 14560.91,18654.93 14560.91,18654.93z"/>
  <path class="fil1" d="M24815.23 18571.76c2.84,6.51 2.84,6.51 2.84,6.51 879.85,1863.78 1948.06,3635.76 3125.04,5136.92 4061.19,5193.14 13514.16,5306.58 13630.35,-8970.4 19.72,-2705.29 -320.43,-4898.94 -866.73,-6674.59 -1944.39,-6334.54 -6493.83,-7380.28 -6493.83,-7380.28 -3357.42,-180.85 -9236.54,660.66 -11186.52,5037.6 -1388.73,3109.17 -372.98,8260.13 1788.85,12844.23z"/>
  <path class="fil14" d="M24815.23 18571.76c2.84,6.51 2.84,6.51 2.84,6.51 0,0 485.32,129.31 2222.63,-3400.53 349.59,-708.44 621.32,-204.33 770.25,-514.48l2779.3 -1089.76c0,0 -2756.74,-4594.38 837.75,-5879.11 3665.75,-1306.19 9278.72,375.82 9278.72,375.82 2267.66,-11407.72 -6493.83,-7380.28 -6493.83,-7380.28 -3357.42,-180.85 -9236.54,660.66 -11186.52,5037.6 -1388.73,3109.17 -372.98,8260.13 1788.85,12844.23z"/>
  <path class="fil1" d="M28374.13 12524.91c-207.08,-954.86 -2093.32,-1772.9 -2892.65,278.33 -795.57,2053.98 1886.25,4225.16 2591.85,3772.59 704.68,-449.83 646.63,-2471.98 300.8,-4050.92z"/>
  <path class="fil15" d="M64805.81 178551.13c0,0 3904.74,3177.59 7185.31,3882.27 3280.66,705.6 5002.02,2381.01 5031.09,4325.4 26.23,1948.15 -9430.59,3244.99 -13186.3,1291.25 -5604.36,-2920.8 -6173.22,-2038.02 -6794.45,-3499.85 -624.07,-1462.74 -133.07,-5335.65 -175.25,-5801.35 -47.78,-575.38 7939.61,-197.72 7939.61,-197.72z"/>
  <path class="fil15" d="M64537.83 177493.19c0,0 430.11,1588.38 365.46,1621.12 -61.9,35.58 -7385.78,866.82 -7166.51,-407.64 175.16,-1035.38 430.11,-2157.98 430.11,-2157.98l6370.94 944.5z"/>
  <path class="fil15" d="M18211.8 181181.5c0,0 2432.55,3668.5 5512.65,4403.17 3035.16,721.56 4157.76,1876.89 4309.53,3707.93 151.78,1833.79 -7149.73,4244.88 -12287.57,1035.47 -3377.14,-2110.29 -4632.81,-1986.58 -5315.02,-3329.36 -683.04,-1342.79 -171.4,-5127.57 -242.66,-5564.28 -84.37,-540.62 8023.06,-252.93 8023.06,-252.93z"/>
  <path class="fil16" d="M17393.77 179845.22c0,0 154.62,1547.11 96.48,1582.69 -58.05,34.67 -6819.85,1241.63 -6780.51,22.47 29.07,-967.98 423.6,-2171.18 423.6,-2171.18l6260.44 566.02z"/>
  <path class="fil17" d="M45161.44 86514.61c0,0 9230.03,22783.53 11886.62,30521.75 3494.16,10181.13 5425.44,19152.45 5868.66,24034.52 562.17,6140.48 2766.18,35125.48 3154.11,36920.84 388.84,1795.46 -10314.11,1209.72 -10314.11,1209.72 0,0 -6082.34,-36542.27 -7732.53,-43080.13 -1535.83,-6088.94 -16036.77,-33695.48 -17427.33,-32032.27 -1391.57,1666.15 -5969.08,29958.57 -6991.35,34765.71 -1026.12,4804.21 -3727.65,42628.46 -3727.65,42628.46 0,0 -9388.32,1519.87 -11281.17,18.71 0,0 1423.4,-33724.55 2064.34,-42731.54 245.5,-3435.19 -2238.68,-41090.8 3539.19,-56286.97 3053.87,-8029.57 30961.21,4031.2 30961.21,4031.2z"/>
  <path class="fil13" d="M35145.29 29280.39c0,0 7955.56,1621.12 8987.28,2530.04 1122.6,973.57 3378.15,10805.11 3497.1,13458.86 123.71,2652.74 -539.7,13587.25 -1652.94,17715.94 -1113.24,4131.44 -2015.65,21442.58 -1296.84,27159.55 0,0 -14901.97,3632.91 -32119.48,1420.55 0,0 2131.84,-17900.55 1432.75,-23556.63 -895.8,-7243.36 -3788.45,-23034.63 -3788.45,-23034.63 0,0 2316.36,-12251.89 4160.51,-13043.7 6094.63,-2630.36 10831.43,-2559.11 10831.43,-2559.11l9948.65 -90.88z"/>
  <path class="fil0" d="M36927.54 31117.94c0,0 -2436.31,1837.55 -10601.79,-1743.82 0,0 961.47,-4888.67 -646.54,-10113.63 -1611.77,-5225.05 10375,5875.26 10375,5875.26 -132.98,90.97 -158.29,614.72 -80.52,1342.88 6.51,48.7 9.35,93.63 15.87,142.42 61.9,527.5 171.49,1145.06 329.87,1782.25 19.72,77.77 38.43,155.54 61.9,236.15 459.09,1743.82 546.21,954.86 546.21,2478.5z"/>
  <path class="fil18" d="M36319.42 28403.29l0 0c-5846.28,760.9 -9049.09,-5535.21 -9139.05,-5719.82 4011.48,5826.66 8809.18,3937.57 8809.18,3937.57l0 0c61.9,527.5 171.49,1145.06 329.87,1782.25z"/>
  <path class="fil0" d="M36891.96 29655.2c0,0 1873.22,2776.45 -730.91,3255.35 -2604.04,478.71 -8055.8,-16.87 -10964.41,-3539.28 0,0 8030.49,-773.1 11695.32,283.93z"/>
  <path class="fil17" d="M46446.17 60723.16l-5358.03 -12157.34 -13866.59 22.47c0,0 -6327.93,12034.64 -13691.25,16059.24 0,0 353.26,19832.74 -1536.75,26752.92 0,0 6984.74,11047.86 17920.17,11196.89 10935.43,146.18 19615.39,-5185.71 19615.39,-5185.71 0,0 -4160.51,-10738.62 -4212.05,-12895.68 -51.54,-2154.31 565.93,-19492.69 1129.11,-23792.77z"/>
  <path class="fil17" d="M26051.17 50648.87c0,0 145.27,-14341.64 -7451.45,-20220.57 0,0 1142.31,-542.54 2507.57,-595.09 0,0 6492.82,2681.9 8260.13,18752.24 1766.38,16068.68 -3316.25,2063.43 -3316.25,2063.43z"/>
  <path class="fil17" d="M40466.82 48565.81c0,0 1440.27,-11518.32 -1578.93,-18450.52 0,0 1353.15,323.27 2126.15,543.46 0,0 3125.13,4085.49 1637.08,21455.69 -1485.21,17367.36 -2184.3,-3548.63 -2184.3,-3548.63z"/>
  <path class="fil19" d="M49555.34 57248.53c-650.3,-1118.84 -1294.09,-2189.89 -1895.69,-3144.75 0,0 -142.42,-281.08 -375.73,-740.27 0,-3.76 0,-3.76 0,-3.76 0,0 58.05,-5094.74 -941.75,-9029.46 0,0 2827.99,4467.91 3213.17,12918.24z"/>
  <polygon class="fil20" points="33290.86,94962.19 10690.11,95001.53 10625.45,56248.73 33223.37,56210.3 "/>
  <path class="fil20" d="M33236.57 62217.72c0,0 708.35,7826.35 1235.95,11171.57 526.59,3345.32 385.08,20815.75 38.43,21572.89l-25596.58 42.19c0,0 -1068.3,-13464.55 -32.83,-17673.84 1038.22,-4209.21 1757.03,-14484.98 1757.03,-14484.98l22598 -627.83z"/>
  <path class="fil21" d="M12967.12 72418.47c0,0 -1646.43,5749.81 -1643.59,8014.62 6.51,2261.15 848.02,11488.33 848.02,11488.33l19198.39 -32.83c0,0 -275.49,-8182.36 -19.72,-11054.37 258.62,-2873.02 -1320.32,-8444.73 -1320.32,-8444.73l-17062.79 28.98z"/>
  <path class="fil0" d="M14316.42 98970.92c0,0 -730.82,-531.36 -937.99,-919.28 0,0 -323.27,-734.67 -585.65,-1241.63 -80.52,-162.05 -158.29,-300.8 -216.43,-385.08 -246.42,-352.34 -886.45,-1052.35 -1235.95,-2064.34 -349.59,-1009.24 -737.51,-5755.4 -737.51,-5755.4l2506.65 -937.99 2219.88 -1210.64c0,0 5027.33,4196.09 5461.11,5099.41 42.19,89.97 80.61,177.09 109.68,265.22 294.2,799.23 175.25,1519.87 282,1956.5 38.43,162.14 310.25,1786.1 -13.11,2158.07 -446.89,518.24 -967.98,696.25 -1433.67,634.43 0,0 -918.27,973.57 -1815.08,1086.92 0,0 -818.03,924.87 -1973.37,750.63 0,0 -938.08,844.26 -1630.57,563.18z"/>
  <path class="fil13" d="M20223.69 32159.92c1650.1,940.83 715.87,4920.4 -452.67,9495.06 -922.03,3617.05 -2526.28,6574.44 -3425.84,7848.82 -896.72,1278.13 -7309.02,9570.08 -7000.7,10873.52 391.68,1650.19 2594.69,9550.45 2798.01,10233.59 411.4,1358.74 4986.06,16842.6 4986.06,16842.6l-6814.26 2685.66c0,0 -7844.96,-21288.05 -8977.01,-23960.51 -747.69,-1763.54 -2354.78,-4674.99 -415.07,-9233.7 1970.62,-4636.57 5762.92,-15568.23 6328.85,-16396.63 566.02,-828.31 5632.6,-12584.52 12972.62,-8388.42z"/>
  <path class="fil13" d="M91486.55 104587.57c0,572.53 -462.02,1038.32 -1038.22,1038.32 -572.62,2.75 -1038.32,-462.94 -1038.32,-1035.47 0,-572.53 462.94,-1038.22 1035.47,-1041.98 575.38,0 1041.07,465.69 1041.07,1039.14z"/>
  <path class="fil13" d="M85405.04 104298.96c0,411.4 -333.54,744.03 -741.18,744.03 -410.39,0 -744.03,-329.87 -744.03,-740.27 0,-411.4 329.87,-741.18 741.18,-741.18 410.48,-2.84 740.27,329.78 744.03,737.42z"/>
  <path class="fil13" d="M89118.56 108967.35c3.76,449.83 -362.61,815.28 -811.43,819.04 -453.59,0 -819.04,-365.46 -819.04,-815.28 0,-449.74 365.46,-818.95 815.28,-818.95 449.74,0 815.19,366.37 815.19,815.19z"/>
  <path class="fil13" d="M92089.07 110410.46c2.84,346.66 -282.09,631.59 -627.83,631.59 -349.5,0 -630.67,-282.09 -630.67,-631.59 -3.67,-349.5 278.33,-630.67 627.83,-630.67 348.58,0 630.67,281.18 630.67,630.67z"/>
  <path class="fil13" d="M90454.84 112494.43c-60.89,734.67 -708.44,1278.13 -1443.02,1216.32 -734.67,-64.65 -1280.98,-712.2 -1216.32,-1445.87 64.65,-734.67 712.11,-1278.13 1445.87,-1217.24 734.67,64.65 1278.13,712.11 1213.48,1446.78z"/>
  <path class="fil13" d="M93430.94 114671.21c3.76,369.22 -297.04,670.02 -666.26,670.02 -368.3,0 -666.26,-297.96 -666.26,-666.26 -2.84,-369.22 297.96,-670.02 666.26,-670.02 369.22,0 666.26,298.05 666.26,666.26z"/>
  <path class="fil13" d="M92768.44 117305.24c2.75,637.28 -511.64,1151.67 -1146.07,1151.67 -637.19,2.84 -1150.66,-511.64 -1150.66,-1145.06 -3.76,-638.1 510.72,-1152.58 1145.06,-1152.58 637.19,-2.84 1151.67,511.64 1151.67,1145.98z"/>
  <path class="fil13" d="M90467.95 116383.21c0,287.69 -232.39,520.08 -517.23,520.08 -288.6,0 -520.99,-232.39 -520.99,-517.23 0,-287.69 232.39,-520.99 517.23,-520.99 288.6,0 520.99,230.46 520.99,518.15z"/>
  <path class="fil13" d="M95149.45 121827.54c2.84,799.23 -462.85,1445.87 -1035.38,1445.87 -572.53,3.76 -1038.32,-642.87 -1042.08,-1442.11 0,-799.33 462.94,-1445.96 1038.32,-1449.63 573.45,0 1039.14,646.54 1039.14,1445.87z"/>
  <path class="fil13" d="M93922.86 185251.13c0,226.7 -426.35,411.31 -951.1,411.31 -527.6,0 -953.94,-180.85 -953.94,-407.55 0,-223.03 426.35,-407.64 951.1,-407.64 527.6,0 953.94,181.76 953.94,403.88z"/>
  <path class="fil13" d="M91891.35 187872.04c0,317.68 -258.62,576.29 -575.38,576.29 -320.43,2.75 -576.29,-255.86 -579.04,-572.53 0,-320.52 258.62,-576.29 575.28,-580.05 320.52,0 576.29,259.53 579.14,576.29z"/>
  <path class="fil13" d="M91312.21 186814.1c0,268.89 -385.08,485.41 -863.89,485.41 -475.14,0 -863.98,-213.68 -863.98,-481.65 0,-265.22 385.08,-482.57 863.98,-482.57 475.96,-2.84 863.89,213.59 863.89,478.81z"/>
  <path class="fil13" d="M95592.68 187865.44c0,320.52 -255.77,576.29 -576.29,579.14 -316.67,0 -575.28,-258.62 -575.28,-575.38 0,-320.43 254.86,-576.29 575.28,-579.04 317.68,0 576.29,258.62 576.29,575.28z"/>
  <path class="fil13" d="M93926.62 187286.4c0,262.38 -213.68,478.81 -476.06,478.81 -261.37,0 -475.05,-212.67 -475.05,-475.05 -3.76,-265.22 209.92,-478.9 475.05,-478.9 262.38,0 476.06,213.68 476.06,475.14z"/>
  <path class="fil13" d="M96744.35 186804.75c0,262.38 -385.08,478.81 -863.98,478.81 -478.81,0 -863.98,-213.68 -866.73,-478.81 0,-262.38 387.92,-478.9 866.73,-478.9 476.06,0 863.98,213.68 863.98,478.9z"/>
  <path class="fil13" d="M137088.28 190771.3c0,361.7 -295.21,659.65 -660.57,659.65 -361.79,0 -656.9,-294.2 -656.9,-656.9 -2.84,-365.36 291.45,-659.65 656.9,-659.65 362.61,0 656.81,294.29 660.57,656.9z"/>
  <path class="fil13" d="M138181.8 189250.41c310.16,104 478.9,440.47 374.81,750.63 -103.08,310.16 -439.46,478.81 -750.54,375.73 -310.16,-100.24 -478.81,-436.62 -374.81,-747.79 103.08,-313.92 439.46,-482.57 750.54,-378.57z"/>
  <path class="fil13" d="M140187.08 192722.2c0,254.95 -207.08,465.78 -461.93,465.78 -255.77,0 -466.61,-207.17 -466.61,-462.94 0,-258.62 207.08,-465.69 462.85,-465.69 258.62,0 465.69,207.08 465.69,462.85z"/>
  <path class="fil13" d="M138249.3 192395.17c0,320.52 -258.62,581.98 -579.14,581.98 -320.43,0 -579.04,-258.71 -581.89,-579.14 0,-319.51 258.62,-579.14 579.14,-579.14 319.51,-2.75 581.89,255.86 581.89,576.29z"/>
  <path class="fil13" d="M134574.2 191214.52c0,242.66 -197.72,439.46 -439.46,439.46 -242.75,3.76 -440.47,-193.96 -440.47,-436.71 0,-242.66 197.72,-439.46 440.47,-439.46 241.74,-3.76 439.46,193.96 439.46,436.71z"/>
  <path class="fil13" d="M105388.63 189166.13c3.76,407.55 -519.98,741.18 -1164.69,744.03 -646.63,0 -1171.38,-329.87 -1171.38,-740.27 0,-407.64 524.75,-741.27 1168.54,-741.27 643.79,-2.75 1167.53,327.03 1167.53,737.51z"/>
  <path class="fil13" d="M102034.05 189829.55c0,362.61 -294.29,659.65 -656.9,659.65 -362.61,0 -656.9,-294.2 -659.65,-655.89 0,-362.7 294.2,-660.66 656.81,-660.66 365.46,0 659.75,294.29 659.75,656.9z"/>
  <path class="fil13" d="M111451.44 191107.68c0,352.34 -284.84,640.03 -633.52,640.03 -353.26,0 -637.19,-283.93 -640.85,-637.19 0,-352.34 284.84,-637.19 637.19,-637.19 352.34,0 637.19,284.84 637.19,634.34z"/>
  <path class="fil13" d="M128983.69 191223.87c0,242.66 -398.2,440.38 -889.29,443.22 -491.92,0 -890.12,-197.72 -890.12,-440.38 -3.76,-241.83 398.2,-439.46 886.45,-439.46 491.92,-2.84 892.96,193.96 892.96,436.62z"/>
  <path class="fil13" d="M123645.28 193439.99c0,246.42 -345.74,443.22 -775.85,443.22 -431.03,0 -780.62,-196.81 -780.62,-439.46 0,-242.66 346.75,-440.38 776.86,-440.38 430.11,-2.84 779.61,193.96 779.61,436.62z"/>
 </g>
</svg>
