<?xml version="1.0" encoding="UTF-8"?>
<!DOCTYPE svg PUBLIC "-//W3C//DTD SVG 1.1//EN" "http://www.w3.org/Graphics/SVG/1.1/DTD/svg11.dtd">
<!-- Creator: CorelDRAW 2020 (64 Bit) -->
<svg xmlns="http://www.w3.org/2000/svg" xml:space="preserve" width="299.236mm" height="193.535mm" version="1.1" style="shape-rendering:geometricPrecision; text-rendering:geometricPrecision; image-rendering:optimizeQuality; fill-rule:evenodd; clip-rule:evenodd"
viewBox="0 0 7232.71 4677.87"
 xmlns:xlink="http://www.w3.org/1999/xlink"
 xmlns:xodm="http://www.corel.com/coreldraw/odm/2003">
 <defs>
  <style type="text/css">
   <![CDATA[
    .fil7 {fill:#292C47;fill-rule:nonzero}
    .fil3 {fill:#4A3F3F;fill-rule:nonzero}
    .fil4 {fill:#538742;fill-rule:nonzero}
    .fil1 {fill:#613C2C;fill-rule:nonzero}
    .fil0 {fill:#784A36;fill-rule:nonzero}
    .fil13 {fill:#787675;fill-rule:nonzero}
    .fil9 {fill:#BF7C58;fill-rule:nonzero}
    .fil11 {fill:#D45656;fill-rule:nonzero}
    .fil8 {fill:#D69779;fill-rule:nonzero}
    .fil12 {fill:#EB6C6C;fill-rule:nonzero}
    .fil2 {fill:#EEA886;fill-rule:nonzero}
    .fil6 {fill:#EEA987;fill-rule:nonzero}
    .fil10 {fill:#F7A172;fill-rule:nonzero}
    .fil5 {fill:#FFBF55;fill-rule:nonzero}
   ]]>
  </style>
 </defs>
 <g id="Camada_x0020_4">
  <metadata id="CorelCorpID_0Corel-Layer"/>
  <polygon class="fil0" points="1280.34,3936.74 1370.98,4410.8 4603.16,4405.31 4700.96,3930.93 "/>
  <path class="fil1" d="M2223.11 3935.15c0,0 13.34,349.37 2408.46,331.49l-28.4 138.67 -3232.18 5.48 -90.64 -474.06 942.76 -1.58z"/>
  <path class="fil2" d="M4791.85 2165.88c0,0 -53.35,66.48 -61.25,76.86 -7.9,10.37 -9.63,44.48 -8.15,83.52 1.48,39.07 22.47,89.73 28.65,92.76 6.18,3.06 10.62,8.94 29.14,6.47 18.77,-2.47 33.84,-14.05 33.84,-14.05 0,0 23.46,6.94 41,-8.55 0,0 22.72,5.53 39.76,-14.89 0,0 22.23,4.87 33.34,-10.84 0,0 1.97,-34.2 6.67,-46.97 4.44,-12.77 3.46,-83.72 -9.14,-150.73 0,0 -35.07,-57.79 -133.86,-13.58z"/>
  <path class="fil2" d="M5128.47 1032.56c0,0 -39.02,472.16 -43.22,492.66 -4.44,20.5 -288.71,626.74 -296.86,642.54 -8.4,15.81 109.9,81.08 109.9,81.08 0,0 332.42,-540.37 378.85,-613.65 53.1,-83.92 114.35,-614.09 62.98,-675.19 -51.12,-61.07 -211.65,72.56 -211.65,72.56z"/>
  <path class="fil3" d="M6427.29 4073.85c0,0 -75.08,62.66 -109.41,97.68 -34.58,35.04 -193.63,108.82 -204.25,129.71 -10.62,20.89 20.25,100.54 48.9,95.92 28.65,-4.59 231.66,-56.75 291.92,-95.43 60.26,-38.7 192.14,-56.51 216.1,-75.42 23.96,-18.92 -45.69,-159.27 -67.92,-188.44 -22.23,-29.17 -175.35,35.99 -175.35,35.99z"/>
  <path class="fil3" d="M6412.96 4030.56l20.5 62.58c0,0 131.39,-20.75 169.17,-55.27l-27.17 -67.08 -162.51 59.77z"/>
  <path class="fil3" d="M5242.57 4216.28c0,0 -93.6,57.94 -133.36,86.91 -39.76,28.97 -197.33,63.77 -211.16,82.64 -13.83,18.89 1.48,104.67 30.62,104.77 28.9,0.12 237.59,-18.33 303.53,-46.7 65.7,-28.4 198.81,-24.52 225.49,-39.29 26.67,-14.74 -19.26,-164.61 -36.55,-196.99 -17.04,-32.38 -178.56,8.67 -178.56,8.67z"/>
  <path class="fil3" d="M5235.41 4169.6l10.13 65.08c0,0 132.62,0.87 175.6,-27.07l-15.81 -70.61 -169.91 32.6z"/>
  <path class="fil4" d="M6236.63 3053.12c0,46.06 397.13,935.62 397.13,935.62 -3.21,17.93 -262.04,82.36 -262.04,82.36 0,0 -437.39,-902.8 -442.08,-943.7 -4.94,-40.92 -92.37,-590.88 -92.86,-629.35 -0.5,-38.46 -8.65,-54.65 -52.11,-45.37 -43.47,9.21 -344.28,577.25 -361.07,694.01 -17.04,116.74 46.68,995.49 28.16,1005.89 -18.52,10.4 -258.33,45.52 -267.22,40.58 -8.89,-4.94 -111.88,-866.67 -108.17,-943.45 2.22,-42.18 -21.24,-225.31 25.19,-342.18 27.91,-70.88 267.22,-600.91 348.72,-796.26 14.57,-35.07 23.21,-55.52 23.21,-55.52 0,0 748.57,-345.44 755.49,-146.55 0.74,19.07 31.12,53.42 38.77,131.78 36.8,371.82 -31.12,968.52 -31.12,1012.14z"/>
  <path class="fil5" d="M5229.23 749.13c0,0 -142.5,94.12 -155.84,149.59 -13.34,55.47 -21.73,341.31 -21.73,341.31 0,0 112.87,-7.9 132.87,-8.5 20.25,-0.57 46.18,121.14 111.63,253.27 65.2,132.1 187.2,673.74 184.98,696.83 0,0 150.65,4.1 753.51,-266.36 0,0 -87.68,-189.67 -120.28,-299.11 -26.67,-89.68 -158.8,-558.85 -158.8,-558.85l-30.13 -421.75c0,0 -112.37,-72.73 -385.03,-26.38 -173.37,29.44 -311.18,139.94 -311.18,139.94z"/>
  <path class="fil6" d="M5460.15 334.64c-0.25,0.2 -0.25,0.2 -0.25,0.2 1.48,48.53 -2.22,97.13 -11.11,141.17 -30.38,152.31 -276.61,249.86 -381.82,-44.01 -21.24,-59.96 -45.19,-106.37 -52.6,-149.49 -26.18,-153.84 58.28,-224.08 58.28,-224.08 68.66,-39.44 201.28,-84.12 288.71,-12.77 61.99,50.65 95.33,169.67 98.79,288.98z"/>
  <path class="fil7" d="M5460.15 334.64c-0.25,0.2 -0.25,0.2 -0.25,0.2 0,0 -8.65,7.85 -82.74,-47.89 -14.82,-11.16 -15.31,2.3 -21.73,-2.64l-69.89 6.57c0,0 9.14,-125.88 -80.02,-114.67 -90.88,11.38 -191.16,106.3 -191.16,106.3 -156.33,-213.8 58.28,-224.08 58.28,-224.08 68.66,-39.44 231.91,-95.5 319.33,-24.18 61.99,50.68 64.7,181.08 68.16,300.39z"/>
  <path class="fil6" d="M5320.86 245.31c-5.68,-22.28 25.44,-59.5 63.97,-24.82 38.53,34.7 5.18,108.84 -14.57,106.81 -19.51,-2 -39.76,-45.12 -49.4,-81.99z"/>
  <path class="fil6" d="M5588.58 601.99c-4.69,24.57 -10.87,46.7 -18.28,66.56 -50.63,139.49 -152.63,167.69 -152.63,167.69 -63.22,14.37 -108.67,-14.94 -137.32,-45.22 -24.7,-26.2 -36.8,-53.07 -36.8,-53.07l32.35 -24.94c0,-15.83 -5.93,-39.66 -13.58,-63.69 -13.33,-42.87 -32.11,-86.39 -32.11,-86.39 0,0 214.86,-238.89 225.73,-131.73 4.69,48.95 20.5,96.91 35.56,121.36 17.78,29.07 38.53,42.55 51.62,44.38 28.9,4.05 45.44,5.06 45.44,5.06z"/>
  <path class="fil4" d="M6076.84 1486.47c0,0 -441.83,169.74 -712.51,260.23 0,0 87.18,390.66 110.89,471.84l776.72 -249.98c0,0 -110.64,-347.27 -175.1,-482.09z"/>
  <path class="fil4" d="M6076.84 1486.47c0,0 -369.72,-306.89 -405.28,-358.5 0,0 -206.22,59.5 -299.33,110.96 0,0 -25.93,438.7 -7.9,507.77 18.28,69.08 712.51,-260.23 712.51,-260.23z"/>
  <path class="fil4" d="M5716.01 1174.29c0,0 -35.32,-439.39 29.64,-579.76 0,0 -10.37,-10.97 -62.98,-0.32 0,0 -87.18,170.66 -41.49,542.87 0,0 44.46,79.11 74.83,37.22z"/>
  <path class="fil4" d="M5460.4 1303.9c0,0 -263.02,-365.89 -280.31,-519.58 0,0 -12.84,6.84 -52.36,43.24 0,0 17.04,188.84 249.19,483.3 0,0 79.28,44.53 83.48,-6.96z"/>
  <path class="fil2" d="M5732.31 804.97c0,0 218.32,442.82 220.3,463.69 2.22,20.87 -169.42,547.48 -172.38,565.09 -3.21,17.61 108.67,49.79 108.67,49.79 0,0 254.38,-521.33 275.87,-605.35 24.7,-96.24 -185.97,-565.37 -253.39,-607.67 -67.42,-42.28 -179.05,134.45 -179.05,134.45z"/>
  <path class="fil5" d="M5925.45 635.58c0,0 69.15,24.7 135.09,262.68l-315.38 147.66 -22.23 -317.21 202.52 -93.13z"/>
  <path class="fil8" d="M4750.36 2408.83c0,0 -1.48,-99.26 15.81,-102.79 17.04,-3.48 24.94,4.82 24.94,4.82l19.26 -42.65c0,0 29.39,-22.77 44.7,11.8 0,0 25.19,-23.76 35.81,11.61 0,0 23.46,-9.26 31.37,6.07 8.15,15.34 5.93,79.48 5.93,79.48 0,0 -6.67,13.86 -33.34,10.84 0,0 -15.31,20.4 -39.76,14.89 0,0 -14.57,14.72 -41,8.55 0,0 -35.56,30.62 -62.98,7.58 0,0 -0.74,-6 -0.74,-10.2z"/>
  <path class="fil2" d="M4730.35 2245.87c0,0 34.08,57.67 68.16,80.32 7.9,5.11 16.55,8.67 25.19,3.48 8.4,-5.21 12.35,-22.89 -0.99,-48.68 -13.34,-25.78 -17.54,-65.87 -17.54,-65.87 0,0 -22.47,-22.08 -74.83,30.75z"/>
  <polygon class="fil9" points="7178.82,4487.14 6383.82,4488.49 6381.6,3125.31 7176.6,3123.98 "/>
  <path class="fil9" d="M7176.84 3335.29c0,0 24.94,275.3 43.71,392.98 18.52,117.68 13.34,732.24 1.24,758.79l-900.45 1.53c0,0 -37.54,-473.69 -0.99,-621.75 36.55,-148.06 61.74,-509.48 61.74,-509.48l794.75 -22.08z"/>
  <path class="fil10" d="M6464.09 3694.14c0,0 -58.04,202.22 -57.79,281.84 0.25,79.63 29.64,404.22 29.64,404.22l675.46 -1.16c0,0 -9.88,-287.84 -0.74,-388.93 9.14,-101.09 -46.43,-297.01 -46.43,-297.01l-600.14 1.04z"/>
  <path class="fil11" d="M614.04 3807.84c0,0 86.04,200.57 117.16,245.64 31.04,45.05 175.4,367.69 181.13,407.16 5.7,39.47 90.37,60.46 90.37,60.46 0,0 -28.38,-87.35 -0.17,-88.81 28.23,-1.46 118.62,88.61 118.62,88.61 0,0 19.68,-7.09 -11.44,-56.38 -31.04,-49.27 -155.54,-301.45 -154.26,-380.41 1.21,-78.96 -15.93,-237.68 -15.93,-237.68 0,0 -274.73,-261.91 -325.48,-38.58z"/>
  <path class="fil11" d="M2832.38 3263.52c0,0 20,-81.45 18.77,-147 -1.24,-65.57 14.57,-138.55 16.55,-180.86 2.22,-42.31 -29.64,-72.91 -29.64,-72.91 0,0 -18.77,92.02 -41,111.09 -22.23,19.07 -102.49,151.39 -103.48,159.86 -0.99,8.45 138.8,129.81 138.8,129.81z"/>
  <path class="fil11" d="M2377.71 3865.98c0,0 -93.11,79.11 -97.06,110.15 -4.2,31.02 10.13,157.89 7.41,222.74 -2.72,64.85 144.23,350.8 173.87,370.51 29.64,19.68 -95.82,-20.99 -108.42,-23.78 -12.84,-2.79 29.64,59.17 12.84,59.2 -17.04,0.03 -114.35,-35.07 -122.99,-81.57 -8.64,-46.5 -125.96,-317.01 -154.36,-367.74 -28.15,-50.68 -91.38,-180.14 -108.67,-192.27 -17.54,-12.1 323.78,-177.47 397.38,-97.23z"/>
  <path class="fil12" d="M3128.25 3792.8c0,0 61.5,14.69 69.89,-10.7 8.4,-25.39 1.97,-46.53 16.79,-76.14 14.57,-29.66 69.4,-184.14 37.54,-190.44 -31.61,-6.27 -61.25,4.35 -90.89,0.17 -29.64,-4.2 -148.18,-99.16 -186.22,-149.84 -38.28,-50.7 -171.89,-281 -448.99,-373.57 -277.35,-92.59 -649.53,-60.24 -742.64,-87.58 -93.11,-27.34 -583.89,-202.05 -886.35,-174.02 -302.37,28.01 -676.43,159.77 -726.66,468.6 -50.21,308.86 28.5,570.97 49.71,668.23 21.31,97.23 159.79,689.17 159.79,689.17 0,0 52.88,-4.32 90.91,-24.84 25.07,-13.51 103.68,33.91 103.68,33.91 0,0 -108.2,-233.39 -110.42,-290.49 -2.22,-57.1 88.17,-370.26 128.25,-429.53 40.06,-59.3 27.36,-95.23 92.94,-74.19 65.57,21.04 393.77,234.08 592.61,257.02 198.81,22.92 363.79,-19.66 363.79,-19.66 0,0 43.71,141.61 67.42,181.75 23.71,40.16 26.18,196.66 20.01,264.33 -6.18,67.69 36.3,215.65 48.9,221.98 12.84,6.32 67.67,-23.36 67.67,-23.36l122.75 23.96c0,0 -65.94,-180.56 -59.52,-237.66 6.17,-57.12 33.34,-294.04 39.51,-384.98 6.18,-90.96 3.95,-112.1 3.95,-112.1 0,0 76.31,69.65 152.38,46.28 76.07,-23.41 192.14,-129.34 272.66,-123.14 80.27,6.2 293.9,22.77 374.41,7.83 80.27,-14.94 228.2,-40.58 270.43,-13.16 42.48,27.44 105.7,-67.84 105.7,-67.84z"/>
  <path class="fil12" d="M143.88 3121.61c-13.14,0.02 -27.19,-1.01 -42.13,-3.36 -53.71,-8.3 -88.83,-45.1 -98.91,-103.58 -13.46,-78.93 22.52,-176.78 75.65,-205.33 27.44,-14.77 56.61,-9.71 82.12,14.25 33.66,31.66 49.61,66.29 47.39,102.89 -4.08,67.37 -68.81,115.53 -71.55,117.53l-14.99 -20.47c0.59,-0.42 57.89,-43.29 61.22,-98.71 1.7,-28.7 -11.61,-56.53 -39.49,-82.74 -17.63,-16.57 -34.87,-19.98 -52.7,-10.4 -43.05,23.17 -74.09,111.68 -62.58,178.68 5.63,33.17 23.81,74.46 77.77,82.81 162.26,25.14 198.94,-112.69 200.39,-118.6l24.65 6.2c-0.44,1.53 -37.37,140.58 -186.83,140.82z"/>
  <path class="fil12" d="M2712.85 3298.64c0,-31.73 0.25,-177.45 -20.01,-226.15 -20.5,-48.73 47.91,-220.15 43.71,-247.64 -4.45,-27.49 -20.25,-52.83 -20.25,-52.83 0,0 -55.32,142.21 -95.82,177.82 -85.7,75.23 -121.51,207.46 -123.24,264.55 -2.22,57.1 215.61,84.24 215.61,84.24z"/>
  <path class="fil11" d="M2845.22 3396.73c-5.93,-12.1 -48.65,-20.01 -50.63,21.24 -2.22,41.24 26.67,75.03 50.87,48.55 24.2,-26.47 5.19,-59.22 -0.25,-69.79z"/>
  <path class="fil13" d="M4777.28 2614.63l163.99 379.12 1131.62 -666.89c53.1,-31.37 74.59,-97.5 50.13,-154.26l-51.12 -118.08 -51.12 -118.1c-24.45,-56.73 -87.43,-86.29 -146.7,-68.98l-1260.79 368.06 163.99 379.13z"/>
  <path class="fil6" d="M5838.02 2094.68c0,0 15.31,-14.87 19.02,-24.62 0,0 4.94,-18.28 9.39,-31.02 1.48,-4.05 2.72,-7.53 3.71,-9.7 4.69,-9.06 17.29,-27.61 21.98,-52.41 4.69,-24.79 4.69,-116.25 4.69,-116.25l-66.68 -18.08 -47.42 -24.6c0,0 -113.86,102.66 -121.02,125.24 -0.49,2.22 -1.24,4.44 -1.48,6.55 -4.2,19.71 0.99,36.11 0,46.73 -0.49,3.88 -1.24,42.8 7.66,50.41 12.1,10.57 24.7,12.97 35.56,9.95 0,0 24.7,19.66 45.94,19.29 0,0 22.47,18.89 48.65,10.89 0,0 24.94,16.6 40.01,7.63z"/>
  <path class="fil10" d="M4751.1 2899.28c0,47.15 -38.03,85.43 -85.2,85.53 -47.17,0.07 -85.45,-38.08 -85.45,-85.23 -0.25,-47.15 38.03,-85.43 85.21,-85.5 47.17,-0.07 85.45,38.08 85.45,85.2z"/>
  <path class="fil10" d="M4526.85 3084.12c0,37.98 -30.62,68.81 -68.66,68.88 -38.03,0.05 -68.91,-30.67 -68.91,-68.63 0,-37.98 30.62,-68.83 68.66,-68.88 38.03,-0.05 68.9,30.67 68.9,68.63z"/>
  <path class="fil10" d="M4666.14 3128.23c0,49.59 -22.97,89.85 -51.12,89.87 -28.4,0.07 -51.37,-40.11 -51.62,-89.7 0,-49.59 22.72,-89.82 51.12,-89.87 28.4,-0.05 51.62,40.11 51.62,89.7z"/>
  <path class="fil10" d="M4614.77 3015.24c0,43.27 -35.07,78.41 -78.29,78.49 -43.22,0.07 -78.54,-34.97 -78.54,-78.24 0,-43.27 35.07,-78.41 78.29,-78.49 43.22,-0.1 78.54,34.95 78.54,78.24z"/>
  <path class="fil10" d="M4761.23 2806.6c0,47.12 -38.03,85.43 -85.21,85.5 -47.17,0.07 -85.45,-38.08 -85.45,-85.23 -0.25,-47.15 38.03,-85.43 85.21,-85.5 47.17,-0.07 85.2,38.08 85.45,85.23z"/>
  <path class="fil10" d="M4536.98 2991.43c0,37.96 -30.62,68.78 -68.66,68.85 -37.79,0.07 -68.66,-30.67 -68.91,-68.63 0,-37.96 30.87,-68.81 68.66,-68.85 38.03,-0.07 68.91,30.65 68.91,68.63z"/>
  <path class="fil10" d="M4676.27 3035.52c0,49.61 -22.97,89.85 -51.37,89.9 -28.15,0.05 -51.37,-40.13 -51.37,-89.7 0,-49.59 22.72,-89.85 51.12,-89.9 28.4,-0.05 51.62,40.13 51.62,89.7z"/>
  <path class="fil10" d="M4624.9 2922.52c0,43.27 -35.07,78.41 -78.29,78.49 -43.22,0.07 -78.54,-34.95 -78.54,-78.21 0,-43.29 35.07,-78.44 78.29,-78.51 43.22,-0.07 78.54,34.95 78.54,78.24z"/>
  <path class="fil10" d="M4284.08 3356.18c0.25,40.73 -20.75,73.8 -46.68,73.84 -25.93,0.05 -46.92,-32.94 -47.17,-73.7 0,-40.75 20.99,-73.82 46.92,-73.84 25.93,-0.05 46.92,32.95 46.92,73.7z"/>
  <path class="fil10" d="M4353.23 3448.84c25.19,49.59 14.57,105.36 -23.46,124.57 -38.03,19.19 -89.16,-5.43 -114.35,-55.05 -24.94,-49.59 -14.33,-105.36 23.71,-124.57 38.03,-19.19 89.16,5.46 114.1,55.05z"/>
  <path class="fil10" d="M4268.52 3604.36c0,55.57 -44.95,100.69 -100.52,100.79 -55.57,0.1 -100.76,-44.88 -100.76,-100.44 -0.25,-55.57 44.95,-100.69 100.27,-100.79 55.81,-0.07 100.76,44.88 101.01,100.44z"/>
 </g>
</svg>
