<?xml version="1.0" encoding="UTF-8"?>
<!DOCTYPE svg PUBLIC "-//W3C//DTD SVG 1.1//EN" "http://www.w3.org/Graphics/SVG/1.1/DTD/svg11.dtd">
<!-- Creator: CorelDRAW 2020 (64 Bit) -->
<svg xmlns="http://www.w3.org/2000/svg" xml:space="preserve" width="261.222mm" height="235.142mm" version="1.1" style="shape-rendering:geometricPrecision; text-rendering:geometricPrecision; image-rendering:optimizeQuality; fill-rule:evenodd; clip-rule:evenodd"
viewBox="0 0 11916.49 10726.74"
 xmlns:xlink="http://www.w3.org/1999/xlink"
 xmlns:xodm="http://www.corel.com/coreldraw/odm/2003">
 <defs>
  <style type="text/css">
   <![CDATA[
    .fil11 {fill:#1D7BAB;fill-rule:nonzero}
    .fil15 {fill:#323657;fill-rule:nonzero}
    .fil16 {fill:#538742;fill-rule:nonzero}
    .fil8 {fill:#665757;fill-rule:nonzero}
    .fil19 {fill:#877373;fill-rule:nonzero}
    .fil14 {fill:#A67C36;fill-rule:nonzero}
    .fil17 {fill:#A77860;fill-rule:nonzero}
    .fil18 {fill:#ADD14D;fill-rule:nonzero}
    .fil12 {fill:#D6926F;fill-rule:nonzero}
    .fil10 {fill:#EEA886;fill-rule:nonzero}
    .fil20 {fill:#F3F3F3;fill-rule:nonzero}
    .fil9 {fill:#FFA23D;fill-rule:nonzero}
    .fil13 {fill:#FFBF55;fill-rule:nonzero}
    .fil6 {fill:url(#id0)}
    .fil0 {fill:url(#id1)}
    .fil5 {fill:url(#id2)}
    .fil2 {fill:url(#id3)}
    .fil4 {fill:url(#id4)}
    .fil1 {fill:url(#id5)}
    .fil3 {fill:url(#id6)}
    .fil7 {fill:url(#id7)}
   ]]>
  </style>
  <linearGradient id="id0" gradientUnits="userSpaceOnUse" x1="3412.45" y1="8476.65" x2="4687.92" y2="9016.52">
   <stop offset="0" style="stop-opacity:1; stop-color:#3076A1"/>
   <stop offset="1" style="stop-opacity:1; stop-color:#639C38"/>
  </linearGradient>
  <linearGradient id="id1" gradientUnits="userSpaceOnUse" xlink:href="#id0" x1="5303.63" y1="6827.13" x2="6773.48" y2="7360.94">
  </linearGradient>
  <linearGradient id="id2" gradientUnits="userSpaceOnUse" xlink:href="#id0" x1="4561.61" y1="8973.02" x2="6963.12" y2="9819.46">
  </linearGradient>
  <linearGradient id="id3" gradientUnits="userSpaceOnUse" xlink:href="#id0" x1="4551.03" y1="6880.62" x2="5826.5" y2="7420.51">
  </linearGradient>
  <linearGradient id="id4" gradientUnits="userSpaceOnUse" xlink:href="#id0" x1="4165.06" y1="8423.16" x2="5634.96" y2="8956.97">
  </linearGradient>
  <linearGradient id="id5" gradientUnits="userSpaceOnUse" xlink:href="#id0" x1="5700.15" y1="7376.76" x2="8101.69" y2="8223.18">
  </linearGradient>
  <linearGradient id="id6" gradientUnits="userSpaceOnUse" xlink:href="#id0" x1="6377.23" y1="8676.51" x2="6525.42" y2="7572.58">
  </linearGradient>
  <linearGradient id="id7" gradientUnits="userSpaceOnUse" xlink:href="#id0" x1="5238.69" y1="10272.77" x2="5386.88" y2="9168.81">
  </linearGradient>
 </defs>
 <g id="Camada_x0020_4">
  <metadata id="CorelCorpID_0Corel-Layer"/>
  <path class="fil0" d="M5681.66 8553.98c0,0 241.08,-105.9 309.41,-336.86 68.29,-230.91 112.1,-548.58 298.97,-630.52 186.82,-81.89 579.39,-300.46 590.85,-573.88 11.51,-273.43 -579.48,-597.85 -443.32,-665.94 136.11,-68.05 381.52,-249.61 140.07,-397.46 -241.49,-148.09 -369.77,-174 -433.63,-374.34 -63.91,-200.38 -297.01,-303.02 -348.38,1.77 -51.32,304.8 -195.63,374.48 -164.26,628.75 31.37,254.27 177.55,493.25 -230.08,549.88 -407.62,56.82 -259.35,332.16 -168.5,533.01 90.8,200.71 113.92,992.78 141.05,1130.38 27.17,137.79 141.19,227.89 307.82,135.22z"/>
  <path class="fil1" d="M5578.88 8692.18c0,0 553.47,-208.87 725.93,-171.39 172.42,37.52 492.55,128.74 618.82,-15.62 126.32,-144.36 228.31,-630.99 633.64,-576.59 405.39,54.4 554.91,-42.51 531.56,-284.71 -23.4,-242.05 633.5,-609.12 515.11,-742.39 -118.44,-133.26 -1013.76,112.01 -1279.82,205.19 -266.06,93.04 -523.87,-119.56 -670.84,138.76 -146.92,258.28 -638.3,479.22 -801.82,434.8 -163.47,-44.42 -295.38,-67.26 -335.42,178.01 -40.04,245.08 -205.28,395.41 -248.81,547.83 -43.54,152.23 -101.24,262.47 311.65,286.1z"/>
  <path class="fil2" d="M5168.6 5867.36c-19.67,-149.81 -278.23,-219.36 -318.41,-31.37 -40.27,187.98 54.12,436.94 -300.37,655.64 -354.53,218.52 187.34,476.98 320.27,739.45 132.94,262.33 109.4,550.53 219.91,778.14 110.52,227.7 84.69,669.95 276.32,569.04 191.62,-100.92 129.62,-341.81 240.1,-606.1 110.47,-264.24 479.54,-326.19 231.89,-608.8 -247.69,-282.75 -539.53,-445.47 -299.43,-801.59 105.95,-157.08 -309.18,-228.21 -370.28,-694.42z"/>
  <path class="fil3" d="M5242.39 8541.72c0,0 191.39,-178.94 93.59,-563.91 -97.79,-384.97 -282.8,-396.2 302.23,-459.45 585.07,-63.4 353.83,-994.09 813.71,-939.84 459.92,54.21 1260.94,-1037.67 1530.04,-767.79 269.09,269.69 -374.06,716.94 -206.03,978.29 168.03,261.36 118.21,501.13 -425.29,517.86 -543.54,16.92 24.79,1012.27 -699.14,999.73 -723.97,-12.59 -836.31,899.1 -1409.12,235.11z"/>
  <path class="fil4" d="M4543.07 10150.06c0,0 241.07,-105.9 309.41,-336.82 68.34,-230.78 112.15,-548.62 298.97,-630.52 186.87,-81.94 579.38,-300.32 590.9,-573.89 11.46,-273.42 -579.48,-597.89 -443.37,-665.94 136.15,-68.05 381.56,-249.42 140.07,-397.5 -241.45,-148.04 -369.73,-173.96 -433.63,-374.29 -63.86,-200.39 -297.01,-302.89 -348.33,1.77 -51.32,304.79 -195.67,374.48 -164.26,628.75 31.32,254.27 177.5,493.25 -230.08,550.02 -407.62,56.68 -259.35,332.01 -168.55,532.87 90.8,200.85 113.92,992.78 141.09,1130.52 27.13,137.6 141.19,227.89 307.78,135.03z"/>
  <path class="fil5" d="M4440.34 10288.32c0,0 553.47,-208.87 725.93,-171.39 172.42,37.48 492.5,128.74 618.82,-15.62 126.32,-144.36 228.26,-630.99 633.64,-576.64 405.38,54.4 554.87,-42.46 531.51,-284.52 -23.35,-242.2 633.55,-609.26 515.11,-742.53 -118.4,-133.26 -1013.76,112.01 -1279.78,205.19 -266.1,93.03 -523.92,-119.42 -670.84,138.9 -146.97,258.28 -638.35,479.07 -801.82,434.66 -163.47,-44.28 -295.42,-67.26 -335.42,178.01 -40.04,245.08 -205.33,395.41 -248.82,547.78 -43.53,152.42 -101.29,262.66 311.65,286.15z"/>
  <path class="fil6" d="M4030.01 7463.49c-19.67,-149.81 -278.18,-219.21 -318.41,-31.23 -40.23,187.8 54.16,436.75 -300.37,655.46 -354.48,218.7 187.38,477.03 320.32,739.5 132.89,262.47 109.35,550.53 219.92,778.28 110.51,227.56 84.69,669.95 276.31,568.85 191.62,-100.87 129.58,-341.8 240.1,-606.05 110.47,-264.24 479.54,-326.05 231.85,-608.8 -247.65,-282.6 -539.54,-445.47 -299.39,-801.44 105.95,-157.08 -309.22,-228.35 -370.33,-694.56z"/>
  <path class="fil7" d="M4103.85 10137.99c0,0 191.34,-179.08 93.55,-564.05 -97.79,-384.78 -282.79,-396.06 302.28,-459.45 585.03,-63.44 353.78,-993.9 813.7,-939.69 459.92,54.26 1260.95,-1037.81 1530.04,-767.98 269.09,269.89 -374.11,716.99 -206.07,978.48 168.03,261.35 118.26,500.98 -425.29,517.86 -543.5,16.73 24.84,1012.13 -699.13,999.73 -723.97,-12.54 -836.26,899.14 -1409.08,235.11z"/>
  <path class="fil8" d="M10713.09 7974.27c0,0 -4072.34,-693.91 -4913.27,150 -840.92,843.91 -5016.69,-204.39 -5755.41,1084.71 -333.62,582.04 1233.56,1575.81 3995.39,1375.61 2761.85,-200.2 6212.06,699.89 7328.41,-477.17 1116.4,-1177.04 339.47,-2042.35 -655.13,-2133.14z"/>
  <path class="fil9" d="M10772.61 8752.55c0,0 -11.61,131.49 -30.07,168.18 -18.41,36.68 -64.6,221.13 -88.23,256.51 -23.58,35.24 -65.86,292.58 17.2,318.82 83.02,26.06 277.39,66.61 336.35,-38.64 58.96,-105.25 61.94,-207.28 47.59,-284.84 -14.4,-77.38 -111.03,-431.3 -111.87,-466.68 -0.84,-35.56 -170.97,46.66 -170.97,46.66z"/>
  <path class="fil10" d="M7866.5 2968.67c0,0 -69.64,-23.82 -106.74,-30.72 -30.3,-5.78 -72.62,-20.93 -99.94,-27.03 -27.36,-6.3 -147.48,-19.16 -176.8,-14.36 -11.98,2.09 -80.27,46.05 -105.11,47.17 -24.84,1.12 -75.6,-3.07 -73.46,20.28 2.14,23.35 47.03,40.74 47.03,40.74 0,0 -22.51,2.56 -26.47,23.49 -7.6,40.69 11.42,57.29 11.42,57.29 0,0 -21.02,18.97 -20.23,37.01 1.72,39.57 20.51,55.05 20.51,55.05 0,0 -9.65,19.62 -2.98,45.86 8.48,33.47 39.34,41.67 39.34,41.67 0,0 1.77,44.42 23.54,52.63 21.72,8.39 41.35,1.91 59.62,3.4 18.27,1.4 173.77,-30.62 273.05,-108 80.73,-62.78 219.73,-93.18 219.73,-93.18l-82.51 -151.3z"/>
  <path class="fil11" d="M6930.16 3457.25l630.05 881.29c1.91,-92.39 20.98,-217.77 43.02,-362.59 55.28,-363.06 130.93,-860.51 -90.43,-943.7 -280.46,-105.39 -419.36,167.52 -493.99,314.3 -19.53,38.32 -33.65,66.15 -47.27,81.76 -13.94,16.08 -28.43,24.61 -41.39,28.94zm806.06 1229.53l-898.91 -1257.54 45.07 -38.27c3.03,3.07 13.99,11.42 24.15,10.95 6.48,-0.32 13.33,-4.52 20.28,-12.59 8.81,-10.11 23.58,-39.06 39.2,-69.68 77.09,-151.58 237.53,-467.01 567.69,-342.93 266.34,100.26 189.71,603.67 128.18,1008.08 -30.39,199.87 -59.1,388.46 -31.7,452.83l106.04 249.14z"/>
  <polygon class="fil11" points="6826.26,5232.32 6236.29,3617.87 6236.29,3617.87 5788.87,3427.32 6728.7,2930.07 6786.08,3167.6 7869.81,4680.21 "/>
  <path class="fil12" d="M7364.53 2995.56c0,0 137.46,-33.47 175.92,-1.44 38.45,32.16 -10.49,47.12 -10.49,47.12 0,0 48.15,-15.76 64.6,24.8 16.5,40.55 -41.67,54.91 -41.67,54.91 0,0 39.62,-1.3 42.14,44.38 2.51,45.86 -48.52,45.72 -48.52,45.72 0,0 57.47,31.84 18.13,69.03 -66.42,62.6 -170.42,39.9 -170.42,39.9 0,0 -24.47,-8.81 -24.05,-52.95 0,0 -61.06,-18.64 -37.24,-89.64 0,0 -47.73,-57.42 0.51,-92.34 0,0 -48.01,-66.47 31.09,-89.49z"/>
  <path class="fil9" d="M9613.89 9197.36c-86.65,26.05 -112.38,173.63 -185.98,217.07 -73.6,43.49 -433.3,74.35 -446.5,-38.27 -13.19,-112.66 150.56,-213.9 224.11,-270.39 73.6,-56.45 261.17,-257.62 294.82,-331.5 0,0 19.95,43.77 88.65,38.13 88.98,-7.37 109.63,-27.83 109.63,-27.83 14.36,88.65 27.45,149.02 36.22,182.81 30.58,117 -34.3,203.74 -120.96,229.98z"/>
  <path class="fil13" d="M9629.78 1491.35c0,0 -248.72,29.74 -353.55,173.96 -104.83,144.17 -139.04,364.37 -162.21,437.08 -23.12,72.9 -344.32,760.1 -365.53,777.3 -21.21,17.06 -315.47,6.1 -492.32,11.42 -248.44,7.41 -544.47,1.77 -544.47,1.77l36.78 355.65c0,0 1181.7,25.78 1263.18,-67.26 179.92,-205 585.82,-919.37 585.82,-919.37 0,0 423.42,-579.39 32.3,-770.54z"/>
  <path class="fil14" d="M9212.42 2303.89c0,0 -23.87,319.29 40.65,527.36l69.73 -100.11c0,0 -119.7,-318.13 -110.38,-427.25z"/>
  <path class="fil15" d="M10340.66 741.88c0,0 -19.44,249.14 26.43,501.12 45.86,252.03 118.86,451.77 118.86,451.77l-406.74 -137.93c0,0 -26.76,-780.38 261.45,-814.96z"/>
  <path class="fil16" d="M10619.49 3570.7c0,0 228.31,383.33 295.57,762.2 67.26,378.67 84.93,1569.56 88.19,1756.89 3.17,187.14 44.75,619.56 40.28,1021.73 -3.96,354.39 -39.25,1585.32 -39.25,1585.32l-336.72 -50.2c0,0 -208.17,-1232.88 -230.22,-1380.92 -22,-147.9 -94.25,-697.5 -103.06,-758.52 -8.81,-60.96 -470.36,-1708.23 -470.83,-1981.33 -0.47,-273.15 163.09,-1399.8 756.04,-955.17z"/>
  <path class="fil16" d="M9394.3 3712.17c-15.57,87.07 -247.32,1583.55 -268.44,1778.48 -23.54,217.4 -55.79,587.22 -46.24,677.32 22.19,209.1 70.01,477.49 70.01,477.49l227.05 2100.47 365.21 -97.65c0,0 81.85,-1137.33 73.18,-1425.39 -8.72,-288.06 -122.22,-788.86 -91.78,-914.71 30.44,-125.85 478.8,-1553.15 478.8,-1553.15 0,0 381.94,-1618.64 -807.78,-1042.85z"/>
  <path class="fil13" d="M9413.27 3557.84c-14.87,103.48 -81.24,493.9 -81.24,493.9 683.37,218.56 1477.69,-85.44 1477.69,-85.44 -13.79,-75 -186.63,-638.77 -214,-693.31 -27.32,-54.4 -68.33,-207.89 -27.92,-397.83 10.67,-50.02 44.7,-158.01 103.94,-298.5 25.97,-61.67 44.51,-106.56 72.06,-174.28 0,-0.19 0,-0.19 0,-0.19 117.13,-288.2 232.27,-599.62 210.4,-655.97 -38.78,-99.94 -227.32,-144.96 -318.17,-160.76 -90.89,-15.76 -418.1,-137.74 -418.1,-137.74l-348.61 0.47c0,0 -412.05,67.78 -451.71,105.9 -79.94,76.96 -146.74,483.27 -146.74,483.27 -149.34,330.71 31.97,587.26 54.21,658.85 41.86,134.85 70.06,308.52 80.36,397.04 10.39,88.51 15.43,411.81 7.83,464.58z"/>
  <path class="fil10" d="M10099.63 1.26c-124.92,-13.33 -426.78,73.41 -464.63,534.45 -37.8,461.09 73.88,692.51 176.15,742.39 102.27,49.74 385.99,-30.25 512.78,-253.01 126.78,-222.71 282.61,-740.75 102.96,-885.91 -179.64,-145.01 -327.26,-137.92 -327.26,-137.92z"/>
  <path class="fil15" d="M9774 454.28c0,0 -109.82,78.54 -146.64,182.53 0,0 -83.81,-582.42 413.12,-631.22 378.12,-37.15 515.76,199.73 472.65,471.9 -31.6,199.36 -129.53,425.34 -129.53,425.34 0,0 -32.4,-112.66 -99.8,-115.88 -67.4,-3.07 -497.77,-256.04 -509.79,-332.67z"/>
  <path class="fil10" d="M10020.76 1695.56c213.44,-0.32 261.26,-224.34 261.26,-224.34 0,0 -47.12,-302.05 72.11,-503.73 119.23,-201.46 -483.92,324.79 -483.92,324.79 0,0 0.6,49.22 -2.33,108.14 -3.17,62.93 -12.4,121.19 -28.71,158.2 0,0 -31.84,137.27 181.6,136.95z"/>
  <path class="fil10" d="M10234.8 670.1c22.8,-22.18 129.35,-59.06 131.82,76.91 2.52,136.15 -151.72,236.6 -165.52,141.14 -13.8,-95.42 -4.66,-180.71 33.7,-218.05z"/>
  <path class="fil17" d="M9867.88 1400.41c7.36,-2.1 15.47,-4.66 24.33,-7.55 198.57,-67.31 293.47,-212.27 293.47,-212.27 -188.5,111.5 -315.66,111.17 -315.66,111.17 0,0 0.79,49.74 -2.14,108.65z"/>
  <path class="fil16" d="M10655.71 2615.3c0,0 -325.16,-184.95 -458.29,-403.33l-769.15 -50.66 -177.35 368.18c0,0 241.49,512.59 81.1,1522.25 -77.75,489.38 1481.37,-72.11 1481.37,-72.11 0,0 -224.2,-793.71 -157.69,-1364.33z"/>
  <path class="fil16" d="M10197.42 2211.97c0,0 151.63,-475.07 358.49,-647.44 0,0 -54.86,-55.33 -109.49,-35.52 0,0 -159.13,87.54 -418.11,671.87 -258.97,584.32 169.11,11.09 169.11,11.09z"/>
  <path class="fil16" d="M9428.28 2161.3c0,0 55.8,-444.49 136.43,-654.53l65.07 -15.43c0,0 -96.62,509.19 -86.14,677.5 10.49,168.5 -115.37,-7.55 -115.37,-7.55z"/>
  <path class="fil9" d="M9084.75 9198.3c0,0 285.96,-110.38 255.02,-350.01 -30.91,-239.63 -75.32,-725.47 -75.32,-725.47 0,0 209.38,105.25 544.8,21.91 0,0 -79.48,650.61 -66.66,907.62 4.2,84.18 -657.83,145.94 -657.83,145.94z"/>
  <path class="fil9" d="M10670.58 9141.06c0,0 56.35,-157.92 16.92,-298.41 -39.48,-140.49 -131.82,-646.93 -131.82,-646.93 0,0 130.7,78.21 490.08,-0.79 0,0 -35.19,749.29 9.69,977.64l-384.87 -31.51z"/>
  <path class="fil10" d="M10331.57 3835.27c0,0 -23.49,25.59 -51.42,28.34 -48.1,4.52 -109.44,-44.09 -153.72,10.62 -44.28,54.54 86.88,253.8 128,274.54 41.07,20.61 122.31,-32.67 200.9,-159.18 78.63,-126.32 -123.75,-154.34 -123.75,-154.34z"/>
  <path class="fil10" d="M10144 3858.16c0,0 -93.04,44.89 -190.36,108.47 -85.35,55.65 -176.05,134.38 -160.86,157.55 20.79,31.7 84.88,-39.43 173.25,-88.51 81.34,-45.4 73,-21.91 73,-21.91 0,0 2,-6.76 -76.87,60.83 -84.83,72.9 -174.98,162.07 -156.57,183.13 11.56,13.05 11.7,15.94 46.85,-5.13 -17.58,16.74 -15.52,24.29 -9.32,32.82 32.26,44.09 173.54,-42 229.61,-76.12 -42.93,26.57 -71.55,50.86 -35.33,65.21 41.44,16.22 235.62,-115.09 309.69,-154.98 80.83,-43.63 -203.09,-261.36 -203.09,-261.36z"/>
  <path class="fil13" d="M10555.91 1564.53c0,0 357.42,13.24 452.93,245.13 124.08,301.4 142.26,392.66 162.62,533.8 19.16,133.4 105.44,497.25 114.2,534.77 8.72,37.66 203.51,485.51 114.85,642.45 -89.22,157.69 -996.75,622.78 -990.92,657.37 5.83,34.77 -157.88,-350.19 -157.88,-350.19 0,0 367.16,-205.46 427.25,-268.58 97.6,-102.64 303.72,-213.39 261.12,-340.55 -50.06,-149.16 -200.43,-652.56 -235.25,-726.26 -34.87,-73.69 -369.96,-833.6 -148.93,-927.95z"/>
  <path class="fil18" d="M5421.99 8349.4c49.08,9.32 238.61,28.67 326,-204.86 0,0 -51.69,51.18 -130.09,21.91 -55.89,-20.79 -138.76,13.01 -180.99,81.57 13.52,-148.36 -14.03,-250.26 -19.67,-385.57 -0.84,-20.61 -0.94,-39.3 -0.56,-56.49 33.65,-6.11 238.19,-54.4 225.51,-318.31 0,0 -27.22,67.4 -110.84,71.41 -66.33,3.4 -136.76,82.08 -136.02,174.33 -10.91,28.81 -18.41,62.74 -19.11,112.01 -0.93,65.63 15.99,132.94 26.24,206.96 -8.95,-19.02 -20.04,-38.46 -35.99,-58.13 -84.74,-104.41 -177.26,-117.13 -194.69,-143.84 0,0 -32.63,118.91 99.33,198.9 80.87,48.94 120.03,95.46 138.39,124.26 -2,52.58 -11.7,108.79 -35.84,170.42 -81.57,208.4 31.04,426.78 31.04,426.78l72.06 -44.56c0,0 -109.49,-126.18 -59.43,-351.64 2,-8.86 2.94,-16.6 4.66,-25.13z"/>
  <path class="fil18" d="M6670.11 9656.82c49.09,9.32 238.61,28.8 326.05,-204.86 0,0 -51.69,51.18 -130.14,22.05 -55.89,-20.74 -138.77,12.87 -180.99,81.57 13.52,-148.51 -13.98,-250.4 -19.62,-385.72 -0.88,-20.46 -0.98,-39.15 -0.6,-56.35 33.65,-6.11 238.19,-54.54 225.55,-318.45 0,0 -27.27,67.4 -110.89,71.59 -66.33,3.36 -136.71,81.9 -135.97,174.1 -10.95,28.8 -18.41,62.93 -19.11,112.19 -0.94,65.49 15.94,132.94 26.24,206.96 -9,-19.02 -20.04,-38.45 -36.03,-58.26 -84.74,-104.27 -177.22,-117 -194.65,-143.84 0,0 -32.67,119.09 99.28,199.03 80.87,48.94 120.03,95.46 138.44,124.27 -2.05,52.44 -11.75,108.79 -35.84,170.41 -81.62,208.4 31.04,426.78 31.04,426.78l72.01 -44.56c0,0 -109.49,-126.18 -59.43,-351.64 2,-8.86 2.98,-16.55 4.66,-25.26z"/>
  <path class="fil18" d="M8582.74 9623.02c49.09,9.32 238.61,28.8 326.05,-204.86 0,0 -51.69,51.18 -130.14,22.05 -55.89,-20.93 -138.77,12.86 -180.99,81.43 13.52,-148.36 -13.98,-250.26 -19.62,-385.57 -0.88,-20.65 -0.98,-39.15 -0.61,-56.35 33.66,-6.25 238.19,-54.54 225.51,-318.45 0,0 -27.22,67.4 -110.84,71.59 -66.33,3.36 -136.71,81.9 -135.97,174.1 -10.95,28.81 -18.41,62.78 -19.11,112.06 -0.94,65.63 15.94,132.89 26.19,207.09 -8.95,-19.16 -20,-38.64 -35.98,-58.26 -84.74,-104.27 -177.27,-117 -194.65,-143.84 0,0 -32.68,118.9 99.28,198.89 80.87,49.09 120.03,95.6 138.44,124.41 -2.05,52.44 -11.75,108.74 -35.89,170.27 -81.57,208.54 31.04,426.78 31.04,426.78l72.06 -44.42c0,0 -109.49,-126.18 -59.43,-351.64 2.01,-9 2.98,-16.55 4.66,-25.26z"/>
  <path class="fil18" d="M7396.23 8346.04c49.13,9.32 238.65,28.62 326.05,-204.86 0,0 -51.69,51.13 -130.09,22 -55.89,-20.88 -138.76,12.91 -180.99,81.48 13.52,-148.41 -14.03,-250.26 -19.67,-385.62 -0.89,-20.61 -0.94,-39.25 -0.56,-56.49 33.65,-6.11 238.19,-54.35 225.51,-318.31 0,0 -27.22,67.45 -110.84,71.64 -66.33,3.17 -136.76,81.9 -136.02,174.09 -10.91,28.81 -18.41,62.79 -19.11,112.01 -0.88,65.68 15.99,132.94 26.24,206.96 -8.95,-18.97 -20,-38.46 -36.03,-58.08 -84.74,-104.27 -177.22,-117.18 -194.6,-143.89 0,0 -32.72,118.95 99.28,198.94 80.82,48.89 120.03,95.42 138.44,124.22 -2.05,52.63 -11.75,108.79 -35.89,170.46 -81.57,208.4 31.04,426.78 31.04,426.78l72.06 -44.42c0,0 -109.49,-126.18 -59.43,-351.64 2,-9 2.94,-16.73 4.62,-25.26z"/>
  <path class="fil18" d="M3588.83 8352.47c49.09,9.32 238.61,28.81 326.05,-204.86 0,0 -51.69,51.18 -130.14,22.05 -55.89,-20.93 -138.77,12.86 -180.99,81.43 13.52,-148.41 -14.03,-250.26 -19.67,-385.62 -0.84,-20.56 -0.93,-39.11 -0.56,-56.31 33.65,-6.3 238.19,-54.59 225.5,-318.5 0,0 -27.22,67.45 -110.84,71.64 -66.33,3.36 -136.71,81.9 -135.97,174.14 -10.95,28.8 -18.46,62.74 -19.11,111.96 -0.94,65.68 15.94,132.94 26.19,207 -8.95,-19.02 -19.99,-38.5 -35.98,-58.12 -84.74,-104.27 -177.26,-117.18 -194.65,-143.89 0,0 -32.67,118.95 99.28,198.94 80.87,49.08 120.03,95.6 138.44,124.41 -2.05,52.44 -11.75,108.79 -35.89,170.23 -81.57,208.59 31.05,426.82 31.05,426.82l72.06 -44.42c0,0 -109.49,-126.18 -59.38,-351.64 1.96,-9.05 2.89,-16.6 4.61,-25.27z"/>
  <path class="fil18" d="M1845.58 8384.96c49.09,9.37 238.62,28.67 326.07,-204.86 0,0 -51.69,51.18 -130.14,21.91 -55.87,-20.79 -138.76,13.01 -181,81.57 13.51,-148.37 -14,-250.26 -19.67,-385.57 -0.85,-20.61 -0.95,-39.3 -0.57,-56.49 33.67,-6.11 238.19,-54.4 225.51,-318.5 0,0 -27.23,67.45 -110.84,71.64 -66.32,3.36 -136.74,82.04 -135.99,174.1 -10.95,28.99 -18.43,62.93 -19.12,112.19 -0.91,65.68 15.97,132.94 26.24,206.96 -8.98,-19.02 -20.03,-38.46 -36.01,-58.26 -84.74,-104.27 -177.22,-117 -194.66,-143.71 0,0 -32.67,118.91 99.31,198.9 80.86,48.94 120.03,95.42 138.41,124.22 -2.03,52.49 -11.73,108.79 -35.85,170.46 -81.59,208.4 31.04,426.78 31.04,426.78l72.05 -44.56c0,0 -109.49,-126.18 -59.41,-351.64 1.97,-8.86 2.93,-16.6 4.63,-25.13z"/>
  <path class="fil19" d="M3030.15 8933.44c0,0 540.56,-601.9 1192.75,-1.96l-1192.75 1.96z"/>
  <path class="fil19" d="M1406.98 8936.34c0,0 540.53,-602.04 1192.74,-2.1l-1192.74 2.1z"/>
  <path class="fil19" d="M4819.29 8863.25c0,0 540.51,-602.04 1192.71,-2.09l-1192.71 2.09z"/>
  <path class="fil19" d="M6837.4 8821.9c0,0 540.51,-601.9 1192.75,-2.1l-1192.75 2.1z"/>
  <path class="fil19" d="M8078.49 10102.75c0,0 540.51,-602.04 1192.7,-2.1l-1192.7 2.1z"/>
  <path class="fil20" d="M5788.87 3427.32c0,0 -3432.96,1625.87 -2464.69,6175.61l-1598.55 2.71c0,0 -501.55,-5363.49 4353.03,-6331.67l-289.79 153.35z"/>
  <path class="fil18" d="M2923.26 9714.1c49.08,9.32 238.61,28.67 326.05,-205 0,0 -51.69,51.32 -130.14,22 -55.89,-20.74 -138.77,13.05 -180.99,81.62 13.52,-148.56 -14.03,-250.26 -19.67,-385.76 -0.84,-20.41 -0.93,-39.11 -0.56,-56.31 33.66,-6.15 238.19,-54.58 225.55,-318.5 0,0 -27.31,67.45 -110.89,71.64 -66.33,3.36 -136.76,82.04 -135.97,174.1 -10.95,28.8 -18.46,62.93 -19.16,112.19 -0.88,65.49 15.99,132.89 26.29,206.96 -9,-19.02 -20.04,-38.5 -36.03,-58.26 -84.74,-104.27 -177.22,-117 -194.7,-143.89 0,0 -32.63,119.09 99.33,199.08 80.87,48.94 120.03,95.42 138.44,124.22 -2.05,52.49 -11.75,108.79 -35.85,170.46 -81.62,208.4 31,426.78 31,426.78l72.06 -44.56c0,0 -109.49,-126.18 -59.43,-351.64 2.01,-8.86 2.98,-16.6 4.66,-25.13z"/>
  <path class="fil19" d="M2261.61 10204.78c0,0 540.51,-601.85 1192.75,-1.91l-1192.75 1.91z"/>
  <path class="fil18" d="M2351.15 9078.92c49.08,9.32 238.61,28.81 326.05,-204.86 0,0 -51.69,51.32 -130.14,22 -55.89,-20.74 -138.76,13.05 -180.99,81.62 13.52,-148.51 -13.98,-250.21 -19.62,-385.76 -0.89,-20.41 -0.98,-39.1 -0.61,-56.31 33.65,-6.1 238.23,-54.54 225.55,-318.5 0,0 -27.27,67.45 -110.89,71.64 -66.28,3.35 -136.71,82.04 -135.97,174.09 -10.95,28.81 -18.41,62.93 -19.11,112.2 -0.93,65.49 15.94,132.94 26.24,206.96 -9,-19.02 -20.04,-38.5 -36.03,-58.27 -84.74,-104.27 -177.22,-116.99 -194.65,-143.89 0,0 -32.68,119.1 99.28,199.08 80.87,48.94 120.03,95.42 138.44,124.22 -2.05,52.48 -11.74,108.79 -35.89,170.46 -81.57,208.4 31.04,426.78 31.04,426.78l72.06 -44.56c0,0 -109.49,-126.18 -59.43,-351.64 2,-8.85 2.98,-16.59 4.66,-25.26z"/>
  <path class="fil19" d="M1696.71 9605.64c0,0 540.52,-601.9 1192.76,-2.1l-1192.76 2.1z"/>
  <path class="fil18" d="M4094.39 9046.57c49.08,9.32 238.61,28.62 326.05,-204.86 0,0 -51.69,51.18 -130.14,22.05 -55.89,-20.93 -138.76,12.86 -180.99,81.43 13.52,-148.41 -14.03,-250.26 -19.62,-385.62 -0.88,-20.56 -0.98,-39.25 -0.61,-56.31 33.65,-6.29 238.19,-54.58 225.55,-318.5 0,0 -27.27,67.45 -110.84,71.64 -66.33,3.22 -136.76,81.89 -136.02,174.09 -10.95,28.81 -18.46,62.79 -19.11,112.01 -0.88,65.67 15.99,132.94 26.24,206.96 -9,-18.97 -20.04,-38.46 -36.03,-58.08 -84.74,-104.27 -177.22,-117.18 -194.65,-143.89 0,0 -32.68,118.95 99.33,198.94 80.83,49.09 120.03,95.42 138.39,124.22 -2.05,52.63 -11.7,108.79 -35.85,170.41 -81.62,208.45 31.04,426.83 31.04,426.83l72.06 -44.61c0,0 -109.49,-125.99 -59.43,-351.45 1.96,-9.04 2.94,-16.73 4.62,-25.26z"/>
  <path class="fil19" d="M6060.34 10143.96c0,0 540.51,-601.9 1192.75,-1.91l-1192.75 1.91z"/>
  <path class="fil18" d="M7861.09 9011.8c49.08,9.32 238.61,28.67 326.05,-204.86 0,0 -51.69,51.18 -130.14,22.05 -55.89,-20.93 -138.76,12.86 -180.99,81.43 13.52,-148.37 -14.03,-250.26 -19.67,-385.57 -0.84,-20.65 -0.94,-39.3 -0.56,-56.49 33.65,-6.11 238.19,-54.4 225.51,-318.31 0,0 -27.22,67.4 -110.84,71.6 -66.33,3.22 -136.71,81.9 -135.97,174.1 -10.96,28.8 -18.46,62.78 -19.11,112.05 -0.98,65.63 15.94,132.94 26.2,206.91 -8.95,-18.97 -20,-38.46 -35.99,-58.08 -84.74,-104.27 -177.26,-117.14 -194.69,-143.84 0,0 -32.63,118.9 99.33,198.89 80.87,49.08 120.03,95.42 138.44,124.22 -2.05,52.63 -11.75,108.79 -35.89,170.46 -81.57,208.4 31.04,426.78 31.04,426.78l72.06 -44.61c0,0 -109.49,-126.13 -59.43,-351.45 2,-9 2.94,-16.74 4.66,-25.26z"/>
  <path class="fil19" d="M7302.26 9500.85c0,0 540.51,-602.04 1192.75,-2.05l-1192.75 2.05z"/>
  <path class="fil18" d="M5842.89 9043.64c49.13,9.37 238.65,28.67 326.05,-205 0,0 -51.69,51.37 -130.09,22.05 -55.89,-20.74 -138.76,13.05 -180.99,81.57 13.52,-148.37 -14.03,-250.22 -19.67,-385.57 -0.88,-20.61 -0.94,-39.25 -0.56,-56.49 33.65,-6.11 238.19,-54.54 225.51,-318.45 0,0 -27.22,67.4 -110.84,71.59 -66.33,3.4 -136.76,82.09 -135.97,174.14 -10.96,28.81 -18.46,62.93 -19.16,112.15 -0.88,65.49 15.99,132.94 26.24,206.96 -8.95,-18.97 -20,-38.46 -35.98,-58.26 -84.74,-104.27 -177.27,-117 -194.65,-143.71 0,0 -32.68,118.95 99.28,198.9 80.87,48.94 120.03,95.46 138.44,124.26 -2.05,52.44 -11.75,108.79 -35.89,170.42 -81.57,208.4 31.04,426.82 31.04,426.82l72.06 -44.61c0,0 -109.49,-126.18 -59.43,-351.64 2.01,-8.86 2.94,-16.55 4.62,-25.13z"/>
  <path class="fil19" d="M5284.11 9542.06c0,0 540.51,-601.85 1192.75,-1.91l-1192.75 1.91z"/>
  <path class="fil19" d="M3510.29 9575.71c0,0 540.51,-601.9 1192.75,-1.91l-1192.75 1.91z"/>
  <path class="fil18" d="M4666.5 9681.62c49.09,9.32 238.61,28.62 326.05,-204.86 0,0 -51.69,51.18 -130.14,22.05 -55.89,-20.93 -138.77,12.86 -180.99,81.39 13.52,-148.37 -13.98,-250.22 -19.67,-385.57 -0.84,-20.6 -0.93,-39.25 -0.56,-56.31 33.65,-6.3 238.23,-54.58 225.55,-318.5 0,0 -27.27,67.45 -110.89,71.6 -66.28,3.26 -136.71,81.94 -135.97,174.14 -10.95,28.8 -18.46,62.78 -19.16,112.01 -0.88,65.68 15.99,132.94 26.29,206.96 -9,-18.97 -20.04,-38.45 -36.03,-58.08 -84.74,-104.32 -177.22,-117.18 -194.65,-143.89 0,0 -32.67,118.95 99.28,198.94 80.87,49.04 120.03,95.42 138.44,124.22 -2.05,52.62 -11.75,108.79 -35.84,170.41 -81.62,208.4 31.04,426.78 31.04,426.78l72.01 -44.37c0,0 -109.49,-126.18 -59.38,-351.64 1.96,-9.05 2.94,-16.74 4.61,-25.26z"/>
  <path class="fil19" d="M4055.7 10178.08c0,0 540.51,-601.9 1192.75,-2.1l-1192.75 2.1z"/>
 </g>
</svg>
