<?xml version="1.0" encoding="UTF-8"?>
<!DOCTYPE svg PUBLIC "-//W3C//DTD SVG 1.1//EN" "http://www.w3.org/Graphics/SVG/1.1/DTD/svg11.dtd">
<!-- Creator: CorelDRAW 2020 (64 Bit) -->
<svg xmlns="http://www.w3.org/2000/svg" xml:space="preserve" width="392.529mm" height="211.134mm" version="1.1" style="shape-rendering:geometricPrecision; text-rendering:geometricPrecision; image-rendering:optimizeQuality; fill-rule:evenodd; clip-rule:evenodd"
viewBox="0 0 10662.36 5735.09"
 xmlns:xlink="http://www.w3.org/1999/xlink"
 xmlns:xodm="http://www.corel.com/coreldraw/odm/2003">
 <defs>
  <style type="text/css">
   <![CDATA[
    .fil8 {fill:#202338;fill-rule:nonzero}
    .fil9 {fill:#292C47;fill-rule:nonzero}
    .fil14 {fill:#3B3B3B;fill-rule:nonzero}
    .fil19 {fill:#3D3D3D;fill-rule:nonzero}
    .fil2 {fill:#454545;fill-rule:nonzero}
    .fil17 {fill:#474747;fill-rule:nonzero}
    .fil6 {fill:#515269;fill-rule:nonzero}
    .fil21 {fill:#538742;fill-rule:nonzero}
    .fil4 {fill:#545454;fill-rule:nonzero}
    .fil0 {fill:#616161;fill-rule:nonzero}
    .fil7 {fill:#6A6B8A;fill-rule:nonzero}
    .fil15 {fill:#757575;fill-rule:nonzero}
    .fil10 {fill:#784A36;fill-rule:nonzero}
    .fil3 {fill:#877373;fill-rule:nonzero}
    .fil13 {fill:#A17836;fill-rule:nonzero}
    .fil12 {fill:#A77860;fill-rule:nonzero}
    .fil20 {fill:#EDEDED;fill-rule:nonzero}
    .fil5 {fill:#EEA886;fill-rule:nonzero}
    .fil11 {fill:#FFBF55;fill-rule:nonzero}
    .fil1 {fill:url(#id0)}
    .fil16 {fill:url(#id1)}
    .fil18 {fill:url(#id2)}
   ]]>
  </style>
  <linearGradient id="id0" gradientUnits="userSpaceOnUse" x1="2262.61" y1="3957.45" x2="3201.74" y2="3955.85">
   <stop offset="0" style="stop-opacity:1; stop-color:#698C33"/>
   <stop offset="0.101961" style="stop-opacity:1; stop-color:#698C33"/>
   <stop offset="1" style="stop-opacity:1; stop-color:#677D2E"/>
  </linearGradient>
  <linearGradient id="id1" gradientUnits="userSpaceOnUse" x1="7250.25" y1="3566.21" x2="7491.21" y2="2100.41">
   <stop offset="0" style="stop-opacity:1; stop-color:#545454"/>
   <stop offset="1" style="stop-opacity:1; stop-color:#677D2E"/>
  </linearGradient>
  <linearGradient id="id2" gradientUnits="userSpaceOnUse" xlink:href="#id0" x1="8914.72" y1="1130.67" x2="7621.45" y2="2863.83">
  </linearGradient>
 </defs>
 <g id="Camada_x0020_4">
  <metadata id="CorelCorpID_0Corel-Layer"/>
  <polygon class="fil0" points="2422.75,4617.69 2234.02,4618.04 2232.91,3994.06 2421.92,3993.76 "/>
  <polygon class="fil1" points="2310.07,4178.99 2262.61,4041.96 3154.37,3734.16 3201.56,3871.19 "/>
  <path class="fil2" d="M2483.26 4562.67c-92.42,-125.06 -184.85,-210.6 -184.85,-276.55 -0.28,-65.83 -751.05,258.34 -895.65,581.66 0,0 638.92,-264.75 863.46,-139.88 224.26,124.84 276.99,164.42 276.99,164.42l144.88 -92.67 -204.83 -236.97z"/>
  <path class="fil3" d="M10209.94 4916.58c-665.56,-162.34 -2633.11,-137.44 -3155.45,-97 -522.62,40.44 -2923.97,127.28 -3365,58.18 -441.03,-69.08 -1389.13,-77.99 -2753.56,-111.16 -1364.43,-33.14 -1126.02,678.27 1.11,676.33 1127.13,-1.8 2240.38,251.38 3329.75,289.12 1088.82,37.66 2436.88,-286.71 3530.14,-280.96 1150.44,6.02 3955.9,-157.92 2413.01,-534.5z"/>
  <path class="fil4" d="M5817.18 2150.83l-3.61 -0.86c-11.93,-2.89 -19.43,-15.04 -16.37,-27.12l135.17 -557.9c2.77,-11.96 14.99,-19.46 26.92,-16.49l3.61 0.86c12.21,2.89 19.43,15.04 16.65,27.14l-135.17 557.87c-3.05,11.99 -15.27,19.46 -27.2,16.49z"/>
  <polygon class="fil4" points="5888.23,1869.98 5899.88,1822.83 6501.33,1968.56 6489.95,2015.83 "/>
  <path class="fil5" d="M5938.74 1981.8c0,0 -22.21,5.36 -33.03,2.97 0,0 -19.15,-5.75 -33.03,-9.02 -4.44,-0.95 -8.33,-1.72 -10.82,-2 -10.54,-1.05 -34.42,-0.08 -59.4,-9.88 -24.7,-9.69 -121.57,-79.04 -121.57,-79.04l22.76 -62.98 12.77 -61.89c0,0 161.53,-27.87 185.68,-21.56 2.22,0.69 4.72,1.36 6.94,2.22 19.98,7.38 31.64,21.26 41.63,26.34 3.89,1.83 39.14,23.01 41.08,35.17 2.5,16.87 -2.5,29.61 -11.1,37.58 0,0 3.61,33.25 -8.88,52.12 0,0 4.44,30.67 -17.48,49.82 0,0 0.83,31.53 -15.54,40.16z"/>
  <path class="fil6" d="M4720.03 3626.95l-34.97 75.49c0,0 -146.82,-54.51 -147.66,-56.34 -0.55,-1.81 40.25,-104.83 40.25,-104.83l142.38 85.68z"/>
  <path class="fil7" d="M5977.6 3623.09l40.8 118.74c0,0 -161.26,35.75 -184.57,33.92 -1.94,-0.17 -30.81,-134.42 -30.81,-134.42l174.58 -18.23z"/>
  <path class="fil8" d="M5815.79 3741.16c0,0 112.68,-30.75 115.74,-35.64 3.33,-4.88 44.69,-32.86 66.06,-29.34 21.37,3.55 23.31,28.95 44.41,34.11 21.37,5.19 185.96,57.59 208.99,70.91 22.76,13.43 131.56,-26.34 152.65,1.83 20.82,28.17 41.36,102.25 -129.61,128.12 -170.97,25.98 -354.15,102.64 -394.95,92.28 -41.08,-10.35 -69.39,-216.65 -63.28,-262.28z"/>
  <path class="fil8" d="M4525.74 3625.98c0,0 104.64,44.38 110.19,42.66 5.28,-1.72 53.57,1.81 68,17.35 13.88,15.51 0.28,36.19 13.32,52.98 13.05,16.77 87.71,115.07 109.36,137.8 17.76,18.57 115.74,35.72 147.1,68.42 23.59,24.62 -3.88,123.42 -170.14,76.46 -162.09,-45.63 -362.48,-124.87 -387.46,-157.45 -25.26,-32.58 77.44,-207.16 109.63,-238.22z"/>
  <path class="fil9" d="M4630.38 2145.86c0,0 459.34,203.33 556.76,272.91 97.42,69.64 310.58,197.86 317.79,229.31 7.22,31.42 49.13,0.67 -26.09,158.01 -75.21,157.26 -431.59,536.06 -465.17,577.16 -34.7,43.02 -281.99,300.22 -281.99,300.22l-186.79 -140c0,0 357.48,-527.43 409.11,-604.97 51.9,-77.52 75.22,-89.01 44.41,-123.12 -30.81,-34.22 -153.21,-33.44 -784.07,-293.62 -63.01,-25.98 -238.97,-86.04 -262.29,-170.67 -42.19,-152.73 -6.38,-346.6 162.92,-432.06 169.3,-85.49 515.41,226.81 515.41,226.81z"/>
  <path class="fil5" d="M4846.31 667.75c-4.16,3.53 -8.6,11.3 -13.04,22.04 -6.66,15.43 -13.6,36.8 -20.26,60.37 -20.54,72.91 -39.41,166.34 -39.41,166.34 0,0 -263.12,-218.46 -225.92,-232.28 36.91,-13.8 64.39,-77.8 64.39,-77.8 0,0 261.73,36.69 234.25,61.34z"/>
  <path class="fil9" d="M4623.16 2063.26c0,0 474.33,110.77 591.73,148.04 117.12,37.28 319.18,102.92 373.3,133.78 28.86,16.38 73,40.8 126.01,212.16 59.95,194.23 197.34,740.33 228.14,825.32 19.71,53.48 75.77,263.62 75.77,263.62l-242.3 42.46c0,0 -289.48,-580.6 -313.08,-735.45 -39.97,-260.65 -140.99,-261.81 -181.8,-285.57 -41.08,-23.68 -237.3,21.26 -937,-33.36 -69.94,-5.44 -261.17,-8.61 -310.86,-83.93 -89.37,-136.17 -179.85,-290.73 -41.35,-428.06 138.5,-137.22 631.42,-59.01 631.42,-59.01z"/>
  <path class="fil5" d="M4937.9 118.76c0,0 82.43,141.63 63.84,180.24 -18.87,38.61 85.76,131.86 68.83,151.71 -17.21,19.82 -52.45,43.88 -51.9,49.63 0.55,5.75 -29.97,190.59 -70.22,194.81 -40.25,4.22 -315.85,-9.69 -338.61,-95.73 -23.03,-86.15 -90.48,-274.63 -106.58,-309.71 -15.82,-34.97 142.38,-305.86 434.64,-170.94z"/>
  <path class="fil10" d="M4598.46 91.92c-23.04,17.07 -41.35,35.08 -56.34,53.57 -18.04,8.44 -124.34,61.53 -102.14,118.74 29.98,76.85 150.71,282.68 160.98,304.25 1.39,2.89 1.39,-2.58 0.28,-14.1 7.22,-72.83 96.59,-154.46 96.59,-154.46l47.74 -21.65c-24.98,-46.3 -14.99,-89.7 -14.99,-89.7 53.85,-58.06 233.42,-120.85 233.42,-120.85 -26.09,-256.43 -245.35,-165.39 -365.53,-75.8z"/>
  <path class="fil5" d="M4690.89 354.76c-13.6,-20.6 -84.93,-17.04 -74.38,43.63 10.55,60.75 97.97,109.33 117.13,82.21 18.87,-27.12 -28.31,-103.89 -42.74,-125.84z"/>
  <path class="fil11" d="M4547.67 684.21c0,0 -332.5,194.45 -406.89,533.28 -74.66,338.74 -209.55,933.64 -211.77,1003.97 0,0 449.91,-217.43 694.15,-158.2 0,0 152.65,-552.07 233.14,-682.57 80.49,-130.42 -39.97,-436.58 -39.97,-436.58 0,0 -115.18,-183.71 -268.67,-259.89z"/>
  <path class="fil12" d="M4833.27 689.79c-6.66,15.43 -13.6,36.8 -20.26,60.37 -39.41,-16.29 -114.35,-85.37 -116.85,-87.48 31.36,12.07 137.11,27.11 137.11,27.11z"/>
  <path class="fil11" d="M4694.22 946.22c0,0 79.38,112.1 128.5,197.12 55.79,96.31 110.46,191.37 122.4,212.82 24.7,43.49 111.85,66.59 150.43,83.07 35.53,15.15 623.37,299.17 630.87,298.5 7.49,-0.67 -34.69,174.61 -34.69,174.61 0,0 -845.97,-259.2 -882.88,-292.95 -37.19,-33.64 -146.82,-186.84 -191.79,-250.02 -42.74,-60.17 -108.24,-158.76 -143.22,-201.3 -38.86,-47.54 -120.46,-210.16 -17.21,-291.59 132.11,-104 205.66,22.12 237.58,69.75z"/>
  <path class="fil13" d="M4469.4 1162.4c0,0 95.48,257.29 152.65,344.96 57.45,87.68 120.46,160.5 120.46,160.5l30.25 -88.92c0,0 -246.19,-337.39 -303.36,-416.55z"/>
  <polygon class="fil14" points="8803.32,4128.01 5303.15,4133.94 5303.15,4074.63 8803.32,4068.69 "/>
  <polygon class="fil15" points="9963.2,3961.28 9126.11,3962.7 9125.28,3554.01 9962.37,3552.56 "/>
  <polygon class="fil14" points="9474.71,3632.5 8413.64,3634.33 8413.09,3324.5 9474.44,3322.7 "/>
  <path class="fil16" d="M6184.09 2735.1l89.09 -0.22 594.79 935.01 1545.67 -2.61 -0.56 -342.77c0,0 -284.76,-790.46 -2228.99,-589.4z"/>
  <polygon class="fil4" points="3193.78,154.51 3424.43,154.12 4245.7,2646.17 4002.28,2646.53 "/>
  <polygon class="fil4" points="5129.69,3396 3364.2,3398.97 3362.54,2443.67 5128.02,2440.7 "/>
  <polygon class="fil17" points="7250.99,4071.27 5547.12,4074.25 5546.56,3764.44 7250.44,3761.47 "/>
  <polygon class="fil0" points="6739.19,3558.03 7017.02,4071.66 8513.28,4069.17 8848.56,3554.51 "/>
  <path class="fil18" d="M8311.78 3324.7l1307.53 -2.19 -0.28 -158.2 -48.57 -52.7c0,0 102.42,-903.17 -541.22,-902.12 -643.36,1.14 -1777.98,3.08 -1812.39,3.08 -34.69,0.08 -443.24,-177.19 -512.36,-236.41 -69.39,-59.23 -120.46,-156.2 -352.76,112.71 -62.17,72.05 -179.57,165.09 -262.56,152.04 -82.99,-13.1 -359.7,-19.15 -373.58,33.55 -13.87,52.79 194.56,447.91 298.37,460.92 103.8,13.05 1971.43,-108.85 2297.83,589.32z"/>
  <path class="fil19" d="M9815.54 4317.46c0.55,480.47 -388.29,870.67 -868.73,871.53 -480.44,0.78 -870.67,-388.1 -871.5,-868.56 -0.83,-480.58 388.01,-870.75 868.73,-871.64 480.44,-0.75 870.67,388.1 871.5,868.67z"/>
  <path class="fil20" d="M9545.21 4317.93c0.56,331.28 -267.56,600.26 -598.67,600.84 -331.39,0.58 -600.62,-267.55 -600.89,-598.81 -0.55,-331.28 267.28,-600.26 598.67,-600.84 331.12,-0.56 600.34,267.55 600.89,598.81z"/>
  <path class="fil19" d="M5566.55 3830.28c1.11,753.57 -608.66,1365.51 -1362.21,1366.76 -753.55,1.25 -1365.54,-608.58 -1366.93,-1362.07 -1.11,-753.57 608.67,-1365.51 1362.21,-1366.76 753.55,-1.33 1365.54,608.5 1366.93,1362.07z"/>
  <path class="fil20" d="M5130.52 3831.06c0.83,512.74 -414.38,929.12 -927.01,929.98 -512.63,0.86 -928.96,-414.08 -930.07,-926.82 -0.83,-512.77 414.1,-929.12 927.02,-930.01 512.63,-0.86 929.23,414.08 930.07,926.85z"/>
  <polygon class="fil21" points="5602.91,2901.82 5140.24,2440.7 3314.8,2443.78 2847.41,2912.84 2768.58,2912.95 3298.7,2381.11 5186.86,2377.84 5723.36,2912.84 "/>
  <polygon class="fil4" points="3685.32,2380.42 3362.54,2381 3360.87,1533.62 3683.94,1533.06 "/>
  <path class="fil4" d="M4881.84 1779.03l0 0zm49.4 600.17c-4.72,-248.49 -27.48,-541.61 -56.34,-602.47 -111.58,-30.84 -869.01,-10.91 -1385.8,13.71l-5 -105.41c3.33,-0.08 344.71,-16.29 689.43,-24.62 718.85,-17.43 750.77,14.38 774.08,37.55 18.6,18.59 53.29,53.09 75.49,378.6 10.55,152.46 13.6,299.17 13.6,300.72l-105.47 1.92z"/>
  <polygon class="fil4" points="7470.81,3519.42 7332.31,3519.7 7328.15,1008.39 7466.65,1008.11 "/>
  <path class="fil3" d="M1768.57 4872.2c0,0 61.06,-308.94 -286.15,-302.22 -347.21,6.8 -132.11,-73.88 -338.61,-116.82 -206.5,-42.85 -338.05,229.31 -557.6,204.97 -219.82,-24.45 -528.45,155.51 -574.25,352.93 -45.52,197.39 1756.61,-138.86 1756.61,-138.86z"/>
 </g>
</svg>
