<?xml version="1.0" encoding="UTF-8"?>
<!DOCTYPE svg PUBLIC "-//W3C//DTD SVG 1.1//EN" "http://www.w3.org/Graphics/SVG/1.1/DTD/svg11.dtd">
<!-- Creator: CorelDRAW 2020 (64 Bit) -->
<svg xmlns="http://www.w3.org/2000/svg" xml:space="preserve" width="153.568mm" height="48.868mm" version="1.1" style="shape-rendering:geometricPrecision; text-rendering:geometricPrecision; image-rendering:optimizeQuality; fill-rule:evenodd; clip-rule:evenodd"
viewBox="0 0 14959.98 4760.54"
 xmlns:xlink="http://www.w3.org/1999/xlink"
 xmlns:xodm="http://www.corel.com/coreldraw/odm/2003">
 <defs>
  <style type="text/css">
   <![CDATA[
    .fil0 {fill:#00B047}
   ]]>
  </style>
 </defs>
 <g id="Camada_x0020_1">
  <metadata id="CorelCorpID_0Corel-Layer"/>
  <g id="_2346995149648">
   <path class="fil0" d="M6098.1 4565.51l-62.6 2.07 228.69 -492.47 72.01 -1.48 81.28 491.6 -59.79 2.51 -22.2 -139.8 -171.12 -0.13c-1.66,1.99 -4.47,2.3 -5.11,5.84 -0.66,3.51 -4.01,4.65 -4.87,5.98l-56.29 125.88zm-1351.34 1.84l84.49 -493.97c96.56,0.24 175.07,-17 245.99,45.63 60.02,53 67.04,165.18 52.44,241.19 -48.09,249.98 -254.66,207.15 -382.91,207.15zm954.29 -0.26l-52.18 0.26 76.73 -493.47c101.39,-0.25 223.93,-22.75 254.34,98.65 11.01,43.92 8.42,100.71 -17.35,139.48 -35.63,53.63 -68.86,47.91 -106.9,75.63 -1.09,44.82 52.32,136.3 72.41,179.7l-62.61 -0.48 -107.89 -236.27 114.05 -12.94c38.53,-18.38 115.62,-179.65 -29.46,-179.65l-75.17 0 -65.97 429.07zm900.44 -64.67l142.81 0.54 -10.66 62.97 -193.39 1.51 69.72 -467.05c13.25,-39.28 5.42,-26.75 59.16,-26.75l-67.65 428.79zm-2123.22 -364.4l-17.28 150.84 156.9 -0.57 -12.82 62.51 -159.01 2 -21.76 150.11 160.47 0.48 -12.41 62.02 -212.21 2.03 78.38 -493.27 211.59 -0.54 -3.94 57.72c-47.05,15.38 -116.56,6.67 -167.91,6.67zm1060.37 -2.01l-158.24 2.12c-11.29,46.73 -21.58,99.32 -21.48,150.15l150.35 0 -3.56 57.65 -161.36 9.24c-11.24,38.63 -18.64,107.28 -28.4,147.77l161.09 0 -12.82 62.5 -212.7 1.98c11.63,-130.75 75.41,-367.52 75.18,-493.8l225.53 0 -13.59 62.39zm-1278 0l-158.23 2.12 -24.11 149.76 152.98 0.39 0 64.41 -164.86 1.73 -33.47 206.18 -59.3 8.09 82.42 -495.63 218.15 0.57 -13.59 62.39zm3976.45 -2359.25c15.2,-170.55 94.07,-694.14 96.66,-815.7 133.35,0 752.45,-9.61 831.57,6.12 202,40.12 458.86,183.06 395.35,437.15 -108.68,434.83 -611.57,372.44 -894.01,372.44 -143.19,0 -286.38,0 -429.58,0zm912.85 686.91l10.75 0 32.22 32.21c10.51,-17.31 0.23,-17.31 10.74,0l64.45 64.4c45.04,32.08 89.35,183.44 82.1,231.45 -11.03,72.87 -8.38,563.08 -18.35,647.96 -7.98,67.91 0.42,265.93 -20.8,311.95l2201.59 0c17.73,-38.44 78.53,-616.86 86,-719.04 10.75,-147.18 46.15,-292.64 53.66,-440.09 4.85,-95.09 27.24,-193.71 32.13,-289.87l66.77 -577.26c10.56,-69.49 13.6,-151.97 31.86,-215.86 12.7,-44.41 2.71,-14.49 -1.94,-65.48l11.17 11.53c80.12,126.15 229.52,418.21 310.87,557.46 201.14,344.25 446.06,836.77 640.27,1152.53 49.26,80.08 301.05,525.66 315.69,586.08 193.74,0 1428,19.37 1507.21,-7.06l297.92 -2567.95c22.48,-192.01 95.75,-675.09 95.75,-859.54l-1041.72 0c23.61,51.03 -110.77,972.92 -118.09,1116.27 -9.73,190.55 -50.51,376.34 -64.57,568.73 -2.63,36.06 -13.64,94.24 -19.18,131.08l-45.18 437.84c-38.02,-42.75 -595.34,-1094.09 -608.57,-1119.52 -50.87,-97.68 -587.68,-1063.07 -604.98,-1134.4l-1589.44 0c27.46,59.35 -33.89,377.37 -43.18,482.76 -32.54,368.66 -96.32,736.53 -128.87,1105.5l-117.68 998.61c-17.86,202.46 -64.66,407.27 -64.66,611.55l-10.74 0c0,-165.26 16.85,-347.28 -8.56,-506.63 -26.24,-164.69 16.77,-286.56 -32.19,-483 -44.76,-179.57 -65.46,-263.07 -188.19,-327.11 -108.84,-56.78 -274.93,-121.37 -393.95,-121.47 27.78,-55.27 61.94,-47.38 116.78,-65.75 299.31,-100.1 612.88,-303.61 708.17,-623.13 7.94,-26.61 10.86,-39.57 20.74,-66.01 19.92,-53.31 -7.33,-10.18 9.81,-63.81 19.58,-61.27 3.24,-92.48 3.75,-168.83 3.45,-524.15 -680.47,-772.7 -1117,-772.68 -349.55,0.01 -2187.68,-23.76 -2276.76,10.68 11.36,-38.56 43.76,-289.96 35.91,-314.88 -72.06,-24.04 -2698.62,-7.05 -3010.73,-7.05 0,110.83 -22.94,207.02 -32.22,311.25 877.04,0 1754.1,0 2631.16,0 85.86,0 287.48,-19.97 344.58,13.48 -41.16,68.34 -48.33,656.46 -98.13,667.73l-74.14 5.98c-604.83,9.17 -1210.6,-0.29 -1815.45,-0.29 15.91,34.4 -58.91,651.61 -75.18,719.12 99.41,0 1678.26,11.21 1729.05,0l-85.91 697.64c-51.02,-11.26 -1620.04,0 -1718.32,0 -4.95,9.26 -4.11,4.07 -6.73,18.51l-89.96 786.42c-2.94,57.84 -17.39,117.58 -21.35,171.85 -8.46,115.56 -32.29,226.38 -32.29,343.37 -46.68,-11.2 -482.55,0 -536.98,0 -169.03,0 -407.9,-13.78 -568.28,2.77 19.29,40.32 -6.28,191.45 -13.86,241.87l-62.46 517.17c-7.48,84.78 -30.21,174.25 -31.98,257.82l2985.56 0 128.88 -1008.89 1084.68 0 34.5 -330.46c20.71,-136.28 115.85,-913.85 115.85,-1011.17 79.68,36.7 275.72,6.57 376.31,10.31 44.95,1.67 63.54,11.51 117.61,11.26 133.82,-0.66 383.52,-23.9 494.1,32.09z"/>
   <path class="fil0" d="M751.68 3601.38l2.77 -9.81 7.92 6.19 -10.69 3.62zm1804.24 -568.85l9.81 2.76 -6.19 7.93 -3.62 -10.69zm32.22 -21.47l9.82 2.77 -6.2 7.92 -3.62 -10.69zm-2104.93 364.93l85.92 96.59 10.74 0 10.74 10.74 10.75 10.73 32.22 32.21 10.74 0c3.24,3.65 17.32,20.13 19.69,21.89 0.99,0.73 3.85,2.23 4.86,2.87l18.07 9.14c30.53,24.08 28.02,22.62 64.77,41.24 113.12,99.74 543.73,189.62 708.58,204.15 131.88,11.63 279.81,32.44 419.06,31.99 75.18,-0.26 150.38,-0.03 225.55,-0.02 153.72,0.04 478.17,-30.08 629.39,-57.9 337.15,-62.02 691.85,-194.58 935.9,-438.48 132.87,-132.79 292.15,-388.27 338.02,-574.48l169.33 -1419.25c5.37,-73.58 15.38,-141.73 21.78,-214.35l46.96 -403.85c11.51,-65.25 15.83,-134.22 25.77,-199.64 4.61,-30.38 8.54,-76.14 12.05,-106.03 3.7,-31.64 11.07,-78.86 11.64,-106.42l-1063.2 0c13.25,28.78 -37.09,442.66 -47.23,500.17l-184.47 1543.67c-24.93,110.42 -52.78,186.07 -94.71,291.72 -19.78,49.81 -118.91,202.57 -156.87,229.61l-10.75 10.74 -10.74 10.74 -10.74 10.74 -10.75 10.73 -10.74 10.74 -10.75 10.74 -10.74 0 -42.97 42.93 -10.74 0 -32.22 21.46 -32.22 21.47c-179.26,90.75 -223.34,99.02 -414.51,133.14 -134.35,23.97 -343.11,-12.53 -453.23,-81.64 -343.7,-215.71 -339.76,-541.23 -313.53,-899.33 1.97,-26.91 10.39,-99.08 14.9,-124.62l146.15 -1238.49c6.5,-127.41 53.66,-379.54 53.66,-504.49l-1106.16 0c0,70.41 -16.7,128.77 -21.41,193.26l-137.47 1182.77c-37.62,249.97 -98,844.9 -76.71,1027.47 33.81,289.82 76.18,411.81 235.59,655.4z"/>
   <path class="fil0" d="M10202.41 4170.22l23.72 182.14 -109.64 0.33 85.92 -182.47zm-440.32 150.26c-0.12,-65.08 20.24,-113.42 21.48,-171.73 5.59,-0.13 150.92,-34.59 139.98,85.3 -7.49,81.99 -94.43,86.43 -161.46,86.43zm-123.98 258.4l79.19 -1.19c8.39,-114.85 26.64,-150.68 37.31,-209.02 0.26,-1.45 -0.24,-4.99 0.01,-6.39l5.64 -18.5c15.01,41.19 38.46,77.09 54.13,117.62l55.09 116.67 139.62 0 65.94 -138.83 170.33 -0.69c0.01,20.5 15.34,133.47 19.02,135.99 13.41,9.24 137.33,3.53 163.55,3.53l36.55 -253.25c9.69,-57.21 -6.31,-48.82 29.72,-79.47l-14.66 -51.03c5.36,0.85 7.96,1 8.43,3.96 0.49,3.06 3.6,4.09 4.26,5.26 24.19,43.61 107.13,355.2 107.53,374.54l96.67 0c19.21,-79.72 30.85,-173.38 44.05,-256.5 12.45,-78.41 34.91,-180.8 41.86,-258.68l-85.02 0.72c19.05,41.89 -43.99,288.7 -43.85,364.19 -29.58,-21.14 -53.47,-134.16 -68.43,-178.47 -15.98,-47.35 -37.69,-148.72 -63.21,-183.7l-93.89 -2.75c0.23,124.9 -63.23,367.87 -77.02,502.61 -11.15,-12.82 -3.75,17.42 -12.12,-15.16 -8.27,-32.19 2.42,1.08 1.21,-28.19 -2.59,-62.58 -3.76,3.09 -18.48,-52.34 -10.16,-38.23 -14.76,-95.71 -23.29,-137.78 -13.15,-64.84 -42.07,-205.66 -42.13,-269.14l-96.67 0c-1.87,88.51 -187.52,381.26 -214.77,493.71l-85.92 -171.73c180.05,-3.81 200.84,-321.98 -10.75,-321.98l-128.86 0 -81.03 515.98z"/>
   <path class="fil0" d="M1277.93 4138.02l-9.83 -2.75 6.19 -7.93 3.64 10.68zm21.48 -53.66l2.75 -9.81 7.93 6.19 -10.68 3.62zm-21.48 53.66l21.48 -53.66c20.7,44.75 -54.21,448.42 -75.19,493.72l247.01 0c-0.03,-15.16 -0.01,-27.8 1.14,-42.98 2.5,-32.54 5.68,-11.54 1.63,-34.91 -43.01,-17.01 -104.6,-7.97 -153.11,-7.97l23.71 -139.13 157.02 -0.61 15.31 -74.37 -163.82 -0.55 24.37 -128.34 156.36 -0.68c15.53,-44.45 12.65,-37.66 12.58,-85.64 -397.77,0 -310.86,-29.77 -361.71,89.3 -22.21,52.04 -49.19,102.06 -71.32,154.1l-69.9 151.87 -29.73 -195.68c-8.38,-48.08 -24.8,-152.32 -25.81,-199.6l-171.82 0c20.52,44.35 -62.28,487.2 -75.19,515.18l79.08 -2.92c17.85,-58.23 30.68,-187.81 41.59,-252.13 6.33,-37.3 11.79,-83.27 19.63,-119.92 16.54,-77.34 9.23,45.03 22.63,-127.63 31.21,35.83 13.84,39.57 26.06,109.82l47.28 392.79 96.67 0c13.8,-56.99 170.41,-407.47 204.05,-440.06z"/>
   <path class="fil0" d="M2938.52 4179.09c16.47,53.56 25.49,117.38 25.49,173.61l-107.4 0 81.91 -173.61zm229.55 323.86l63.11 -365.15c139.98,0.53 211.27,63.21 178.11,209.69 -30.99,136.82 -113,155.46 -241.21,155.46zm-494.02 75.13l84.07 -0.38 57.87 -138.15 169.5 -0.99c0.98,46.81 28.25,100.12 10.74,139.52 206.05,0 412.49,47.66 479.14,-186.61 26.04,-91.53 24.03,-190.52 -36.5,-266.48 -64.29,-80.66 -184.98,-62.08 -281.54,-62.08 18.59,41.82 -64.38,418.62 -64.44,482.98 -41.76,-29.91 -14.7,-22.46 -16.27,-45.89 -1.95,-29.17 -6.37,-2.98 -16.28,-50.19l-64.11 -386.9c-122.52,0 -57.46,-39.58 -197.03,243.13 -42.84,86.79 -81.14,185.23 -125.14,272.04z"/>
   <path class="fil0" d="M9450.64 4492.21l9.83 2.76 -6.19 7.92 -3.64 -10.68zm-161.08 -397.13l9.81 2.77 -6.19 7.93 -3.62 -10.7zm0 0c-115.27,82.11 -138.17,359.49 -19.04,469.8 66.76,61.83 363.23,41.62 362.69,-244.4l-279.22 0c18.88,40.99 10.31,33.6 -10.75,75.14 61.16,0 155.96,10.6 204.06,0 -15.65,30.85 -15.35,44.71 -42.96,64.39l-10.74 10.73 -10.75 0 -32.23 21.47c-62.58,14.89 -89.73,39.89 -142.79,-18.28 -60.78,-66.65 -67.43,-204.65 27.25,-301.14 60.44,-61.6 78.1,-40.62 147.77,-24.03l10.75 0c11.69,7.73 32.65,23.2 40.61,34.52 33.99,48.38 -27.82,51.34 98.99,51.34 -16.83,-188.83 -275.02,-235.79 -343.66,-139.54z"/>
   <path class="fil0" d="M12726.17 4578.08l75.19 0 47.27 -285.47c16.32,-56.25 17.16,-30.89 17.16,-100.91l108.41 353.46c9.17,36.82 -27.68,32.92 106.38,32.92 0.08,-78.93 75.35,-420.44 75.18,-515.18l-75.18 0c0,33.79 -37.29,333.04 -64.43,375.66 0.11,-59.43 -90.13,-303.14 -107.4,-375.66l-96.65 0 -41.87 247.95c-13.28,83.62 -36.87,186.73 -44.06,267.22z"/>
   <path class="fil0" d="M322.11 4578.08l84.08 -0.38 50.03 -295.1c9.07,-25.83 10.54,4.3 14.63,-37.5 4.46,-45.49 -20.47,-3.49 4.37,-39.91 17.56,27.89 17.84,53.68 30.67,92.61 11.54,34.99 18.66,64.96 29.51,99.32l45.61 147.92c9.51,36.92 -28.79,33.04 106.24,33.04 -0.24,-132.23 75.09,-409.18 75.17,-515.18l-75.17 0c0.23,124.03 -53.93,262.34 -53.7,386.38l-14.83 -45.21c-2.24,-19.2 -97.26,-273.27 -103.31,-341.17l-96.66 0 -9.51 43.27c-3.64,29.23 -6.86,39.97 -10.87,65.15 -14.57,91.43 -50.52,351.13 -76.28,406.75z"/>
   <path class="fil0" d="M12436.21 4363.42c-58.63,237.78 -336.77,178.5 -278.81,-85.45 48.11,-219.15 348.6,-197.63 278.81,85.45zm-268.49 -257.59l-10.74 10.73 -10.74 10.74c-38.44,58.74 -62.47,116.7 -73.12,184.58 -13.47,86 16.9,143.43 51.64,212.54l10.74 10.73 10.75 10.74 0 10.73c97.67,86.14 366.71,24.4 376.32,-235.7 11.7,-317.05 -270.46,-310.34 -354.85,-215.08z"/>
   <path class="fil0" d="M7721.59 4363.42c-58.68,238.01 -337.07,178.12 -278.81,-85.45 48.89,-221.19 348.21,-195.99 278.81,85.45zm-268.48 -257.59l-10.75 10.73 -10.74 10.74c-81.4,124.4 -100.79,251.1 -32.22,386.38l10.74 10.75 10.75 10.73 10.74 10.74 0 10.73c64.43,56.82 191.62,40.8 259.91,-8.57 141.1,-102.02 166.03,-357.76 21.82,-466.18 -42.01,-31.6 -185.08,-60.88 -260.25,23.97z"/>
   <path class="fil0" d="M8859.98 4363.42c-20.47,60.11 -9.96,63.41 -61.44,110.33 -113.76,103.71 -270.09,-9.84 -218.19,-196.62 71.88,-258.73 358.48,-145.29 279.63,86.28zm-268.48 -268.33l0 10.75 -10.75 10.73 -10.74 10.74 -10.75 10.73c-68.59,136.47 -96.85,226.97 -21.47,375.66l10.74 10.75 10.74 10.73 10.75 10.74 0 10.73c89.66,79.07 344.91,44.15 375.23,-226.03 31.91,-284.47 -241.73,-334.26 -353.75,-235.48z"/>
   <path class="fil0" d="M11727.41 4502.95c18.33,-76.08 47.3,-327.77 64.43,-364.93 136.68,0 209.42,65.33 176.78,209.47 -30.98,136.82 -113,155.46 -241.21,155.46zm-85.91 75.13c92.47,0 192.83,14.78 272.33,-28.36 38.19,-20.72 56.85,-34.23 80.15,-70.16 45.73,-70.51 86.64,-168.18 54,-243.27 -69.94,-160.89 -47.45,-173.39 -320.57,-173.39l-41.86 247.95c-13.29,83.62 -36.88,186.73 -44.05,267.22z"/>
   <path class="fil0" d="M2706.27 4449.28l-9.82 -2.77 6.18 -7.91 3.64 10.68zm-300.71 53.67c25.38,-55.01 44.82,-283.53 64.45,-364.93 139.88,0 211.2,66.76 178.98,211.58 -29.72,133.55 -122.51,153.35 -243.43,153.35zm279.23 -32.21l21.48 -21.46c11.7,-20.37 44.58,-210.24 -10.54,-300.72 -59.44,-97.63 -193.03,-93.94 -299.98,-82.91 13.78,28.88 -67.5,493.79 -76.1,512.43 181.27,0 245.84,26.32 365.15,-107.33z"/>
   <path class="fil0" d="M7012.79 4502.95l61.11 -365.49c137.72,1.31 213.76,62.41 180.11,210.02 -30.67,134.51 -114.86,155.47 -241.22,155.47zm-85.91 75.13c161.06,0 299.72,26.6 379.1,-147.04 25.07,-54.85 55.32,-114.02 25.87,-193.23 -63.96,-172.08 -66.74,-174.9 -319.07,-174.9l-85.91 515.18z"/>
   <path class="fil0" d="M10846.77 4502.95c19.63,-81.39 39.07,-309.92 64.45,-364.93 136.67,0 209.41,65.33 176.76,209.47 -30.98,136.82 -112.99,155.46 -241.21,155.46zm-85.91 75.13c181.6,0 344.93,27.78 402.07,-220.7 17.99,-78.31 -0.19,-188.88 -55.23,-243.99 -65.94,-65.99 -171.3,-50.49 -260.92,-50.49l-41.85 247.95c-13.7,86.21 -24.2,184.83 -44.06,267.22z"/>
   <path class="fil0" d="M8097.48 4320.49c25.1,-104.18 1.17,-176.46 76.31,-180.49 91.83,-4.92 184.19,180.49 -76.31,180.49zm-118.14 257.59l75.17 0c6.92,-77.61 42.93,-192.81 42.97,-236.13l107.39 236.13 85.91 0 -84.97 -182.44c5.61,-10.5 73.3,-24.76 108.91,-72.68 28.68,-38.57 40.04,-110.07 22.99,-156.69 -46.49,-127.14 -166.37,-103.36 -283.21,-103.36 15.58,34.04 -60.79,455.54 -75.17,515.18z"/>
   <path class="fil0" d="M1653.8 4320.49l24.12 -171.32c44.82,-1.42 46.34,-16.39 92.23,0.92 53.06,20.01 109.92,170.4 -116.35,170.4zm-42.95 -225.4c0,43.99 -70.81,449.96 -85.91,482.99l84.08 -0.38c3.59,-49.18 10.75,-86.57 18.85,-132.89 24.36,-139.27 17.88,2.79 15.2,-113.6l60.88 121.63c13.62,26.96 19.76,41.82 29.38,67.22 24.7,65.17 12.55,58.01 103.06,58.01 -16.67,-69.95 -60.36,-121.33 -75.18,-182.45 55.6,-38.44 128.87,-22.48 128.87,-193.21 0,-162.55 -172.85,-139.52 -279.22,-139.52l0 32.19z"/>
   <path class="fil0" d="M13735.7 4320.49c-0.13,-65.08 20.23,-113.42 21.47,-171.73 15.63,-0.33 150.55,-35.69 139.94,85.29 -7.11,81.22 -92.81,86.44 -161.41,86.44zm-128.88 257.59l84.08 -0.38 37.8 -208.33c0.02,-1.02 -3.57,-30.51 -3.74,-38.15l61.02 121.48c64.26,134.79 18.61,125.38 132.29,125.38 -15.6,-65.46 -54.06,-130.33 -85.92,-193.2 182.75,-3.86 198.73,-321.98 -10.74,-321.98l-128.87 0c0.11,62.05 -64.98,469.39 -85.92,515.18z"/>
   <path class="fil0" d="M171.75 4492.21l-10.74 0c-35.94,8.65 -37.48,17.42 -75.19,0 -36.36,-78.83 42.87,-326.72 42.97,-429.31l-85.02 0.72c18.7,40.96 -25.06,214.53 -32.06,268.65 -12.46,96.4 -31.74,177.64 44.67,253.77 148.2,17.44 210.38,-26.68 232.49,-169.97l54.72 -353.17 -85.02 0.72c14.46,31.79 -30.27,388.31 -86.82,428.59z"/>
   <path class="fil0" d="M2018.95 4341.95l2.76 -9.81 7.93 6.19 -10.69 3.62zm-32.23 -268.32l0 10.74 -10.74 10.73c-39.22,77.38 -48.77,111.1 -10.75,193.2l10.75 10.74 10.74 10.73 0 10.75 32.23 21.46 32.22 21.47 10.74 0 10.74 10.74c39.62,28.54 39.51,89.59 0,118.06l-10.74 0 -63.86 13.51c-26.87,-54.63 -19.44,-38.64 -23.91,-97.54l-84.07 -2.02c19.74,42.98 5.74,71.79 32.22,128.98l10.74 10.74 10.75 10.73 0 10.75c66.45,59.45 194.56,0.94 226.75,-64.56 45.51,-92.61 -1.7,-173.41 -78.49,-223.14 -57.12,-36.98 -102.39,-71.17 -48.83,-138.87l65.46 3.07c18.98,39.61 25.61,29.38 7.87,66.55l78.11 0.13c36.76,-115.26 -122.46,-213.68 -207.91,-136.9z"/>
   <path class="fil0" d="M3490.25 4578.08l234.43 -0.15 14.78 -85.32 -152.56 -0.4 14.89 -132.87 160.77 -9.16 8.19 -72.55 -151.62 -0.09 15.3 -122.1 160.35 -9.19 13.48 -74.79c-55.64,-21.11 -181.46,-12.19 -240.99,-5.84 12.96,30.73 -63.45,456.11 -77.03,512.43z"/>
   <path class="fil0" d="M11168.96 4578.08l234.42 -0.15c4.81,-48.72 18.05,-43.06 4.61,-77.75 -43.01,-17.01 -104.59,-7.97 -153.12,-7.97 13.57,-29.43 21.55,-103.91 21.47,-139.52l164.87 -1.75 8.25 -73.3 -151.64 -0.09 15.32 -122.1 160.34 -9.19 13.49 -74.79c-55.64,-21.11 -181.47,-12.19 -241.01,-5.84 14.58,34.57 -23,196.42 -31.51,246.65 -14.83,87.43 -25.27,181.88 -45.49,265.78z"/>
   <path class="fil0" d="M14218.97 4578.08l234.43 -0.15c15.53,-44.52 12.65,-37.74 12.58,-85.72l-150.36 0 20.11 -139.75 162.47 0.23 0 -75.14 -150.36 0 22.51 -128.61 153.1 -2.03 19.63 -83.58 -247.1 -0.16c15.09,38.31 -60.84,479.85 -77.01,514.89z"/>
   <path class="fil0" d="M4814.51 4503.49c69.39,-0.55 142.52,13.73 198.42,-35.06 66.23,-57.83 98.21,-228.13 21.44,-306.59 -37.72,-38.53 -108.1,-23.83 -158.73,-23.83l-61.13 365.48z"/>
   <path class="fil0" d="M14004.18 4148.76l96.65 0 -73.78 429.54 73.78 -0.22 64.45 -418.59c39,-17.97 61.84,-9.18 105.55,-12.57l15.61 -83.51 -282.25 -0.51c18.67,40.64 3.71,44.22 0,85.86z"/>
   <polygon class="fil0" points="2184.93,4578.88 2264.12,4577.7 2341.13,4062.9 2265.95,4062.9 "/>
   <path class="fil0" d="M8333.74 4578.08l75.18 0c19.28,-79.97 30.65,-173.17 44.06,-256.49 12.51,-77.7 35.09,-182.76 41.85,-258.69l-84.1 0.7c12.76,31.99 -63.26,457.53 -76.99,514.47z"/>
   <path class="fil0" d="M6196.6 4363.42l128.86 0 -32.29 -214.65c-28.1,35.33 -92.56,168.44 -96.57,214.65z"/>
   <polygon class="fil0" points="1986.73,4320.49 1986.73,4309.74 1975.99,4309.74 "/>
   <polygon class="fil0" points="2061.9,4374.15 2061.9,4363.42 2051.17,4363.42 "/>
   <polygon class="fil0" points="7420.89,4545.88 7420.89,4535.14 7410.15,4535.14 "/>
   <polygon class="fil0" points="2738.49,2893 2738.49,2882.26 2727.75,2893 "/>
   <polygon class="fil0" points="8559.27,4545.88 8559.27,4535.14 8548.54,4535.14 "/>
   <polygon class="fil0" points="2717.02,2914.47 2717.02,2903.73 2706.27,2914.47 "/>
   <polygon class="fil0" points="12135.51,4545.88 12135.51,4535.14 12124.77,4535.14 "/>
   <polygon class="fil0" points="2695.54,2935.93 2695.54,2925.19 2684.79,2935.93 "/>
   <polygon class="fil0" points="1943.77,4567.35 1943.77,4556.6 1933.02,4556.6 "/>
   <polygon class="fil0" points="579.86,3483.31 579.86,3472.58 569.13,3472.58 "/>
   <polygon class="fil0" points="1986.73,4084.36 1986.73,4073.62 1975.99,4084.36 "/>
   <polygon class="fil0" points="8591.5,4105.83 8591.5,4095.09 8580.75,4105.83 "/>
   <polygon class="fil0" points="8570.02,4127.29 8570.02,4116.56 8559.27,4127.29 "/>
   <polygon class="fil0" points="1975.99,4309.74 1975.99,4299.02 1965.24,4299.02 "/>
   <polygon class="fil0" points="2684.79,2946.67 2684.79,2935.93 2674.06,2946.67 "/>
   <polygon class="fil0" points="2727.75,2903.73 2727.75,2893 2717.02,2903.73 "/>
   <polygon class="fil0" points="2706.27,2925.19 2706.27,2914.47 2695.54,2925.19 "/>
   <polygon class="fil0" points="9493.61,4470.74 9493.61,4460.02 9482.86,4470.74 "/>
   <polygon class="fil0" points="7410.15,4535.14 7410.15,4524.42 7399.41,4524.42 "/>
   <polygon class="fil0" points="8548.54,4535.14 8548.54,4524.42 8537.8,4524.42 "/>
   <polygon class="fil0" points="1933.02,4556.6 1933.02,4545.88 1922.28,4545.88 "/>
   <polygon class="fil0" points="8570.02,4556.6 8570.02,4545.88 8559.27,4545.88 "/>
   <polygon class="fil0" points="12146.25,4556.6 12146.25,4545.88 12135.51,4545.88 "/>
   <polygon class="fil0" points="12156.99,4116.56 12156.99,4105.83 12146.25,4116.56 "/>
   <polygon class="fil0" points="8580.75,4116.56 8580.75,4105.83 8570.02,4116.56 "/>
   <polygon class="fil0" points="7431.63,4556.6 7431.63,4545.88 7420.89,4545.88 "/>
   <polygon class="fil0" points="7442.36,4116.56 7442.36,4105.83 7431.63,4116.56 "/>
   <polygon class="fil0" points="590.6,3494.04 590.6,3483.31 579.86,3483.31 "/>
   <polygon class="fil0" points="9268.08,2560.28 9258.25,2563.04 9264.44,2570.96 "/>
   <polygon class="fil0" points="2684.79,4470.74 2687.55,4480.56 2695.48,4474.38 "/>
   <polygon class="fil0" points="483.2,3375.99 473.38,3378.74 479.57,3386.66 "/>
   <path class="fil0" d="M13155.76 4460.02l3.2 -3.2c-0.2,0.21 -4.26,2.13 -3.2,3.2z"/>
   <path class="fil0" d="M2674.06 4535.14l3.2 -3.2c-0.22,0.21 -4.28,2.14 -3.2,3.2z"/>
   <polygon class="fil0" points="9504.34,4460.02 9493.61,4460.02 "/>
   <polygon class="fil0" points="1965.24,4299.02 1965.24,4288.28 "/>
   <polygon class="fil0" points="2749.23,2882.26 2738.49,2882.26 "/>
   <polygon class="fil0" points="9203.63,2495.88 9192.9,2495.88 "/>
   <polygon class="fil0" points="171.75,4492.21 161.02,4492.21 "/>
   <polygon class="fil0" points="9493.61,4148.76 9482.86,4148.76 "/>
   <polygon class="fil0" points="8559.27,4138.02 8559.27,4127.29 "/>
   <polygon class="fil0" points="12146.25,4127.29 12146.25,4116.56 "/>
   <polygon class="fil0" points="7431.63,4127.29 7431.63,4116.56 "/>
   <polygon class="fil0" points="2072.64,4492.21 2061.9,4492.21 "/>
   <polygon class="fil0" points="7399.41,4524.42 7399.41,4513.67 "/>
   <polygon class="fil0" points="8537.8,4524.42 8537.8,4513.67 "/>
   <polygon class="fil0" points="12124.77,4535.14 12124.77,4524.42 "/>
   <polygon class="fil0" points="12167.72,4105.83 12156.99,4105.83 "/>
   <polygon class="fil0" points="7453.11,4105.83 7442.36,4105.83 "/>
   <polygon class="fil0" points="1975.99,4095.09 1975.99,4084.36 "/>
   <polygon class="fil0" points="9160.68,2463.68 9149.93,2463.68 "/>
   <polygon class="fil0" points="644.29,3526.24 633.56,3526.24 "/>
   <polygon class="fil0" points="601.34,3494.04 590.6,3494.04 "/>
   <polygon class="fil0" points="1922.28,4545.88 1922.28,4535.14 "/>
   <polygon class="fil0" points="2072.64,4374.15 2061.9,4374.15 "/>
   <polygon class="fil0" points="2631.09,2989.6 2620.35,2989.6 "/>
   <path class="fil0" d="M13527.31 4363.42c-58.63,237.78 -336.77,178.5 -278.81,-85.45 48.11,-219.15 348.6,-197.63 278.81,85.45zm-268.49 -257.59l-10.74 10.73 -10.74 10.74c-38.44,58.74 -62.47,116.7 -73.12,184.58 -13.47,86 16.9,143.43 51.64,212.54l10.74 10.73 10.75 10.74 0 10.73c97.67,86.14 366.71,24.4 376.32,-235.7 11.7,-317.05 -270.46,-310.34 -354.85,-215.08z"/>
  </g>
 </g>
</svg>
