<?xml version="1.0" encoding="UTF-8"?>
<!DOCTYPE svg PUBLIC "-//W3C//DTD SVG 1.1//EN" "http://www.w3.org/Graphics/SVG/1.1/DTD/svg11.dtd">
<!-- Creator: CorelDRAW 2020 (64 Bit) -->
<svg xmlns="http://www.w3.org/2000/svg" xml:space="preserve" width="314.211mm" height="170.492mm" version="1.1" style="shape-rendering:geometricPrecision; text-rendering:geometricPrecision; image-rendering:optimizeQuality; fill-rule:evenodd; clip-rule:evenodd"
viewBox="0 0 18183.21 9866.29"
 xmlns:xlink="http://www.w3.org/1999/xlink"
 xmlns:xodm="http://www.corel.com/coreldraw/odm/2003">
 <defs>
  <style type="text/css">
   <![CDATA[
    .fil10 {fill:#244057;fill-rule:nonzero}
    .fil5 {fill:#403733;fill-rule:nonzero}
    .fil9 {fill:#424242;fill-rule:nonzero}
    .fil1 {fill:#784A36;fill-rule:nonzero}
    .fil0 {fill:#964823;fill-rule:nonzero}
    .fil12 {fill:#AB7B68;fill-rule:nonzero}
    .fil15 {fill:#C29141;fill-rule:nonzero}
    .fil11 {fill:#C79079;fill-rule:nonzero}
    .fil6 {fill:#C7C4C3;fill-rule:nonzero}
    .fil14 {fill:#E54242;fill-rule:nonzero}
    .fil2 {fill:#EB7878;fill-rule:nonzero}
    .fil7 {fill:#EEA886;fill-rule:nonzero}
    .fil4 {fill:#EEA987;fill-rule:nonzero}
    .fil13 {fill:#FCCCA2;fill-rule:nonzero}
    .fil8 {fill:#FFBF55;fill-rule:nonzero}
    .fil3 {fill:#FFF1EB;fill-rule:nonzero}
   ]]>
  </style>
 </defs>
 <g id="Camada_x0020_4">
  <metadata id="CorelCorpID_0Corel-Layer"/>
  <path class="fil0" d="M2339.89 2665.42c0,0 52.86,1377.43 -109.86,1877.02 -162.73,499.59 -497.11,1300.8 -979.08,1301.57 -482.2,0.83 -629.85,-773.71 -629.85,-773.71 0,0 -68.77,25.96 -42.87,163.67 26.13,137.65 216.41,696.9 715.76,696.08 499.36,-0.89 919.71,-784.95 1056.48,-1404.99 136.77,-620.09 145.34,-852.83 145.34,-852.83l-155.93 -1006.81z"/>
  <path class="fil1" d="M4707.99 8883.47c-419.7,-31.58 -413.2,-89.7 -607.74,-567.11 -14.9,-36.43 -29.62,-74.09 -44.7,-113.06 -181.7,-474.1 -371.98,-1121.75 -467.72,-1306.48 -75.92,-146.35 -148.41,-382.57 -181.88,-498.7 -12.3,-42.57 -19.39,-69.18 -19.39,-69.18 0,0 503.2,-330.18 1050.97,273 0,0 -94.73,99.87 -74.98,306.47 19.64,206.54 298.31,806.53 356.91,1000.12 58.36,193.59 375.6,774.13 446.67,780.51 71.02,6.33 -38.37,226 -458.14,194.42z"/>
  <path class="fil1" d="M10398.48 5616.42c0,0 315.87,396.59 367.73,564.4 52.03,167.75 175.55,755.15 40.8,1155.64 -134.93,400.54 -471.15,1465.24 -438.51,1600.77 32.46,135.52 828.82,180.58 931.95,70.66 103.12,-109.92 -20.4,-639.13 69.41,-955.66 89.82,-316.59 269.46,-994.8 269.28,-1143.28 -0.23,-148.53 -39.2,-1717.55 -1240.66,-1292.52z"/>
  <path class="fil1" d="M17981.3 7967.9c-602.06,345.26 -833.79,159.95 -921.36,-7.27 -37.96,-72.49 -145.58,-160.12 -274.36,-252.37 -0.83,-0.47 -1.66,-1.24 -2.42,-1.77 -194.42,-139.14 -436.09,-289.56 -558.78,-415.92 0,-0.24 -0.24,-0.47 -0.41,-0.77 -1.01,-1.01 -2.07,-2.01 -3.31,-3.31 -15.26,-16.26 -28.74,-32.29 -39.98,-47.48 -155.39,-214.88 -775.78,-583.91 -870.74,-790.33 -95.09,-206.48 -448.5,-429.76 -586.51,-644.63 -49.37,-77.16 -172.31,-135.59 -315.57,-169.94 -256.04,-61.56 -577.76,-47.83 -665.98,68.29 -137.36,181 -1591.54,725.82 -1591.36,820.31 0.24,94.85 62.5,1231.09 45.53,1420.36 -3.25,36.19 9.22,103.07 31.46,188.51 93.3,361.93 333.96,880.44 299.49,977.89 -42.87,120.69 -776.2,134.47 -931.36,22.65 -8.16,-5.91 -15.49,-12.89 -22.05,-21.41 -20.16,-25.25 -33.06,-61.67 -40.62,-105.55 -37.31,-212.22 50.86,-599.28 43.93,-768.16 -5.56,-129.91 -39.62,-429.4 -52.5,-714.47 -8.34,-187.03 -7.75,-368.02 15.96,-490.78 59.78,-310.02 -225.4,-912.02 -363.41,-1127.19 -21.41,-33.29 -62.03,-66.28 -117.38,-97.68l0 -0.24c-301.74,-171.53 -1039.32,-295.29 -1474.58,-148.89 -284.59,95.55 -1249.59,221.38 -2103.37,313.27 -690.46,74.5 -1308.19,126.72 -1435.2,123.05 -284.12,-8.1 -533.41,267.92 -1161.37,466.83 -628.2,199.15 -1154.28,-273.36 -1222.87,-273.24 -69,0.12 -343.61,577.29 -394.46,1024.96 -22.64,200.45 85.56,505.5 208.43,791.46 151.9,353.54 325.86,678.16 302.15,740.19 -42.87,111.94 -636.95,112.88 -869.69,1.48 -232.5,-111.7 -337.04,-868.97 -449.74,-1325.16 -112.47,-455.89 24.95,-542.34 212.92,-1282.88 188.45,-740.78 -123.88,-2152.15 -306.82,-3382.77 -24.07,-161.31 -40.03,-311.91 -48.6,-453.11 0,0 0,-0.24 -0.18,-0.53 -56.94,-936.08 207.43,-1457.97 595.67,-1914.75 138.84,-163.43 372.82,-228.12 653.92,-234.33 167.4,-3.9 351.94,13.13 542.87,42.22 519.93,78.94 1089.94,247.93 1506.63,333.96 826.76,170.65 3744.11,-445.43 4122.42,-592.48 116.13,-45.12 370.69,-45.06 697.73,-14.6 365.25,33.7 821.14,105.54 1275.14,194.36 465.06,91.17 928.28,200.39 1290.87,305.41 1033.59,299.67 1620.34,1271.24 1931.06,1727.07 217.84,319.42 773.72,979.84 1087.29,1347.04 0.41,0.3 0.83,0.83 1.24,1.3 64.92,76.1 119.44,139.31 158.23,184.42 38.55,44.82 61.85,71.43 64.28,74.51 -1.24,-8.76 -25.07,-188.75 335.21,-508.05 369.5,-327.88 552.03,644.69 561.26,937.33 8.99,292.58 52.22,369.98 311.08,653.62 258.69,283.65 130.44,800.38 165.15,1058.6 34.94,258.23 966.89,1625.43 365.06,1970.98z"/>
  <path class="fil2" d="M3662.15 6287.6c0,0 465.65,-741.19 581.61,-889.85 115.95,-148.71 257.63,-387.84 289.91,-439.57 32.05,-51.68 1736.7,21.28 1847.34,565.04 110.87,543.76 -1537.85,1735.11 -2718.86,764.37z"/>
  <path class="fil3" d="M11295.78 5077.92c-102.95,232.62 -258.87,518.75 -236.23,728.72 -301.74,-171.53 -1039.32,-295.29 -1474.58,-148.89 -284.59,95.55 -1249.59,221.38 -2103.37,313.27 5.32,-7.75 96.8,-133.16 371.93,-258.64 283.83,-129.61 618.8,-583.73 429.17,-774.25 -189.86,-190.52 -665.92,-258.4 -617.55,-387.6 48.6,-129.26 -89.23,-25.66 108.38,-293.1 197.61,-267.09 387.07,-189.93 421.19,-370.8 34.29,-180.82 -53.69,-430.41 140.67,-508.23 194.12,-77.81 262.3,-465.29 244.32,-843.9 -17.56,-378.85 593.08,-638.13 748.06,-638.43 154.92,-0.24 533.82,68.06 594.67,472.45 61.26,404.57 293.76,524.78 380.32,825.75 86.57,301.27 328.29,679.7 216.59,843.37 -111.64,163.67 155.4,283.82 327.88,412.67 172.54,128.85 551.62,394.99 448.56,627.61z"/>
  <path class="fil3" d="M16019.79 3595.18c-153.68,-176.09 -327.23,193.3 -378.32,364.83 -51.21,172.36 77.82,137.77 99.87,344.37 22.23,206.54 -64.51,155.04 -4.08,352 60.84,196.96 -489.95,397.77 -619.39,302.98 -129.26,-94.84 -275.42,-68.29 -533.47,-7.39 -258.22,60.61 -646.11,-222.8 -818.42,-292.28 -172.48,-69.41 -258.28,27.08 -387.48,0.71 -129.02,-26.37 -241.13,-119.21 -224.4,-239.83 17.15,-120.62 154.57,-344.55 93.96,-542.51 -60.49,-197.97 -172.3,-51.38 -335.86,-91.65 -163.55,-40.5 -447.91,-173.84 -525.31,-173.66 -77.52,0.12 -688.98,-33.47 -875.18,-75.98 -186.38,-42.81 -270.7,-275.08 -311.32,-429.99 -40.8,-154.86 31.64,-206.66 160.48,-310.2 129.03,-103.48 -0.59,-404.69 -112.7,-542.16 -112.28,-137.48 128.43,-404.92 382.16,-517.15 253.55,-112.29 115.95,-163.73 193.18,-301.74 77.16,-137.77 -568.78,-291.63 -568.78,-403.44 -0.23,-112.11 51.45,-69.06 -34.7,-154.92 -86.39,-86.15 76.93,-361.7 300.32,-448.32 223.75,-86.39 190.22,-213.16 190.22,-213.16 465.06,91.17 928.28,200.39 1290.87,305.41 507.51,147.12 907.23,456.07 1219.38,786.67 0,0 0,0.3 0.17,0.53 324.03,342.42 553.28,707.96 711.51,939.87 81.07,118.67 208.61,284.53 353.18,464.82 244.15,304.82 536.9,651.44 734.1,882.22z"/>
  <path class="fil1" d="M15217.87 2927.66c77.64,154.86 104.12,507.81 1.06,619.86 -103.12,112.23 -378.73,-33.7 -413.2,86.98 -34.11,120.39 -180.29,327.22 -372.4,-59.84 -192.29,-387.07 215.59,-1016.09 206.6,-1317.47 -8.99,-301.15 -422.6,-558.66 -362.53,-627.72 58.36,-67.29 -51.09,-309.37 -56.41,-321.19 324.03,342.42 553.28,707.96 711.51,939.87 81.07,118.67 208.61,284.53 353.18,464.82 -164.56,-111.05 -145.58,59.9 -67.82,214.7z"/>
  <path class="fil3" d="M17981.3 7967.79c-69.83,40.14 -134.99,73.08 -194.95,99.81 -0.65,0.24 -0.89,0.24 -1.24,0.24 -457.9,202.22 -647.59,40.33 -724.94,-107.26 -38.2,-72.49 -145.81,-160.12 -274.6,-252.31 -0.83,-0.53 -1.42,-1.3 -2.25,-1.83 -131.68,-103.36 -3.48,-257.75 60.61,-309.25 64.51,-51.74 212.57,-336.16 -0.6,-387.36 -213.1,-51.32 -549.55,-496.28 -517.74,-638.37 32.05,-142.09 -38.96,-167.81 -126.36,-245.15 -87.39,-77.28 35.3,-174.37 -0.59,-348.63 -35.95,-174.26 -138.84,-51.45 -209.85,-135.23 -71.31,-83.79 12.65,-148.48 -58.6,-277.5 -71.31,-129.02 -129.49,-148.3 5.68,-382.81 135.35,-234.15 315.63,-424.85 244.38,-657.17 -71.43,-232.32 -1.01,-544.17 -1.01,-544.17 38.55,44.94 61.85,71.49 64.51,74.56 -1.48,-8.81 -25.13,-188.74 334.97,-508.04 369.5,-327.82 552.03,644.69 561.44,937.27 8.99,292.63 52.27,370.04 310.9,653.68 12.24,13.43 23.48,27.08 33.88,41.51 213.16,290.21 98.22,771 131.5,1017.1 6.92,52.15 50.86,149.72 110.81,274.84 145.58,301.92 386.89,764.84 443.65,1142.63 36.37,240.36 -2.84,446.25 -189.63,553.46z"/>
  <path class="fil4" d="M16800.66 4692.04c33.88,-70.31 77.16,-109.92 76.75,-387.53 -0.59,-277.62 -182.06,-768.04 -311.08,-722.57 -129.02,45.35 -328.88,297.54 -224.75,762.19 104.07,464.7 422.96,422.78 459.08,347.92z"/>
  <path class="fil3" d="M12227.49 8131.57c-317.65,62.26 -251.72,-700.22 -432.6,-758.05 -180.88,-57.77 -263.13,-285.18 -162.07,-395.87 101.05,-110.46 63.69,-456.18 44.29,-520.76 -19.57,-64.51 -26.37,-296.95 63.92,-419.77 89.99,-122.81 25.49,-142.09 18.56,-406.81 -6.92,-264.67 283.76,-155.45 380.74,-143.99l10.17 1036.37c0.24,94.85 62.5,1231.09 45.53,1420.36 -3.25,36.19 9.22,103.07 31.46,188.51z"/>
  <path class="fil3" d="M4533.67 4958.19l-871.52 1329.48c-69,0.12 -343.61,577.29 -394.46,1024.96 -22.64,200.45 85.56,505.5 208.43,791.46l0 0.23c-119.21,394.1 -473.99,-12.06 -467.66,-167.04 6.09,-154.98 5.73,-413.26 -20.22,-529.39 -26.14,-116.19 -97.39,-206.48 -78.17,-309.78 19.15,-103.36 -6.56,-142.03 -90.88,-296.89 -84.08,-154.8 128.43,-400.49 218.43,-613.71 90.05,-213.22 380.73,-168.52 432,-385.05 51.27,-216.54 122.1,-364.89 302.98,-358.68 180.64,6.15 231.67,-368.44 509.34,-543.23 277.85,-174.85 251.72,57.65 251.72,57.65z"/>
  <path class="fil3" d="M10435.43 21.31c0,0 -129.37,142.8 -335.8,160.42 -206.6,17.38 -542.22,181.76 -360.93,388.01 181.06,206.3 -51.09,404.57 -240.31,404.86 -189.45,0.3 -679.99,26.97 -679.64,285.24 0.41,258.28 -447.26,293.64 -533.23,293.76 -86.16,0.18 0.23,197.85 -206.37,189.69 -206.6,-8.22 -327.04,34.89 -395.64,155.63 -68.59,120.74 -335.62,-25.31 -482.03,129.91 -146.17,155.22 -120.03,249.94 -223.33,284.47 -103.3,34.53 -188.86,250.06 -231.91,336.15 -42.69,86.09 -206.18,155.28 -240.89,0.42 -34.71,-154.92 -9.99,-886.59 -337.28,-920.66 -327.22,-33.82 -508.34,-119.44 -577.34,-291.69 -69.18,-172.13 -379.5,-446.84 -646.35,-472.27 -266.97,-25.37 -663.27,-162.61 -680.82,-308.78 -16.74,-142.2 -147.59,-350.16 -154.92,-362.05 519.93,78.94 1089.94,247.93 1506.63,333.96 826.76,170.65 3744.11,-445.43 4122.42,-592.48 116.13,-45.12 370.69,-45.06 697.73,-14.6z"/>
  <path class="fil3" d="M4049.4 1190.54c19.39,-122.64 395.64,-224.52 723.1,-52.86 327.29,171.59 474.05,369.33 585.92,377.78 111.87,8.4 224.39,266.49 224.57,387 0.18,120.57 533.65,16.32 611.47,205.6 77.99,189.22 61.2,464.76 1,585.33 -60.02,120.69 -51.03,292.81 -197.43,310.31 -146.35,17.44 -473.4,78.23 -748.65,199.27 -275.13,120.98 -601.41,-85.09 -717.96,70.07 -116.6,155.16 -253.79,491.13 -529.56,371.1 -275.61,-120.09 -378.5,95.32 -482.21,-93.9 -103.71,-189.22 -328.05,-610.69 -44.52,-878.02 283.59,-267.33 286.25,-456.72 185.61,-620.16 -100.88,-163.37 760,-199.27 673.49,-422.96 -86.57,-223.69 -318.89,-223.27 -284.83,-438.56z"/>
  <path class="fil0" d="M666.45 5238.75c0,0 33.06,98.16 -70.66,63.98 -103.48,-34.24 -198.44,-172.31 -147.17,-460.56 51.03,-288.2 -9.64,-546.36 -198.85,-416.93 -189.04,129.49 -344.43,-16.62 -181.11,-171.83 163.37,-155.28 1139.79,-310.55 597.8,985.34z"/>
  <path class="fil1" d="M17727.28 6271.7c0,0.3 0,0.3 0,0.53 -45.88,265.08 -398.89,-174.14 -708.97,-244.63 -310.31,-70.54 -155.81,-529.21 -139.01,-697.38 16.5,-168.16 253.96,-96.97 286.37,-297.18 32.11,-200.22 318.88,-53.28 318.88,-53.28 0.24,0 0.24,0 0.42,0 213.16,290.21 98.22,771 131.5,1017.1 6.92,52.15 50.86,149.72 110.81,274.84z"/>
  <path class="fil5" d="M17172.23 5515.67c21.23,105.72 176.62,141.73 228.24,89.99 51.44,-51.74 -26.31,-292.63 -133.93,-275.25 -107.56,17.38 -107.38,120.74 -94.31,185.26z"/>
  <polygon class="fil6" points="5053.84,7195.13 4148.85,7196.67 4453.25,9054.12 5057.09,9053.12 5660.98,9052.11 5959.06,7193.6 "/>
  <path class="fil7" d="M4778.65 6409.77c0,0 -159.24,158.29 -143.33,231.97 15.91,73.67 265.44,-24.6 325.63,-156.58 60.02,-131.92 -182.3,-75.39 -182.3,-75.39z"/>
  <path class="fil8" d="M5919.03 3599.79c0,0 -339.7,135.29 -359.1,607.68 -19.22,472.45 -37.37,719.02 -55.52,791.99 -18.39,72.91 -53.1,366.01 -138.42,542.46 -82.67,171.24 -626.13,851.83 -626.13,851.83l263.78 109.1c0,0 757.75,-763.07 803.69,-902.44 45.95,-139.37 234.22,-1108.99 248.88,-1272.42 12.07,-131.74 184.78,-718.9 -137.18,-728.18z"/>
  <path class="fil7" d="M6211.19 8936.98c0,0 24.9,180.47 27.97,207.54 3.01,27.08 273.72,-16.43 273.72,-16.43l21.64 -214.88c0,0 -289.68,-1.71 -323.32,23.77z"/>
  <path class="fil9" d="M6236.26 9121.59c0,0 -230.85,131.03 -313.75,178.51 -82.9,47.55 -338.28,72.56 -328.88,121.81 9.4,49.19 83.26,159.83 427.86,156.16 344.61,-3.66 510.83,20.64 547.54,-37.84 36.78,-58.48 -54.1,-431.35 -54.1,-431.35 0,0 -78.41,51.5 -278.68,12.71z"/>
  <path class="fil7" d="M5086.48 9151.33l40.03 228.01c0,0 292.76,-18.15 305,-58.18 12.3,-40.03 -32.46,-252.43 -32.46,-252.43l-312.56 82.6z"/>
  <path class="fil9" d="M5437.65 9275.15c0,0 88.81,340.35 24.3,457.37 -64.33,117.02 -273.6,138.9 -350.34,132.87 -76.99,-5.97 -286.19,-76.4 -480.14,-66.82 -193.77,9.52 -421.6,-39.32 -366.25,-159.42 55.11,-120.03 477.3,-83.84 606.08,-194.83 128.67,-110.93 244.62,-125.95 244.62,-125.95 0,0 90,-42.87 321.73,-43.22z"/>
  <path class="fil10" d="M7266.01 6309.01c0,0 34.29,577.05 -221.68,683.54l-2004.98 3.43c0,0 447.68,2059.67 435.43,2294.12l-425.85 59.89c0,0 -738.59,-1850.17 -781.88,-1965.07 -54.1,-142.97 -50.61,-521.35 106.14,-664.68 156.99,-143.33 1164.92,-549.67 1363.31,-564.57 198.44,-14.9 1529.51,153.33 1529.51,153.33z"/>
  <path class="fil10" d="M5700.19 7267.09c0,0 361.93,1829.9 421.95,1843.62 59.84,13.78 455.06,48.43 455.06,48.43 0,0 38.2,-993.74 14.73,-1242.91 -23.71,-249.12 -28.98,-724.4 -28.98,-724.4l-862.76 75.27z"/>
  <path class="fil11" d="M7526.71 7390.08l-3667.36 6.21c-55.53,0.12 -100.46,-44.7 -100.64,-100.17l-0.24 -197.67c-0.18,-55.4 44.76,-100.4 100.05,-100.46l3667.36 -6.27c55.58,-0.06 100.46,44.76 100.64,100.22l0.24 197.61c0.17,55.4 -44.7,100.4 -100.05,100.52z"/>
  <polygon class="fil12" points="7342.4,8409.25 4046.97,8414.86 4045.73,7695.49 7341.16,7689.87 "/>
  <polygon class="fil11" points="7231.54,9737.25 7227.64,7390.61 7453.86,7390.2 7457.71,9736.83 "/>
  <polygon class="fil11" points="3936.1,9742.86 3932.26,7396.17 4158.43,7395.76 4162.34,9742.45 "/>
  <path class="fil8" d="M7011.45 4445.94c0,0 -156.81,-960.27 266.03,-774.48 0,0 117.97,163.14 206.36,456.07 67.17,221.85 178.46,791.93 124.95,961.1 -53.52,169.11 -208.61,265.44 -411.78,506.69 0,0 -406.46,440.22 -434.02,498.82l-250.48 -225.4c0,0 372.16,-425.14 656.34,-810.02l-157.4 -612.76z"/>
  <path class="fil7" d="M6377.93 3042.08c0,0 112.29,295.66 25.78,524.48 0,0 409.89,-27.31 425.38,-75.27 15.56,-47.89 -17.32,-491.13 38.85,-622.22 56.29,-131.15 -490.02,173.01 -490.02,173.01z"/>
  <path class="fil8" d="M6338.97 3466.63c0,0 -242.14,86.57 -351.53,110.69 -109.45,24.13 -338.28,133.04 -319.13,541.51 19.4,408.47 88.4,762.66 113.53,938.1 25.07,175.55 10.4,622.4 -29.63,839.47 0,0 581.02,145.81 1264.32,-2.13 0,0 -121.87,-370.03 -118.79,-465.77 2.84,-95.79 402.38,-884.76 420.71,-1009.29 18.39,-124.47 98.22,-673.61 -85.32,-794.52 -183.3,-120.98 -332.55,-104.78 -410.36,-158.89 -77.52,-54.16 -370.51,-38.32 -483.8,0.83z"/>
  <path class="fil8" d="M7279.31 6535.77c-992.2,264.96 -1782.23,4.02 -1782.23,4.02 71.6,-148.12 124.52,-295.89 162.49,-438.98 0,-0.06 0.18,-0.06 0.18,-0.12 26.96,-101.06 46.53,-199.68 60.43,-294.47l0 -0.06c79.83,-540.81 -26.13,-954.71 -26.13,-954.71 113.12,-943.01 1539.1,-1226.83 1653.87,-928.16 114.89,298.72 -64.75,1611.82 -81.66,1722.04 -16.79,110.1 13.07,890.44 13.07,890.44z"/>
  <path class="fil7" d="M6490.46 2022.03c-174.14,7.33 -611.05,113.47 -468.55,792.05 142.74,678.57 378.49,599.04 609.39,487.94 230.67,-111.05 434.84,-686.44 412.19,-828.35 -22.47,-141.8 -56.35,-472.57 -553.04,-451.64z"/>
  <path class="fil13" d="M5996.61 2497.02c0,0 232.73,221.67 436.08,251.18 0,0 216.77,247.46 487.88,275.84 0,0 443.66,-630.51 -87.98,-966.01 -531.4,-335.5 -872.34,230.31 -835.98,438.99z"/>
  <path class="fil13" d="M6826.26 2108.65c10.82,-23.71 404.03,-279.27 550.21,115.66 146.17,394.93 -212.51,930.18 -258.05,1144.7 -45.53,214.52 131.68,676.51 131.68,676.51 0,0 -291.92,-205.95 -406.04,-448.92 -125.59,-266.85 -255.21,-966.54 -17.8,-1487.95z"/>
  <path class="fil14" d="M6845.48 2091.68c0,0 -114.36,120.63 -107.79,284.01 0,0 -42.28,-122.1 -1.24,-206.3 40.86,-84.26 109.04,-77.7 109.04,-77.7z"/>
  <path class="fil15" d="M5659.74 6100.7c26.96,-101.06 58.42,-290.51 72.31,-385.29l0 0c0,0 53.27,-48.48 75.27,-115 22.06,-66.52 185.02,-884.11 185.02,-884.11 0,0 175.14,767.33 -332.6,1384.41z"/>
 </g>
</svg>
